{
.appVersion = "983";
DisplayStrings = (
"Aussenwirkung\012Blocksatz\012Cauda\012Durchschuss\012Einzelblatt\012F\U00E4hnchen\012Grundlinie\012Hurenkind\012Industrienorm\012Jungfrau\012Kopfzeile\012Linksb\U00FCndig\012Monatsbl\U00E4tter\012Nachbreite\012Oberl\U00E4nge\012Paginierung\012Querstnrich\012Rotunda\012Spationierung\012Typografie\012Unterl\U00E4nge\012Versalh\U00F6he\012Werkschrift\012X-h\U00F6he\012YCC\012Zeilenabstand",
"HOHOHOHO\012NONONONO\012HCHOCO LOCO\012HONCHONC\012hohohoho\012nononono\012minimum\012maximum",
"MQUARTERLY\012EXQUISITE\012HLHIHOH\012HILLINGDON\012",
/M.002
);
copyright = "Copyright © 2017 by William Montrose. All rights reserved.";
date = "2017-06-06 09:25:47 +0000";
designer = "William Montrose";
designerURL = www.bezierfantasy.com;
familyName = "US Display";
fontMaster = (
{
ascender = 720;
capHeight = 670;
descender = -280;
guideLines = (
{
position = "{193, -199}";
},
{
position = "{114, 689}";
}
);
id = "0AB32919-C634-42BE-AC70-4A96502CEFC8";
userData = {
GSOffsetHorizontal = 19;
GSOffsetMakeStroke = 1;
GSOffsetVertical = 16;
};
weight = Light;
weightValue = 18;
xHeight = 515;
},
{
ascender = 720;
capHeight = 670;
descender = -280;
guideLines = (
{
position = "{14, 506}";
},
{
position = "{248, -199}";
},
{
position = "{88, -16}";
},
{
position = "{618, 689}";
},
{
position = "{618, 720}";
},
{
position = "{618, 737}";
},
{
position = "{14, 550}";
}
);
id = "4208D53D-8B52-43BA-A51E-290EEDFDCE51";
weight = Bold;
weightValue = 215;
xHeight = 535;
}
);
glyphs = (
{
color = 3;
glyphname = A;
lastChange = "2017-06-09 08:56:47 +0000";
layers = (
{
anchors = (
{
name = bottom;
position = "{304, 0}";
},
{
name = ogonek;
position = "{593, 0}";
},
{
name = top;
position = "{304, 670}";
}
);
layerId = "0AB32919-C634-42BE-AC70-4A96502CEFC8";
paths = (
{
closed = 1;
nodes = (
"499 197 LINE",
"492 215 LINE",
"118 215 LINE",
"111 197 LINE"
);
},
{
closed = 1;
nodes = (
"294 670 LINE",
"15 0 LINE",
"38 0 LINE",
"123 206 LINE",
"306 650 LINE",
"302 650 LINE",
"485 206 LINE",
"570 0 LINE",
"593 0 LINE",
"314 670 LINE"
);
}
);
width = 608;
},
{
anchors = (
{
name = bottom;
position = "{345, 0}";
},
{
name = ogonek;
position = "{687, 0}";
},
{
name = top;
position = "{345, 670}";
}
);
background = {
paths = (
{
closed = 1;
nodes = (
"-3 0 LINE",
"245 0 LINE",
"294 249 LINE",
"374 670 LINE",
"185 670 LINE"
);
},
{
closed = 1;
nodes = (
"320 670 LINE",
"400 249 LINE",
"449 0 LINE",
"697 0 LINE",
"509 670 LINE"
);
},
{
closed = 1;
nodes = (
"533 111 LINE",
"533 271 LINE",
"168 271 LINE",
"168 111 LINE"
);
}
);
};
layerId = "4208D53D-8B52-43BA-A51E-290EEDFDCE51";
paths = (
{
closed = 1;
nodes = (
"533 113 LINE",
"513 273 LINE",
"188 273 LINE",
"168 113 LINE"
);
},
{
closed = 1;
nodes = (
"182 670 LINE",
"3 0 LINE",
"238 0 LINE",
"287 249 LINE",
"353 596 LINE",
"337 596 LINE",
"403 249 LINE",
"452 0 LINE",
"687 0 LINE",
"509 670 LINE"
);
}
);
width = 690;
}
);
unicode = 0041;
},
{
color = 3;
glyphname = B;
lastChange = "2017-06-09 08:58:41 +0000";
layers = (
{
layerId = "0AB32919-C634-42BE-AC70-4A96502CEFC8";
paths = (
{
closed = 1;
nodes = (
"485 355 OFFCURVE",
"530 405 OFFCURVE",
"530 497 CURVE SMOOTH",
"530 617 OFFCURVE",
"468 670 OFFCURVE",
"337 670 CURVE SMOOTH",
"88 670 LINE",
"88 0 LINE",
"357 0 LINE SMOOTH",
"489 0 OFFCURVE",
"551 57 OFFCURVE",
"551 177 CURVE SMOOTH",
"551 289 OFFCURVE",
"499 346 OFFCURVE",
"390 354 CURVE",
"390 342 LINE"
);
},
{
closed = 1;
nodes = (
"456 652 OFFCURVE",
"510 606 OFFCURVE",
"510 497 CURVE SMOOTH",
"510 398 OFFCURVE",
"454 356 OFFCURVE",
"336 356 CURVE SMOOTH",
"107 356 LINE",
"107 652 LINE",
"336 652 LINE SMOOTH"
);
},
{
closed = 1;
nodes = (
"107 18 LINE",
"107 338 LINE",
"357 338 LINE SMOOTH",
"475 338 OFFCURVE",
"531 289 OFFCURVE",
"531 177 CURVE SMOOTH",
"531 68 OFFCURVE",
"477 18 OFFCURVE",
"356 18 CURVE SMOOTH"
);
}
);
width = 600;
},
{
layerId = "4208D53D-8B52-43BA-A51E-290EEDFDCE51";
paths = (
{
closed = 1;
nodes = (
"549 353 OFFCURVE",
"592 403 OFFCURVE",
"592 494 CURVE SMOOTH",
"592 616 OFFCURVE",
"511 670 OFFCURVE",
"353 670 CURVE SMOOTH",
"45 670 LINE",
"45 0 LINE",
"370 0 LINE SMOOTH",
"528 0 OFFCURVE",
"609 57 OFFCURVE",
"609 189 CURVE SMOOTH",
"609 285 OFFCURVE",
"561 333 OFFCURVE",
"459 350 CURVE",
"462 332 LINE"
);
},
{
closed = 1;
nodes = (
"362 515 OFFCURVE",
"384 504 OFFCURVE",
"384 453 CURVE SMOOTH",
"384 412 OFFCURVE",
"362 391 OFFCURVE",
"315 391 CURVE SMOOTH",
"245 391 LINE",
"245 515 LINE",
"315 515 LINE SMOOTH"
);
},
{
closed = 1;
nodes = (
"245 155 LINE",
"245 279 LINE",
"332 279 LINE SMOOTH",
"379 279 OFFCURVE",
"401 258 OFFCURVE",
"401 217 CURVE SMOOTH",
"401 166 OFFCURVE",
"379 155 OFFCURVE",
"332 155 CURVE SMOOTH"
);
}
);
width = 625;
}
);
leftMetricsKey = "=H";
unicode = 0042;
},
{
color = 3;
glyphname = C;
lastChange = "2017-06-09 13:52:42 +0000";
layers = (
{
background = {
paths = (
{
closed = 1;
nodes = (
"535 -17 OFFCURVE",
"644 93 OFFCURVE",
"644 336 CURVE SMOOTH",
"644 579 OFFCURVE",
"535 689 OFFCURVE",
"348 689 CURVE SMOOTH",
"161 689 OFFCURVE",
"52 579 OFFCURVE",
"52 336 CURVE SMOOTH",
"52 93 OFFCURVE",
"161 -17 OFFCURVE",
"348 -17 CURVE SMOOTH"
);
},
{
closed = 1;
nodes = (
"171 1 OFFCURVE",
"72 105 OFFCURVE",
"72 336 CURVE SMOOTH",
"72 567 OFFCURVE",
"171 671 OFFCURVE",
"348 671 CURVE SMOOTH",
"525 671 OFFCURVE",
"624 567 OFFCURVE",
"624 336 CURVE SMOOTH",
"624 105 OFFCURVE",
"525 1 OFFCURVE",
"348 1 CURVE SMOOTH"
);
}
);
};
guideLines = (
{
angle = 69.9048;
position = "{636, 200}";
}
);
layerId = "0AB32919-C634-42BE-AC70-4A96502CEFC8";
paths = (
{
closed = 1;
nodes = (
"481 -17 OFFCURVE",
"556 36 OFFCURVE",
"601 159 CURVE SMOOTH",
"616 200 LINE",
"595 200 LINE",
"583 166 LINE SMOOTH",
"542 51 OFFCURVE",
"472 1 OFFCURVE",
"344 1 CURVE SMOOTH",
"172 1 OFFCURVE",
"70 105 OFFCURVE",
"70 336 CURVE SMOOTH",
"70 567 OFFCURVE",
"172 671 OFFCURVE",
"344 671 CURVE SMOOTH",
"470 671 OFFCURVE",
"539 621 OFFCURVE",
"580 506 CURVE SMOOTH",
"592 472 LINE",
"613 472 LINE",
"598 513 LINE SMOOTH",
"553 636 OFFCURVE",
"479 689 OFFCURVE",
"344 689 CURVE SMOOTH",
"162 689 OFFCURVE",
"50 579 OFFCURVE",
"50 336 CURVE SMOOTH",
"50 93 OFFCURVE",
"162 -17 OFFCURVE",
"344 -17 CURVE SMOOTH"
);
}
);
width = 661;
},
{
background = {
paths = (
{
closed = 1;
nodes = (
"25 109 OFFCURVE",
"147 -17 OFFCURVE",
"363 -17 CURVE SMOOTH",
"556 -17 OFFCURVE",
"664 72 OFFCURVE",
"691 236 CURVE SMOOTH",
"699 284 LINE",
"470 284 LINE",
"466 265 LINE SMOOTH",
"453 201 OFFCURVE",
"421 173 OFFCURVE",
"364 173 CURVE SMOOTH",
"290 173 OFFCURVE",
"255 222 OFFCURVE",
"255 336 CURVE SMOOTH",
"255 450 OFFCURVE",
"290 499 OFFCURVE",
"364 499 CURVE SMOOTH",
"421 499 OFFCURVE",
"453 471 OFFCURVE",
"466 407 CURVE SMOOTH",
"470 388 LINE",
"699 388 LINE",
"691 436 LINE SMOOTH",
"663 600 OFFCURVE",
"556 689 OFFCURVE",
"363 689 CURVE SMOOTH",
"147 689 OFFCURVE",
"25 563 OFFCURVE",
"25 336 CURVE SMOOTH"
);
}
);
};
layerId = "4208D53D-8B52-43BA-A51E-290EEDFDCE51";
paths = (
{
closed = 1;
nodes = (
"541 -17 OFFCURVE",
"655 72 OFFCURVE",
"682 236 CURVE SMOOTH",
"690 284 LINE",
"459 284 LINE",
"455 265 LINE SMOOTH",
"442 201 OFFCURVE",
"412 173 OFFCURVE",
"358 173 CURVE SMOOTH",
"285 173 OFFCURVE",
"255 222 OFFCURVE",
"255 336 CURVE SMOOTH",
"255 450 OFFCURVE",
"285 499 OFFCURVE",
"358 499 CURVE SMOOTH",
"412 499 OFFCURVE",
"442 471 OFFCURVE",
"455 407 CURVE SMOOTH",
"459 388 LINE",
"690 388 LINE",
"682 436 LINE SMOOTH",
"654 600 OFFCURVE",
"543 689 OFFCURVE",
"360 689 CURVE SMOOTH",
"136 689 OFFCURVE",
"25 565 OFFCURVE",
"25 336 CURVE SMOOTH",
"25 107 OFFCURVE",
"131 -17 OFFCURVE",
"355 -17 CURVE SMOOTH"
);
}
);
width = 710;
},
{
associatedMasterId = "0AB32919-C634-42BE-AC70-4A96502CEFC8";
guideLines = (
{
angle = 69.9048;
position = "{620, 200}";
}
);
layerId = "5DEB9EE9-71E9-46EE-9E21-AFE65538A17D";
name = "May 23 17, 13:49";
paths = (
{
closed = 1;
nodes = (
"60 567 OFFCURVE",
"171 671 OFFCURVE",
"357 671 CURVE SMOOTH",
"490 671 OFFCURVE",
"582 605 OFFCURVE",
"618 462 CURVE",
"639 462 LINE",
"602 617 OFFCURVE",
"503 689 OFFCURVE",
"357 689 CURVE SMOOTH",
"158 689 OFFCURVE",
"40 580 OFFCURVE",
"40 336 CURVE SMOOTH",
"40 92 OFFCURVE",
"158 -17 OFFCURVE",
"357 -17 CURVE SMOOTH",
"503 -17 OFFCURVE",
"602 51 OFFCURVE",
"641 200 CURVE",
"620 200 LINE",
"582 64 OFFCURVE",
"490 1 OFFCURVE",
"357 1 CURVE SMOOTH",
"171 1 OFFCURVE",
"60 105 OFFCURVE",
"60 336 CURVE SMOOTH"
);
}
);
width = 680;
},
{
associatedMasterId = "0AB32919-C634-42BE-AC70-4A96502CEFC8";
background = {
paths = (
{
closed = 1;
nodes = (
"60 567 OFFCURVE",
"171 671 OFFCURVE",
"357 671 CURVE SMOOTH",
"490 671 OFFCURVE",
"582 605 OFFCURVE",
"618 462 CURVE",
"639 462 LINE",
"602 617 OFFCURVE",
"503 689 OFFCURVE",
"357 689 CURVE SMOOTH",
"158 689 OFFCURVE",
"40 580 OFFCURVE",
"40 336 CURVE SMOOTH",
"40 92 OFFCURVE",
"158 -17 OFFCURVE",
"357 -17 CURVE SMOOTH",
"489 -17 OFFCURVE",
"578 28 OFFCURVE",
"626 159 CURVE SMOOTH",
"641 200 LINE",
"620 200 LINE",
"607 164 LINE SMOOTH",
"560 35 OFFCURVE",
"474 1 OFFCURVE",
"357 1 CURVE SMOOTH",
"171 1 OFFCURVE",
"60 105 OFFCURVE",
"60 336 CURVE SMOOTH"
);
}
);
};
guideLines = (
{
angle = 69.9048;
position = "{641, 200}";
}
);
layerId = "3D0D2BF4-018E-45BA-937F-1D6F81BEC655";
name = "May 23 17, 14:12";
paths = (
{
closed = 1;
nodes = (
"40 93 OFFCURVE",
"161 -17 OFFCURVE",
"357 -17 CURVE SMOOTH",
"495 -17 OFFCURVE",
"578 36 OFFCURVE",
"623 159 CURVE SMOOTH",
"638 200 LINE",
"617 200 LINE",
"605 166 LINE SMOOTH",
"564 51 OFFCURVE",
"486 1 OFFCURVE",
"357 1 CURVE SMOOTH",
"171 1 OFFCURVE",
"60 105 OFFCURVE",
"60 336 CURVE SMOOTH",
"60 567 OFFCURVE",
"171 671 OFFCURVE",
"357 671 CURVE SMOOTH",
"484 671 OFFCURVE",
"561 621 OFFCURVE",
"602 506 CURVE SMOOTH",
"614 472 LINE",
"635 472 LINE",
"620 513 LINE SMOOTH",
"575 636 OFFCURVE",
"493 689 OFFCURVE",
"357 689 CURVE SMOOTH",
"161 689 OFFCURVE",
"40 579 OFFCURVE",
"40 336 CURVE SMOOTH"
);
}
);
width = 680;
}
);
leftMetricsKey = "=O";
unicode = 0043;
},
{
color = 3;
glyphname = D;
lastChange = "2017-06-09 08:59:49 +0000";
layers = (
{
layerId = "0AB32919-C634-42BE-AC70-4A96502CEFC8";
paths = (
{
closed = 1;
nodes = (
"351 0 LINE SMOOTH",
"525 0 OFFCURVE",
"603 104 OFFCURVE",
"603 335 CURVE SMOOTH",
"603 566 OFFCURVE",
"525 670 OFFCURVE",
"351 670 CURVE SMOOTH",
"88 670 LINE",
"88 0 LINE"
);
},
{
closed = 1;
nodes = (
"107 17 LINE",
"107 653 LINE",
"350 653 LINE SMOOTH",
"513 653 OFFCURVE",
"583 557 OFFCURVE",
"583 335 CURVE SMOOTH",
"583 113 OFFCURVE",
"513 17 OFFCURVE",
"350 17 CURVE SMOOTH"
);
}
);
width = 645;
},
{
background = {
paths = (
{
closed = 1;
nodes = (
"245 0 LINE",
"245 670 LINE",
"45 670 LINE",
"45 0 LINE"
);
},
{
closed = 1;
nodes = (
"227 170 LINE",
"227 0 LINE",
"351 0 LINE SMOOTH",
"568 0 OFFCURVE",
"673 121 OFFCURVE",
"673 335 CURVE SMOOTH",
"673 551 OFFCURVE",
"567 670 OFFCURVE",
"361 670 CURVE SMOOTH",
"227 670 LINE",
"227 500 LINE",
"317 500 LINE SMOOTH",
"414 500 OFFCURVE",
"459 451 OFFCURVE",
"459 335 CURVE SMOOTH",
"459 219 OFFCURVE",
"414 170 OFFCURVE",
"317 170 CURVE SMOOTH"
);
}
);
};
layerId = "4208D53D-8B52-43BA-A51E-290EEDFDCE51";
paths = (
{
closed = 1;
nodes = (
"370 0 LINE SMOOTH",
"576 0 OFFCURVE",
"676 111 OFFCURVE",
"676 335 CURVE SMOOTH",
"676 561 OFFCURVE",
"575 670 OFFCURVE",
"380 670 CURVE SMOOTH",
"45 670 LINE",
"45 0 LINE"
);
},
{
closed = 1;
nodes = (
"260 176 LINE",
"260 494 LINE",
"335 494 LINE SMOOTH",
"409 494 OFFCURVE",
"452 447 OFFCURVE",
"452 335 CURVE SMOOTH",
"452 223 OFFCURVE",
"409 176 OFFCURVE",
"335 176 CURVE SMOOTH"
);
}
);
width = 686;
}
);
leftMetricsKey = "=H";
unicode = 0044;
},
{
color = 3;
glyphname = E;
lastChange = "2017-06-09 08:53:50 +0000";
layers = (
{
layerId = "0AB32919-C634-42BE-AC70-4A96502CEFC8";
paths = (
{
closed = 1;
nodes = (
"107 0 LINE",
"107 670 LINE",
"88 670 LINE",
"88 0 LINE"
);
},
{
closed = 1;
nodes = (
"491 652 LINE",
"491 670 LINE",
"96 670 LINE",
"96 652 LINE"
);
},
{
closed = 1;
nodes = (
"491 0 LINE",
"491 18 LINE",
"96 18 LINE",
"96 0 LINE"
);
},
{
closed = 1;
nodes = (
"464 334 LINE",
"464 352 LINE",
"96 352 LINE",
"96 334 LINE"
);
}
);
width = 545;
},
{
layerId = "4208D53D-8B52-43BA-A51E-290EEDFDCE51";
paths = (
{
closed = 1;
nodes = (
"245 0 LINE",
"245 670 LINE",
"45 670 LINE",
"45 0 LINE"
);
},
{
closed = 1;
nodes = (
"538 493 LINE",
"538 670 LINE",
"45 670 LINE",
"45 493 LINE"
);
},
{
closed = 1;
nodes = (
"538 0 LINE",
"538 177 LINE",
"45 177 LINE",
"45 0 LINE"
);
},
{
closed = 1;
nodes = (
"503 250 LINE",
"503 421 LINE",
"45 421 LINE",
"45 250 LINE"
);
}
);
width = 568;
}
);
leftMetricsKey = "=H";
unicode = 0045;
},
{
color = 3;
glyphname = F;
lastChange = "2017-06-09 08:53:50 +0000";
layers = (
{
layerId = "0AB32919-C634-42BE-AC70-4A96502CEFC8";
paths = (
{
closed = 1;
nodes = (
"107 0 LINE",
"107 670 LINE",
"88 670 LINE",
"88 0 LINE"
);
},
{
closed = 1;
nodes = (
"491 652 LINE",
"491 670 LINE",
"96 670 LINE",
"96 652 LINE"
);
},
{
closed = 1;
nodes = (
"464 334 LINE",
"464 352 LINE",
"96 352 LINE",
"96 334 LINE"
);
}
);
width = 600;
},
{
layerId = "4208D53D-8B52-43BA-A51E-290EEDFDCE51";
paths = (
{
closed = 1;
nodes = (
"245 0 LINE",
"245 670 LINE",
"45 670 LINE",
"45 0 LINE"
);
},
{
closed = 1;
nodes = (
"527 493 LINE",
"527 670 LINE",
"45 670 LINE",
"45 493 LINE"
);
},
{
closed = 1;
nodes = (
"492 226 LINE",
"492 397 LINE",
"45 397 LINE",
"45 226 LINE"
);
}
);
width = 543;
}
);
unicode = 0046;
},
{
color = 3;
glyphname = G;
lastChange = "2017-06-09 13:05:55 +0000";
layers = (
{
background = {
paths = (
{
closed = 1;
nodes = (
"165 1 OFFCURVE",
"60 105 OFFCURVE",
"60 336 CURVE SMOOTH",
"60 567 OFFCURVE",
"165 671 OFFCURVE",
"343 671 CURVE SMOOTH",
"468 671 OFFCURVE",
"545 623 OFFCURVE",
"579 506 CURVE SMOOTH",
"589 472 LINE",
"609 472 LINE",
"596 513 LINE SMOOTH",
"556 638 OFFCURVE",
"477 689 OFFCURVE",
"343 689 CURVE SMOOTH",
"155 689 OFFCURVE",
"40 579 OFFCURVE",
"40 336 CURVE SMOOTH",
"40 93 OFFCURVE",
"155 -17 OFFCURVE",
"346 -17 CURVE SMOOTH",
"469 -17 OFFCURVE",
"549 16 OFFCURVE",
"607 64 CURVE",
"607 316 LINE",
"588 316 LINE",
"588 61 LINE",
"595 78 LINE",
"543 32 OFFCURVE",
"466 1 OFFCURVE",
"346 1 CURVE SMOOTH"
);
},
{
closed = 1;
nodes = (
"607 308 LINE",
"607 326 LINE",
"315 326 LINE",
"315 308 LINE"
);
}
);
};
guideLines = (
{
angle = 106.8214;
position = "{541, 481}";
}
);
layerId = "0AB32919-C634-42BE-AC70-4A96502CEFC8";
paths = (
{
closed = 1;
nodes = (
"588 308 LINE",
"588 61 LINE",
"595 78 LINE",
"543 32 OFFCURVE",
"466 1 OFFCURVE",
"346 1 CURVE SMOOTH",
"165 1 OFFCURVE",
"60 105 OFFCURVE",
"60 336 CURVE SMOOTH",
"60 567 OFFCURVE",
"165 671 OFFCURVE",
"343 671 CURVE SMOOTH",
"468 671 OFFCURVE",
"545 623 OFFCURVE",
"579 506 CURVE SMOOTH",
"589 472 LINE",
"609 472 LINE",
"596 513 LINE SMOOTH",
"556 638 OFFCURVE",
"477 689 OFFCURVE",
"343 689 CURVE SMOOTH",
"155 689 OFFCURVE",
"40 579 OFFCURVE",
"40 336 CURVE SMOOTH",
"40 93 OFFCURVE",
"155 -17 OFFCURVE",
"346 -17 CURVE SMOOTH",
"469 -17 OFFCURVE",
"549 16 OFFCURVE",
"607 64 CURVE",
"607 326 LINE",
"315 326 LINE",
"315 308 LINE"
);
}
);
width = 671;
},
{
background = {
paths = (
{
closed = 1;
nodes = (
"409 503 OFFCURVE",
"434 486 OFFCURVE",
"445 442 CURVE SMOOTH",
"449 427 LINE",
"676 427 LINE",
"668 466 LINE SMOOTH",
"638 614 OFFCURVE",
"546 689 OFFCURVE",
"360 689 CURVE SMOOTH",
"136 689 OFFCURVE",
"25 565 OFFCURVE",
"25 336 CURVE SMOOTH",
"25 107 OFFCURVE",
"131 -17 OFFCURVE",
"362 -17 CURVE SMOOTH",
"485 -17 OFFCURVE",
"593 13 OFFCURVE",
"672 58 CURVE",
"672 284 LINE",
"473 284 LINE",
"473 162 LINE",
"481 185 LINE",
"455 168 OFFCURVE",
"421 159 OFFCURVE",
"377 159 CURVE SMOOTH",
"277 159 OFFCURVE",
"250 210 OFFCURVE",
"250 336 CURVE SMOOTH",
"250 453 OFFCURVE",
"280 503 OFFCURVE",
"363 503 CURVE SMOOTH"
);
},
{
closed = 1;
nodes = (
"349 252 LINE",
"672 252 LINE",
"672 382 LINE",
"349 382 LINE"
);
}
);
};
layerId = "4208D53D-8B52-43BA-A51E-290EEDFDCE51";
paths = (
{
closed = 1;
nodes = (
"473 252 LINE",
"473 157 LINE",
"481 180 LINE",
"455 164 OFFCURVE",
"421 159 OFFCURVE",
"377 159 CURVE SMOOTH",
"277 159 OFFCURVE",
"250 210 OFFCURVE",
"250 336 CURVE SMOOTH",
"250 453 OFFCURVE",
"280 503 OFFCURVE",
"363 503 CURVE SMOOTH",
"409 503 OFFCURVE",
"434 486 OFFCURVE",
"445 442 CURVE SMOOTH",
"449 427 LINE",
"676 427 LINE",
"668 466 LINE SMOOTH",
"638 614 OFFCURVE",
"546 689 OFFCURVE",
"360 689 CURVE SMOOTH",
"136 689 OFFCURVE",
"25 565 OFFCURVE",
"25 336 CURVE SMOOTH",
"25 107 OFFCURVE",
"131 -17 OFFCURVE",
"362 -17 CURVE SMOOTH",
"485 -17 OFFCURVE",
"593 13 OFFCURVE",
"672 58 CURVE",
"672 382 LINE",
"349 382 LINE",
"349 252 LINE"
);
}
);
width = 706;
},
{
associatedMasterId = "4208D53D-8B52-43BA-A51E-290EEDFDCE51";
background = {
paths = (
{
closed = 1;
nodes = (
"452 -17 OFFCURVE",
"508 72 OFFCURVE",
"508 236 CURVE",
"686 284 LINE",
"450 284 LINE",
"450 265 LINE SMOOTH",
"450 203 OFFCURVE",
"422 173 OFFCURVE",
"358 173 CURVE SMOOTH",
"285 173 OFFCURVE",
"255 222 OFFCURVE",
"255 336 CURVE SMOOTH",
"255 450 OFFCURVE",
"285 499 OFFCURVE",
"358 499 CURVE SMOOTH",
"407 499 OFFCURVE",
"434 482 OFFCURVE",
"449 432 CURVE SMOOTH",
"453 419 LINE",
"684 419 LINE",
"676 461 LINE SMOOTH",
"648 609 OFFCURVE",
"537 689 OFFCURVE",
"360 689 CURVE SMOOTH",
"136 689 OFFCURVE",
"25 565 OFFCURVE",
"25 336 CURVE SMOOTH",
"25 116 OFFCURVE",
"119 -17 OFFCURVE",
"307 -17 CURVE SMOOTH"
);
},
{
closed = 1;
nodes = (
"686 284 LINE",
"485 284 LINE",
"476 194 LINE",
"511 0 LINE",
"686 0 LINE"
);
},
{
closed = 1;
nodes = (
"360 255 LINE",
"686 255 LINE",
"686 377 LINE",
"360 377 LINE"
);
}
);
};
layerId = "901F36A8-12F9-4F24-81C0-E803C7127841";
name = "Jun 6 17, 18:43";
paths = (
{
closed = 1;
nodes = (
"452 -17 OFFCURVE",
"508 72 OFFCURVE",
"508 236 CURVE",
"686 284 LINE",
"450 284 LINE",
"450 265 LINE SMOOTH",
"450 203 OFFCURVE",
"422 173 OFFCURVE",
"358 173 CURVE SMOOTH",
"285 173 OFFCURVE",
"255 222 OFFCURVE",
"255 336 CURVE SMOOTH",
"255 450 OFFCURVE",
"285 499 OFFCURVE",
"358 499 CURVE SMOOTH",
"407 499 OFFCURVE",
"434 482 OFFCURVE",
"449 432 CURVE SMOOTH",
"453 419 LINE",
"684 419 LINE",
"676 461 LINE SMOOTH",
"648 609 OFFCURVE",
"537 689 OFFCURVE",
"360 689 CURVE SMOOTH",
"136 689 OFFCURVE",
"25 565 OFFCURVE",
"25 336 CURVE SMOOTH",
"25 116 OFFCURVE",
"119 -17 OFFCURVE",
"307 -17 CURVE SMOOTH"
);
},
{
closed = 1;
nodes = (
"686 284 LINE",
"485 284 LINE",
"476 194 LINE",
"511 0 LINE",
"686 0 LINE"
);
},
{
closed = 1;
nodes = (
"360 255 LINE",
"686 255 LINE",
"686 377 LINE",
"360 377 LINE"
);
}
);
width = 716;
}
);
leftMetricsKey = "=O";
rightMetricsKey = "=U";
unicode = 0047;
},
{
color = 3;
glyphname = H;
lastChange = "2017-06-09 15:03:44 +0000";
layers = (
{
background = {
paths = (
{
closed = 1;
nodes = (
"109 0 LINE",
"128 0 LINE",
"128 670 LINE",
"109 670 LINE"
);
},
{
closed = 1;
nodes = (
"117 350 LINE",
"117 332 LINE",
"538 332 LINE",
"538 350 LINE"
);
},
{
closed = 1;
nodes = (
"535 0 LINE",
"554 0 LINE",
"554 670 LINE",
"535 670 LINE"
);
}
);
};
layerId = "0AB32919-C634-42BE-AC70-4A96502CEFC8";
paths = (
{
closed = 1;
nodes = (
"554 0 LINE",
"554 670 LINE",
"535 670 LINE",
"535 0 LINE"
);
},
{
closed = 1;
nodes = (
"107 0 LINE",
"107 670 LINE",
"88 670 LINE",
"88 0 LINE"
);
},
{
closed = 1;
nodes = (
"538 332 LINE",
"538 350 LINE",
"96 350 LINE",
"96 332 LINE"
);
}
);
width = 642;
},
{
layerId = "4208D53D-8B52-43BA-A51E-290EEDFDCE51";
paths = (
{
closed = 1;
nodes = (
"697 0 LINE",
"697 670 LINE",
"467 670 LINE",
"467 0 LINE"
);
},
{
closed = 1;
nodes = (
"275 0 LINE",
"275 670 LINE",
"45 670 LINE",
"45 0 LINE"
);
},
{
closed = 1;
nodes = (
"493 245 LINE",
"493 429 LINE",
"248 429 LINE",
"248 245 LINE"
);
}
);
width = 742;
}
);
unicode = 0048;
},
{
color = 3;
glyphname = I;
lastChange = "2017-06-09 08:53:50 +0000";
layers = (
{
layerId = "0AB32919-C634-42BE-AC70-4A96502CEFC8";
paths = (
{
closed = 1;
nodes = (
"107 0 LINE",
"107 670 LINE",
"88 670 LINE",
"88 0 LINE"
);
}
);
width = 195;
},
{
layerId = "4208D53D-8B52-43BA-A51E-290EEDFDCE51";
paths = (
{
closed = 1;
nodes = (
"275 0 LINE",
"275 670 LINE",
"45 670 LINE",
"45 0 LINE"
);
}
);
width = 320;
}
);
leftMetricsKey = "=H";
rightMetricsKey = "=H";
unicode = 0049;
},
{
color = 3;
glyphname = J;
lastChange = "2017-06-09 13:06:00 +0000";
layers = (
{
background = {
paths = (
{
closed = 1;
nodes = (
"242 1 OFFCURVE",
"168 37 OFFCURVE",
"127 152 CURVE SMOOTH",
"115 186 LINE",
"94 186 LINE",
"109 145 LINE SMOOTH",
"154 22 OFFCURVE",
"233 -17 OFFCURVE",
"338 -17 CURVE SMOOTH",
"466 -17 OFFCURVE",
"558 43 OFFCURVE",
"558 207 CURVE SMOOTH",
"558 670 LINE",
"538 670 LINE",
"538 207 LINE SMOOTH",
"538 57 OFFCURVE",
"458 1 OFFCURVE",
"336 1 CURVE SMOOTH"
);
}
);
};
layerId = "0AB32919-C634-42BE-AC70-4A96502CEFC8";
paths = (
{
closed = 1;
nodes = (
"228 1 OFFCURVE",
"159 43 OFFCURVE",
"125 160 CURVE SMOOTH",
"115 194 LINE",
"95 194 LINE",
"105 160 LINE SMOOTH",
"144 27 OFFCURVE",
"222 -17 OFFCURVE",
"347 -17 CURVE SMOOTH",
"467 -17 OFFCURVE",
"558 43 OFFCURVE",
"558 207 CURVE SMOOTH",
"558 670 LINE",
"538 670 LINE",
"538 207 LINE SMOOTH",
"538 57 OFFCURVE",
"458 1 OFFCURVE",
"347 1 CURVE SMOOTH"
);
}
);
width = 620;
},
{
background = {
paths = (
{
closed = 1;
nodes = (
"524 -18 OFFCURVE",
"615 75 OFFCURVE",
"615 202 CURVE SMOOTH",
"615 332 OFFCURVE",
"559 391 OFFCURVE",
"427 410 CURVE SMOOTH",
"336 423 LINE SMOOTH",
"285 430 OFFCURVE",
"268 443 OFFCURVE",
"268 466 CURVE SMOOTH",
"268 501 OFFCURVE",
"290 515 OFFCURVE",
"329 515 CURVE SMOOTH",
"370 515 OFFCURVE",
"385 499 OFFCURVE",
"391 477 CURVE SMOOTH",
"396 460 LINE",
"606 460 LINE",
"596 505 LINE SMOOTH",
"574 604 OFFCURVE",
"511 682 OFFCURVE",
"324 682 CURVE SMOOTH",
"143 682 OFFCURVE",
"53 591 OFFCURVE",
"53 459 CURVE SMOOTH",
"53 328 OFFCURVE",
"118 278 OFFCURVE",
"249 254 CURVE SMOOTH",
"341 237 LINE SMOOTH",
"382 229 OFFCURVE",
"400 222 OFFCURVE",
"400 192 CURVE SMOOTH",
"400 160 OFFCURVE",
"377 149 OFFCURVE",
"336 149 CURVE SMOOTH",
"291 149 OFFCURVE",
"272 160 OFFCURVE",
"264 187 CURVE SMOOTH",
"258 206 LINE",
"44 206 LINE",
"53 164 LINE SMOOTH",
"80 38 OFFCURVE",
"168 -18 OFFCURVE",
"338 -18 CURVE SMOOTH"
);
}
);
};
layerId = "4208D53D-8B52-43BA-A51E-290EEDFDCE51";
paths = (
{
closed = 1;
nodes = (
"282 165 OFFCURVE",
"255 182 OFFCURVE",
"245 226 CURVE SMOOTH",
"240 247 LINE",
"24 247 LINE",
"27 226 LINE SMOOTH",
"53 44 OFFCURVE",
"165 -17 OFFCURVE",
"333 -17 CURVE SMOOTH",
"516 -17 OFFCURVE",
"630 78 OFFCURVE",
"630 264 CURVE SMOOTH",
"630 670 LINE",
"400 670 LINE",
"400 242 LINE SMOOTH",
"400 194 OFFCURVE",
"381 165 OFFCURVE",
"328 165 CURVE SMOOTH"
);
}
);
width = 660;
},
{
associatedMasterId = "4208D53D-8B52-43BA-A51E-290EEDFDCE51";
background = {
paths = (
{
closed = 1;
nodes = (
"524 -18 OFFCURVE",
"615 75 OFFCURVE",
"615 202 CURVE SMOOTH",
"615 332 OFFCURVE",
"559 391 OFFCURVE",
"427 410 CURVE SMOOTH",
"336 423 LINE SMOOTH",
"285 430 OFFCURVE",
"268 443 OFFCURVE",
"268 466 CURVE SMOOTH",
"268 501 OFFCURVE",
"290 515 OFFCURVE",
"329 515 CURVE SMOOTH",
"370 515 OFFCURVE",
"385 499 OFFCURVE",
"391 477 CURVE SMOOTH",
"396 460 LINE",
"606 460 LINE",
"596 505 LINE SMOOTH",
"574 604 OFFCURVE",
"511 682 OFFCURVE",
"324 682 CURVE SMOOTH",
"143 682 OFFCURVE",
"53 591 OFFCURVE",
"53 459 CURVE SMOOTH",
"53 328 OFFCURVE",
"118 278 OFFCURVE",
"249 254 CURVE SMOOTH",
"341 237 LINE SMOOTH",
"382 229 OFFCURVE",
"400 222 OFFCURVE",
"400 192 CURVE SMOOTH",
"400 160 OFFCURVE",
"377 149 OFFCURVE",
"336 149 CURVE SMOOTH",
"291 149 OFFCURVE",
"272 160 OFFCURVE",
"264 187 CURVE SMOOTH",
"258 206 LINE",
"44 206 LINE",
"53 164 LINE SMOOTH",
"80 38 OFFCURVE",
"168 -18 OFFCURVE",
"338 -18 CURVE SMOOTH"
);
}
);
};
layerId = "771AA9A0-9D8C-46DF-840A-DA1E76FFDEBD";
name = "Jun 6 17, 21:39";
paths = (
{
closed = 1;
nodes = (
"266 165 OFFCURVE",
"241 185 OFFCURVE",
"223 261 CURVE SMOOTH",
"218 282 LINE",
"2 282 LINE",
"5 261 LINE SMOOTH",
"35 49 OFFCURVE",
"153 -17 OFFCURVE",
"322 -17 CURVE SMOOTH",
"517 -17 OFFCURVE",
"630 78 OFFCURVE",
"630 264 CURVE SMOOTH",
"630 670 LINE",
"400 670 LINE",
"400 249 LINE SMOOTH",
"400 189 OFFCURVE",
"372 165 OFFCURVE",
"321 165 CURVE SMOOTH"
);
}
);
width = 660;
}
);
rightMetricsKey = "=U";
unicode = 004A;
},
{
color = 3;
glyphname = K;
lastChange = "2017-06-09 10:25:10 +0000";
layers = (
{
layerId = "0AB32919-C634-42BE-AC70-4A96502CEFC8";
paths = (
{
closed = 1;
nodes = (
"498 0 LINE",
"131 335 LINE",
"498 670 LINE",
"470 670 LINE",
"104 335 LINE",
"470 0 LINE"
);
},
{
closed = 1;
nodes = (
"107 0 LINE",
"107 670 LINE",
"88 670 LINE",
"88 0 LINE"
);
}
);
width = 511;
},
{
guideLines = (
{
angle = 29.8371;
position = "{533, 119}";
showMeasurement = 1;
}
);
layerId = "4208D53D-8B52-43BA-A51E-290EEDFDCE51";
paths = (
{
closed = 1;
nodes = (
"685 0 LINE",
"484 335 LINE",
"685 670 LINE",
"436 670 LINE",
"246 335 LINE",
"436 0 LINE"
);
},
{
closed = 1;
nodes = (
"258 0 LINE",
"258 670 LINE",
"45 670 LINE",
"45 0 LINE"
);
}
);
width = 683;
}
);
leftMetricsKey = "=H";
unicode = 004B;
},
{
color = 3;
glyphname = L;
lastChange = "2017-06-09 15:05:03 +0000";
layers = (
{
layerId = "0AB32919-C634-42BE-AC70-4A96502CEFC8";
paths = (
{
closed = 1;
nodes = (
"107 670 LINE",
"88 670 LINE",
"88 0 LINE",
"481 0 LINE",
"481 18 LINE",
"107 18 LINE"
);
}
);
width = 489;
},
{
layerId = "4208D53D-8B52-43BA-A51E-290EEDFDCE51";
paths = (
{
closed = 1;
nodes = (
"275 670 LINE",
"45 670 LINE",
"45 0 LINE",
"517 0 LINE",
"517 192 LINE",
"275 192 LINE"
);
}
);
width = 537;
}
);
leftMetricsKey = "=H";
unicode = 004C;
},
{
color = 3;
glyphname = M;
lastChange = "2017-06-09 09:03:11 +0000";
layers = (
{
background = {
paths = (
{
closed = 1;
nodes = (
"107 0 LINE",
"107 670 LINE",
"88 670 LINE",
"88 0 LINE"
);
},
{
closed = 1;
nodes = (
"419 0 LINE",
"116 670 LINE",
"96 670 LINE",
"399 0 LINE"
);
},
{
closed = 1;
nodes = (
"732 670 LINE",
"713 670 LINE",
"713 0 LINE",
"732 0 LINE"
);
},
{
closed = 1;
nodes = (
"724 670 LINE",
"704 670 LINE",
"401 0 LINE",
"421 0 LINE"
);
}
);
};
guideLines = (
{
angle = 24.313;
position = "{138, 451}";
showMeasurement = 1;
}
);
layerId = "0AB32919-C634-42BE-AC70-4A96502CEFC8";
paths = (
{
closed = 1;
nodes = (
"704 670 LINE",
"405 9 LINE",
"415 9 LINE",
"116 670 LINE",
"88 670 LINE",
"88 0 LINE",
"107 0 LINE",
"107 661 LINE",
"100 661 LINE",
"399 0 LINE",
"421 0 LINE",
"720 661 LINE",
"713 661 LINE",
"713 0 LINE",
"732 0 LINE",
"732 670 LINE"
);
}
);
width = 820;
},
{
background = {
paths = (
{
closed = 1;
nodes = (
"855 0 LINE",
"855 670 LINE",
"667 670 LINE",
"667 0 LINE"
);
},
{
closed = 1;
nodes = (
"243 0 LINE",
"243 670 LINE",
"45 670 LINE",
"45 0 LINE"
);
},
{
closed = 1;
nodes = (
"505 0 LINE",
"360 670 LINE",
"200 670 LINE",
"355 0 LINE"
);
},
{
closed = 1;
nodes = (
"710 670 LINE",
"549 670 LINE",
"405 0 LINE",
"555 0 LINE"
);
}
);
};
layerId = "4208D53D-8B52-43BA-A51E-290EEDFDCE51";
paths = (
{
closed = 1;
nodes = (
"549 670 LINE",
"446 188 LINE",
"465 188 LINE",
"360 670 LINE",
"45 670 LINE",
"45 0 LINE",
"243 0 LINE",
"243 529 LINE",
"233 528 LINE",
"355 0 LINE",
"555 0 LINE",
"677 528 LINE",
"667 529 LINE",
"667 0 LINE",
"855 0 LINE",
"855 670 LINE"
);
}
);
width = 900;
},
{
associatedMasterId = "4208D53D-8B52-43BA-A51E-290EEDFDCE51";
background = {
paths = (
{
closed = 1;
nodes = (
"855 0 LINE",
"855 670 LINE",
"667 670 LINE",
"667 0 LINE"
);
},
{
closed = 1;
nodes = (
"243 0 LINE",
"243 670 LINE",
"45 670 LINE",
"45 0 LINE"
);
},
{
closed = 1;
nodes = (
"505 0 LINE",
"360 670 LINE",
"200 670 LINE",
"355 0 LINE"
);
},
{
closed = 1;
nodes = (
"710 670 LINE",
"549 670 LINE",
"405 0 LINE",
"555 0 LINE"
);
}
);
};
layerId = "785CF618-3E67-42F1-8440-6813E4D9B30A";
name = "Bold Apr 21 17, 17:28";
paths = (
{
closed = 1;
nodes = (
"855 0 LINE",
"855 670 LINE",
"667 670 LINE",
"667 0 LINE"
);
},
{
closed = 1;
nodes = (
"243 0 LINE",
"243 670 LINE",
"45 670 LINE",
"45 0 LINE"
);
},
{
closed = 1;
nodes = (
"505 0 LINE",
"360 670 LINE",
"200 670 LINE",
"355 0 LINE"
);
},
{
closed = 1;
nodes = (
"710 670 LINE",
"549 670 LINE",
"405 0 LINE",
"555 0 LINE"
);
}
);
width = 900;
},
{
associatedMasterId = "0AB32919-C634-42BE-AC70-4A96502CEFC8";
layerId = "04D71F9F-EB93-4435-B5C5-002A08FE9E15";
width = 770;
}
);
leftMetricsKey = "=H";
rightMetricsKey = "=H";
unicode = 004D;
},
{
color = 3;
glyphname = N;
lastChange = "2017-06-09 08:53:50 +0000";
layers = (
{
background = {
paths = (
{
closed = 1;
nodes = (
"122 670 LINE",
"97 670 LINE",
"97 0 LINE",
"116 0 LINE",
"116 658 LINE",
"107 658 LINE",
"549 0 LINE",
"574 0 LINE",
"574 670 LINE",
"555 670 LINE",
"555 12 LINE",
"564 12 LINE"
);
}
);
};
guideLines = (
{
angle = 34.4182;
position = "{384, 321}";
showMeasurement = 1;
}
);
layerId = "0AB32919-C634-42BE-AC70-4A96502CEFC8";
paths = (
{
closed = 1;
nodes = (
"113 670 LINE",
"88 670 LINE",
"88 0 LINE",
"107 0 LINE",
"107 658 LINE",
"99 658 LINE",
"547 0 LINE",
"572 0 LINE",
"572 670 LINE",
"553 670 LINE",
"553 12 LINE",
"561 12 LINE"
);
}
);
width = 660;
},
{
background = {
paths = (
{
closed = 1;
nodes = (
"855 0 LINE",
"855 670 LINE",
"667 670 LINE",
"667 0 LINE"
);
},
{
closed = 1;
nodes = (
"243 0 LINE",
"243 670 LINE",
"45 670 LINE",
"45 0 LINE"
);
},
{
closed = 1;
nodes = (
"505 0 LINE",
"360 670 LINE",
"200 670 LINE",
"355 0 LINE"
);
},
{
closed = 1;
nodes = (
"710 670 LINE",
"549 670 LINE",
"405 0 LINE",
"555 0 LINE"
);
}
);
};
layerId = "4208D53D-8B52-43BA-A51E-290EEDFDCE51";
paths = (
{
closed = 1;
nodes = (
"250 670 LINE",
"45 670 LINE",
"45 0 LINE",
"243 0 LINE",
"243 540 LINE",
"144 540 LINE",
"472 0 LINE",
"679 0 LINE",
"679 670 LINE",
"481 670 LINE",
"481 130 LINE",
"578 130 LINE"
);
}
);
width = 724;
}
);
leftMetricsKey = "=H";
rightMetricsKey = "=H";
unicode = 004E;
},
{
color = 3;
glyphname = O;
lastChange = "2017-06-09 15:03:50 +0000";
layers = (
{
anchors = (
{
name = bottom;
position = "{344, 0}";
},
{
name = ogonek.round;
position = "{474, 0}";
},
{
name = top;
position = "{344, 670}";
}
);
background = {
paths = (
{
closed = 1;
nodes = (
"537 -17 OFFCURVE",
"649 93 OFFCURVE",
"649 336 CURVE SMOOTH",
"649 579 OFFCURVE",
"537 689 OFFCURVE",
"344 689 CURVE SMOOTH",
"151 689 OFFCURVE",
"39 579 OFFCURVE",
"39 336 CURVE SMOOTH",
"39 93 OFFCURVE",
"151 -17 OFFCURVE",
"344 -17 CURVE SMOOTH"
);
},
{
closed = 1;
nodes = (
"161 1 OFFCURVE",
"59 105 OFFCURVE",
"59 336 CURVE SMOOTH",
"59 567 OFFCURVE",
"161 671 OFFCURVE",
"344 671 CURVE SMOOTH",
"527 671 OFFCURVE",
"629 567 OFFCURVE",
"629 336 CURVE SMOOTH",
"629 105 OFFCURVE",
"527 1 OFFCURVE",
"344 1 CURVE SMOOTH"
);
}
);
};
layerId = "0AB32919-C634-42BE-AC70-4A96502CEFC8";
paths = (
{
closed = 1;
nodes = (
"531 -17 OFFCURVE",
"640 93 OFFCURVE",
"640 336 CURVE SMOOTH",
"640 579 OFFCURVE",
"531 689 OFFCURVE",
"344 689 CURVE SMOOTH",
"157 689 OFFCURVE",
"48 579 OFFCURVE",
"48 336 CURVE SMOOTH",
"48 93 OFFCURVE",
"157 -17 OFFCURVE",
"344 -17 CURVE SMOOTH"
);
},
{
closed = 1;
nodes = (
"167 1 OFFCURVE",
"68 105 OFFCURVE",
"68 336 CURVE SMOOTH",
"68 567 OFFCURVE",
"167 671 OFFCURVE",
"344 671 CURVE SMOOTH",
"521 671 OFFCURVE",
"620 567 OFFCURVE",
"620 336 CURVE SMOOTH",
"620 105 OFFCURVE",
"521 1 OFFCURVE",
"344 1 CURVE SMOOTH"
);
}
);
width = 688;
},
{
anchors = (
{
name = bottom;
position = "{364, 0}";
},
{
name = ogonek.round;
position = "{475, 0}";
},
{
name = top;
position = "{364, 670}";
}
);
layerId = "4208D53D-8B52-43BA-A51E-290EEDFDCE51";
paths = (
{
closed = 1;
nodes = (
"582 -17 OFFCURVE",
"703 110 OFFCURVE",
"703 336 CURVE SMOOTH",
"703 563 OFFCURVE",
"582 689 OFFCURVE",
"364 689 CURVE SMOOTH",
"146 689 OFFCURVE",
"25 563 OFFCURVE",
"25 336 CURVE SMOOTH",
"25 110 OFFCURVE",
"146 -17 OFFCURVE",
"364 -17 CURVE SMOOTH"
);
},
{
closed = 1;
nodes = (
"290 173 OFFCURVE",
"255 222 OFFCURVE",
"255 336 CURVE SMOOTH",
"255 450 OFFCURVE",
"290 499 OFFCURVE",
"364 499 CURVE SMOOTH",
"438 499 OFFCURVE",
"473 450 OFFCURVE",
"473 336 CURVE SMOOTH",
"473 222 OFFCURVE",
"438 173 OFFCURVE",
"364 173 CURVE SMOOTH"
);
}
);
width = 728;
},
{
associatedMasterId = "0AB32919-C634-42BE-AC70-4A96502CEFC8";
background = {
paths = (
{
closed = 1;
nodes = (
"518 -17 OFFCURVE",
"606 98 OFFCURVE",
"606 336 CURVE SMOOTH",
"606 574 OFFCURVE",
"518 689 OFFCURVE",
"323 689 CURVE SMOOTH",
"128 689 OFFCURVE",
"40 575 OFFCURVE",
"40 336 CURVE SMOOTH",
"40 98 OFFCURVE",
"128 -17 OFFCURVE",
"323 -17 CURVE SMOOTH"
);
},
{
closed = 1;
nodes = (
"144 1 OFFCURVE",
"60 102 OFFCURVE",
"60 336 CURVE SMOOTH",
"60 569 OFFCURVE",
"144 671 OFFCURVE",
"323 671 CURVE SMOOTH",
"502 671 OFFCURVE",
"586 570 OFFCURVE",
"586 336 CURVE SMOOTH",
"586 102 OFFCURVE",
"502 1 OFFCURVE",
"323 1 CURVE SMOOTH"
);
}
);
};
layerId = "6CBF7381-36B0-4D33-A52A-6CD2E9AF44B0";
name = "May 23 17, 14:07";
paths = (
{
closed = 1;
nodes = (
"516 -17 OFFCURVE",
"606 93 OFFCURVE",
"606 336 CURVE SMOOTH",
"606 579 OFFCURVE",
"516 689 OFFCURVE",
"323 689 CURVE SMOOTH",
"130 689 OFFCURVE",
"40 579 OFFCURVE",
"40 336 CURVE SMOOTH",
"40 93 OFFCURVE",
"130 -17 OFFCURVE",
"323 -17 CURVE SMOOTH"
);
},
{
closed = 1;
nodes = (
"142 1 OFFCURVE",
"60 105 OFFCURVE",
"60 336 CURVE SMOOTH",
"60 567 OFFCURVE",
"142 671 OFFCURVE",
"323 671 CURVE SMOOTH",
"504 671 OFFCURVE",
"586 567 OFFCURVE",
"586 336 CURVE SMOOTH",
"586 105 OFFCURVE",
"504 1 OFFCURVE",
"323 1 CURVE SMOOTH"
);
}
);
width = 646;
}
);
unicode = 004F;
},
{
color = 3;
glyphname = P;
lastChange = "2017-06-09 09:04:06 +0000";
layers = (
{
layerId = "0AB32919-C634-42BE-AC70-4A96502CEFC8";
paths = (
{
closed = 1;
nodes = (
"107 0 LINE",
"107 670 LINE",
"88 670 LINE",
"88 0 LINE"
);
},
{
closed = 1;
nodes = (
"102 307 LINE",
"102 289 LINE",
"307 289 LINE SMOOTH",
"448 289 OFFCURVE",
"514 346 OFFCURVE",
"514 475 CURVE SMOOTH",
"514 610 OFFCURVE",
"448 670 OFFCURVE",
"307 670 CURVE SMOOTH",
"102 670 LINE",
"102 652 LINE",
"306 652 LINE SMOOTH",
"436 652 OFFCURVE",
"494 598 OFFCURVE",
"494 475 CURVE SMOOTH",
"494 358 OFFCURVE",
"436 307 OFFCURVE",
"306 307 CURVE SMOOTH"
);
}
);
width = 556;
},
{
background = {
paths = (
{
closed = 1;
nodes = (
"538 493 LINE",
"538 670 LINE",
"45 670 LINE",
"45 493 LINE"
);
}
);
};
layerId = "4208D53D-8B52-43BA-A51E-290EEDFDCE51";
paths = (
{
closed = 1;
nodes = (
"245 0 LINE",
"245 670 LINE",
"45 670 LINE",
"45 0 LINE"
);
},
{
closed = 1;
nodes = (
"227 344 LINE",
"227 174 LINE",
"351 174 LINE SMOOTH",
"519 174 OFFCURVE",
"600 263 OFFCURVE",
"600 422 CURVE SMOOTH",
"600 582 OFFCURVE",
"519 670 OFFCURVE",
"361 670 CURVE SMOOTH",
"227 670 LINE",
"227 500 LINE",
"317 500 LINE SMOOTH",
"364 500 OFFCURVE",
"386 477 OFFCURVE",
"386 422 CURVE SMOOTH",
"386 367 OFFCURVE",
"364 344 OFFCURVE",
"317 344 CURVE SMOOTH"
);
}
);
width = 612;
}
);
leftMetricsKey = "=H";
unicode = 0050;
},
{
color = 3;
glyphname = Q;
lastChange = "2017-07-13 12:01:56 +0000";
layers = (
{
background = {
paths = (
{
closed = 1;
nodes = (
"606 -55 LINE",
"627 -55 LINE",
"394 263 LINE",
"373 263 LINE"
);
}
);
};
components = (
{
name = O;
}
);
layerId = "0AB32919-C634-42BE-AC70-4A96502CEFC8";
paths = (
{
closed = 1;
nodes = (
"530 49 LINE",
"533 45 LINE",
"606 -55 LINE",
"627 -55 LINE",
"545 57 LINE",
"542 61 LINE",
"394 263 LINE",
"373 263 LINE"
);
}
);
width = 690;
},
{
components = (
{
name = O;
}
);
layerId = "4208D53D-8B52-43BA-A51E-290EEDFDCE51";
paths = (
{
closed = 1;
nodes = (
"417 135 LINE",
"453 100 LINE",
"529 -30 LINE",
"726 -30 LINE",
"633 133 LINE",
"595 172 LINE",
"539 283 LINE",
"342 283 LINE"
);
}
);
width = 728;
},
{
associatedMasterId = "4208D53D-8B52-43BA-A51E-290EEDFDCE51";
components = (
{
name = O;
}
);
layerId = "AD0EA1F6-69FF-49E5-8020-F56E7AE9B0CE";
name = "Jun 8 17, 17:27";
paths = (
{
closed = 1;
nodes = (
"555 -46 LINE",
"766 -46 LINE",
"542 281 LINE",
"331 281 LINE"
);
}
);
width = 728;
}
);
unicode = 0051;
},
{
color = 3;
glyphname = R;
lastChange = "2017-06-09 09:10:22 +0000";
layers = (
{
background = {
paths = (
{
closed = 1;
nodes = (
"102 314 LINE",
"246 314 LINE SMOOTH",
"300 314 OFFCURVE",
"327 297 OFFCURVE",
"363 242 CURVE SMOOTH",
"524 0 LINE",
"548 0 LINE",
"381 248 LINE SMOOTH",
"344 303 OFFCURVE",
"328 313 OFFCURVE",
"288 318 CURVE",
"293 313 LINE",
"439 313 OFFCURVE",
"511 363 OFFCURVE",
"511 494 CURVE SMOOTH",
"511 619 OFFCURVE",
"445 670 OFFCURVE",
"304 670 CURVE SMOOTH",
"88 670 LINE",
"88 0 LINE",
"107 0 LINE",
"107 653 LINE",
"303 653 LINE SMOOTH",
"433 653 OFFCURVE",
"491 608 OFFCURVE",
"491 494 CURVE SMOOTH",
"491 380 OFFCURVE",
"433 331 OFFCURVE",
"303 331 CURVE SMOOTH",
"102 331 LINE"
);
}
);
};
layerId = "0AB32919-C634-42BE-AC70-4A96502CEFC8";
paths = (
{
closed = 1;
nodes = (
"107 0 LINE",
"107 314 LINE",
"246 314 LINE SMOOTH",
"300 314 OFFCURVE",
"327 297 OFFCURVE",
"363 242 CURVE SMOOTH",
"524 0 LINE",
"548 0 LINE",
"381 248 LINE SMOOTH",
"344 303 OFFCURVE",
"328 313 OFFCURVE",
"288 318 CURVE",
"293 313 LINE",
"439 313 OFFCURVE",
"511 363 OFFCURVE",
"511 494 CURVE SMOOTH",
"511 619 OFFCURVE",
"445 670 OFFCURVE",
"304 670 CURVE SMOOTH",
"88 670 LINE",
"88 0 LINE"
);
},
{
closed = 1;
nodes = (
"107 331 LINE",
"107 653 LINE",
"303 653 LINE SMOOTH",
"433 653 OFFCURVE",
"491 608 OFFCURVE",
"491 494 CURVE SMOOTH",
"491 380 OFFCURVE",
"433 331 OFFCURVE",
"303 331 CURVE SMOOTH"
);
}
);
width = 561;
},
{
background = {
paths = (
{
closed = 1;
nodes = (
"258 506 LINE",
"330 506 LINE SMOOTH",
"377 506 OFFCURVE",
"399 485 OFFCURVE",
"399 438 CURVE SMOOTH",
"399 391 OFFCURVE",
"377 369 OFFCURVE",
"330 369 CURVE SMOOTH",
"213 369 LINE",
"213 230 LINE",
"264 230 LINE SMOOTH",
"281 230 OFFCURVE",
"289 225 OFFCURVE",
"298 209 CURVE SMOOTH",
"410 0 LINE",
"655 0 LINE",
"527 230 LINE SMOOTH",
"506 268 OFFCURVE",
"485 286 OFFCURVE",
"451 286 CURVE",
"449 274 LINE",
"558 292 OFFCURVE",
"613 361 OFFCURVE",
"613 463 CURVE SMOOTH",
"613 586 OFFCURVE",
"545 670 OFFCURVE",
"378 670 CURVE SMOOTH",
"45 670 LINE",
"45 0 LINE",
"258 0 LINE"
);
}
);
};
guideLines = (
{
angle = 28.6175;
position = "{412, 149}";
showMeasurement = 1;
},
{
angle = 119.0969;
position = "{527, 230}";
}
);
layerId = "4208D53D-8B52-43BA-A51E-290EEDFDCE51";
paths = (
{
closed = 1;
nodes = (
"258 0 LINE",
"258 230 LINE",
"264 230 LINE SMOOTH",
"281 230 OFFCURVE",
"289 225 OFFCURVE",
"298 209 CURVE SMOOTH",
"410 0 LINE",
"655 0 LINE",
"527 230 LINE SMOOTH",
"506 268 OFFCURVE",
"485 286 OFFCURVE",
"451 286 CURVE",
"449 274 LINE",
"558 292 OFFCURVE",
"613 361 OFFCURVE",
"613 463 CURVE SMOOTH",
"613 586 OFFCURVE",
"545 670 OFFCURVE",
"378 670 CURVE SMOOTH",
"45 670 LINE",
"45 0 LINE"
);
},
{
closed = 1;
nodes = (
"258 369 LINE",
"258 506 LINE",
"330 506 LINE SMOOTH",
"377 506 OFFCURVE",
"399 485 OFFCURVE",
"399 438 CURVE SMOOTH",
"399 391 OFFCURVE",
"377 369 OFFCURVE",
"330 369 CURVE SMOOTH"
);
}
);
width = 653;
},
{
associatedMasterId = "4208D53D-8B52-43BA-A51E-290EEDFDCE51";
background = {
paths = (
{
closed = 1;
nodes = (
"258 0 LINE",
"258 670 LINE",
"45 670 LINE",
"45 0 LINE"
);
},
{
closed = 1;
nodes = (
"240 369 LINE",
"240 235 LINE",
"364 235 LINE SMOOTH",
"532 235 OFFCURVE",
"613 320 OFFCURVE",
"613 446 CURVE SMOOTH",
"613 586 OFFCURVE",
"532 670 OFFCURVE",
"374 670 CURVE SMOOTH",
"240 670 LINE",
"240 500 LINE",
"330 500 LINE SMOOTH",
"377 500 OFFCURVE",
"399 480 OFFCURVE",
"399 435 CURVE SMOOTH",
"399 388 OFFCURVE",
"377 369 OFFCURVE",
"330 369 CURVE SMOOTH"
);
},
{
closed = 1;
nodes = (
"632 0 LINE",
"479 258 LINE",
"265 258 LINE",
"413 0 LINE"
);
}
);
};
layerId = "6412D3FF-2D54-4B82-9EA0-D0C8D1EBABA0";
name = "Jun 6 17, 19:09";
paths = (
{
closed = 1;
nodes = (
"258 0 LINE",
"258 670 LINE",
"45 670 LINE",
"45 0 LINE"
);
},
{
closed = 1;
nodes = (
"240 369 LINE",
"240 235 LINE",
"364 235 LINE SMOOTH",
"532 235 OFFCURVE",
"613 320 OFFCURVE",
"613 446 CURVE SMOOTH",
"613 586 OFFCURVE",
"532 670 OFFCURVE",
"374 670 CURVE SMOOTH",
"240 670 LINE",
"240 500 LINE",
"330 500 LINE SMOOTH",
"377 500 OFFCURVE",
"399 480 OFFCURVE",
"399 435 CURVE SMOOTH",
"399 388 OFFCURVE",
"377 369 OFFCURVE",
"330 369 CURVE SMOOTH"
);
},
{
closed = 1;
nodes = (
"632 0 LINE",
"479 258 LINE",
"265 258 LINE",
"413 0 LINE"
);
}
);
width = 634;
}
);
leftMetricsKey = "=H";
unicode = 0052;
},
{
color = 3;
glyphname = S;
lastChange = "2017-06-09 08:53:50 +0000";
layers = (
{
background = {
paths = (
{
closed = 1;
nodes = (
"439 -17 OFFCURVE",
"516 50 OFFCURVE",
"516 162 CURVE SMOOTH",
"516 259 OFFCURVE",
"481 310 OFFCURVE",
"327 343 CURVE SMOOTH",
"233 363 LINE SMOOTH",
"115 388 OFFCURVE",
"68 420 OFFCURVE",
"68 518 CURVE SMOOTH",
"68 623 OFFCURVE",
"146 669 OFFCURVE",
"269 669 CURVE SMOOTH",
"383 669 OFFCURVE",
"446 631 OFFCURVE",
"478 528 CURVE SMOOTH",
"488 496 LINE",
"507 496 LINE",
"497 529 LINE SMOOTH",
"462 644 OFFCURVE",
"396 687 OFFCURVE",
"268 687 CURVE SMOOTH",
"140 687 OFFCURVE",
"48 636 OFFCURVE",
"48 518 CURVE SMOOTH",
"48 409 OFFCURVE",
"106 372 OFFCURVE",
"227 346 CURVE SMOOTH",
"321 326 LINE SMOOTH",
"471 294 OFFCURVE",
"496 251 OFFCURVE",
"496 162 CURVE SMOOTH",
"496 60 OFFCURVE",
"428 1 OFFCURVE",
"286 1 CURVE SMOOTH",
"158 1 OFFCURVE",
"94 57 OFFCURVE",
"67 146 CURVE SMOOTH",
"54 189 LINE",
"34 189 LINE",
"47 144 LINE SMOOTH",
"77 41 OFFCURVE",
"152 -17 OFFCURVE",
"286 -17 CURVE SMOOTH"
);
}
);
};
layerId = "0AB32919-C634-42BE-AC70-4A96502CEFC8";
paths = (
{
closed = 1;
nodes = (
"439 -17 OFFCURVE",
"516 50 OFFCURVE",
"516 162 CURVE SMOOTH",
"516 259 OFFCURVE",
"481 310 OFFCURVE",
"327 343 CURVE SMOOTH",
"233 363 LINE SMOOTH",
"115 388 OFFCURVE",
"68 420 OFFCURVE",
"68 518 CURVE SMOOTH",
"68 624 OFFCURVE",
"146 671 OFFCURVE",
"269 671 CURVE SMOOTH",
"383 671 OFFCURVE",
"446 633 OFFCURVE",
"478 530 CURVE SMOOTH",
"488 498 LINE",
"507 498 LINE",
"497 531 LINE SMOOTH",
"462 646 OFFCURVE",
"396 689 OFFCURVE",
"268 689 CURVE SMOOTH",
"140 689 OFFCURVE",
"48 637 OFFCURVE",
"48 518 CURVE SMOOTH",
"48 409 OFFCURVE",
"106 372 OFFCURVE",
"227 346 CURVE SMOOTH",
"321 326 LINE SMOOTH",
"471 294 OFFCURVE",
"496 251 OFFCURVE",
"496 162 CURVE SMOOTH",
"496 60 OFFCURVE",
"428 1 OFFCURVE",
"286 1 CURVE SMOOTH",
"158 1 OFFCURVE",
"94 57 OFFCURVE",
"67 146 CURVE SMOOTH",
"54 189 LINE",
"34 189 LINE",
"47 144 LINE SMOOTH",
"77 41 OFFCURVE",
"152 -17 OFFCURVE",
"286 -17 CURVE SMOOTH"
);
}
);
width = 566;
},
{
background = {
paths = (
{
closed = 1;
nodes = (
"505 -17 OFFCURVE",
"596 76 OFFCURVE",
"596 203 CURVE SMOOTH",
"596 333 OFFCURVE",
"540 392 OFFCURVE",
"408 411 CURVE SMOOTH",
"317 424 LINE SMOOTH",
"266 431 OFFCURVE",
"249 444 OFFCURVE",
"249 467 CURVE SMOOTH",
"249 502 OFFCURVE",
"271 516 OFFCURVE",
"310 516 CURVE SMOOTH",
"351 516 OFFCURVE",
"366 500 OFFCURVE",
"372 478 CURVE SMOOTH",
"377 461 LINE",
"587 461 LINE",
"577 506 LINE SMOOTH",
"555 605 OFFCURVE",
"492 683 OFFCURVE",
"305 683 CURVE SMOOTH",
"124 683 OFFCURVE",
"34 592 OFFCURVE",
"34 460 CURVE SMOOTH",
"34 329 OFFCURVE",
"99 279 OFFCURVE",
"230 255 CURVE SMOOTH",
"322 238 LINE SMOOTH",
"363 230 OFFCURVE",
"381 223 OFFCURVE",
"381 193 CURVE SMOOTH",
"381 161 OFFCURVE",
"358 150 OFFCURVE",
"317 150 CURVE SMOOTH",
"272 150 OFFCURVE",
"253 161 OFFCURVE",
"245 188 CURVE SMOOTH",
"239 207 LINE",
"25 207 LINE",
"34 165 LINE SMOOTH",
"61 39 OFFCURVE",
"149 -17 OFFCURVE",
"319 -17 CURVE SMOOTH"
);
}
);
};
layerId = "4208D53D-8B52-43BA-A51E-290EEDFDCE51";
paths = (
{
closed = 1;
nodes = (
"505 -17 OFFCURVE",
"596 76 OFFCURVE",
"596 203 CURVE SMOOTH",
"596 337 OFFCURVE",
"540 398 OFFCURVE",
"408 417 CURVE SMOOTH",
"317 430 LINE SMOOTH",
"266 437 OFFCURVE",
"249 450 OFFCURVE",
"249 473 CURVE SMOOTH",
"249 508 OFFCURVE",
"271 522 OFFCURVE",
"310 522 CURVE SMOOTH",
"351 522 OFFCURVE",
"366 506 OFFCURVE",
"372 484 CURVE SMOOTH",
"377 467 LINE",
"587 467 LINE",
"577 512 LINE SMOOTH",
"555 611 OFFCURVE",
"492 689 OFFCURVE",
"305 689 CURVE SMOOTH",
"124 689 OFFCURVE",
"34 598 OFFCURVE",
"34 466 CURVE SMOOTH",
"34 334 OFFCURVE",
"99 283 OFFCURVE",
"230 259 CURVE SMOOTH",
"322 242 LINE SMOOTH",
"363 234 OFFCURVE",
"381 226 OFFCURVE",
"381 193 CURVE SMOOTH",
"381 161 OFFCURVE",
"358 150 OFFCURVE",
"317 150 CURVE SMOOTH",
"272 150 OFFCURVE",
"253 161 OFFCURVE",
"245 188 CURVE SMOOTH",
"239 207 LINE",
"25 207 LINE",
"34 165 LINE SMOOTH",
"61 39 OFFCURVE",
"149 -17 OFFCURVE",
"319 -17 CURVE SMOOTH"
);
}
);
width = 621;
},
{
associatedMasterId = "0AB32919-C634-42BE-AC70-4A96502CEFC8";
background = {
paths = (
{
closed = 1;
nodes = (
"415 -17 OFFCURVE",
"505 50 OFFCURVE",
"505 165 CURVE SMOOTH",
"505 257 OFFCURVE",
"467 313 OFFCURVE",
"308 345 CURVE SMOOTH",
"224 362 LINE SMOOTH",
"111 385 OFFCURVE",
"66 421 OFFCURVE",
"66 518 CURVE SMOOTH",
"66 620 OFFCURVE",
"145 669 OFFCURVE",
"265 669 CURVE SMOOTH",
"370 669 OFFCURVE",
"447 637 OFFCURVE",
"467 562 CURVE SMOOTH",
"471 547 LINE",
"491 547 LINE",
"486 565 LINE SMOOTH",
"462 651 OFFCURVE",
"380 687 OFFCURVE",
"265 687 CURVE SMOOTH",
"134 687 OFFCURVE",
"46 630 OFFCURVE",
"46 518 CURVE SMOOTH",
"46 411 OFFCURVE",
"102 368 OFFCURVE",
"221 344 CURVE SMOOTH",
"305 327 LINE SMOOTH",
"456 296 OFFCURVE",
"485 250 OFFCURVE",
"485 165 CURVE SMOOTH",
"485 60 OFFCURVE",
"404 1 OFFCURVE",
"278 1 CURVE SMOOTH",
"183 1 OFFCURVE",
"85 34 OFFCURVE",
"56 121 CURVE SMOOTH",
"51 136 LINE",
"31 136 LINE",
"37 118 LINE SMOOTH",
"71 16 OFFCURVE",
"177 -17 OFFCURVE",
"278 -17 CURVE SMOOTH"
);
}
);
};
layerId = "99EB5A11-BACE-4120-A678-A3850359A64E";
name = "Jun 7 17, 09:13";
paths = (
{
closed = 1;
nodes = (
"429 -17 OFFCURVE",
"505 50 OFFCURVE",
"505 165 CURVE SMOOTH",
"505 257 OFFCURVE",
"467 313 OFFCURVE",
"308 345 CURVE SMOOTH",
"224 362 LINE SMOOTH",
"111 385 OFFCURVE",
"66 421 OFFCURVE",
"66 518 CURVE SMOOTH",
"66 620 OFFCURVE",
"145 669 OFFCURVE",
"265 669 CURVE SMOOTH",
"370 669 OFFCURVE",
"447 637 OFFCURVE",
"467 562 CURVE SMOOTH",
"471 547 LINE",
"491 547 LINE",
"486 565 LINE SMOOTH",
"462 651 OFFCURVE",
"380 687 OFFCURVE",
"265 687 CURVE SMOOTH",
"134 687 OFFCURVE",
"46 630 OFFCURVE",
"46 518 CURVE SMOOTH",
"46 411 OFFCURVE",
"102 368 OFFCURVE",
"221 344 CURVE SMOOTH",
"305 327 LINE SMOOTH",
"456 296 OFFCURVE",
"485 250 OFFCURVE",
"485 165 CURVE SMOOTH",
"485 60 OFFCURVE",
"418 1 OFFCURVE",
"277 1 CURVE SMOOTH",
"157 1 OFFCURVE",
"96 48 OFFCURVE",
"67 132 CURVE SMOOTH",
"52 175 LINE",
"32 175 LINE",
"47 130 LINE SMOOTH",
"80 32 OFFCURVE",
"151 -17 OFFCURVE",
"277 -17 CURVE SMOOTH"
);
}
);
width = 537;
}
);
unicode = 0053;
},
{
color = 3;
glyphname = T;
lastChange = "2017-06-09 08:53:50 +0000";
layers = (
{
background = {
paths = (
{
closed = 1;
nodes = (
"55 0 LINE",
"74 0 LINE",
"74 670 LINE",
"55 670 LINE"
);
},
{
closed = 1;
nodes = (
"63 350 LINE",
"63 332 LINE",
"490 332 LINE",
"490 350 LINE"
);
},
{
closed = 1;
nodes = (
"487 0 LINE",
"506 0 LINE",
"506 670 LINE",
"487 670 LINE"
);
}
);
};
layerId = "0AB32919-C634-42BE-AC70-4A96502CEFC8";
paths = (
{
closed = 1;
nodes = (
"30 670 LINE",
"30 652 LINE",
"267 652 LINE",
"267 0 LINE",
"286 0 LINE",
"286 652 LINE",
"523 652 LINE",
"523 670 LINE"
);
}
);
width = 553;
},
{
background = {
paths = (
{
closed = 1;
nodes = (
"518 0 LINE",
"518 620 LINE",
"373 620 LINE",
"373 0 LINE"
);
},
{
closed = 1;
nodes = (
"720 550 LINE",
"720 670 LINE",
"173 670 LINE",
"173 550 LINE"
);
}
);
};
layerId = "4208D53D-8B52-43BA-A51E-290EEDFDCE51";
paths = (
{
closed = 1;
nodes = (
"15 670 LINE",
"15 479 LINE",
"196 479 LINE",
"196 0 LINE",
"420 0 LINE",
"420 479 LINE",
"601 479 LINE",
"601 670 LINE"
);
}
);
width = 616;
}
);
unicode = 0054;
},
{
color = 3;
glyphname = U;
lastChange = "2017-06-09 09:11:07 +0000";
layers = (
{
anchors = (
{
name = bottom;
position = "{315, 0}";
},
{
name = ogonek.round;
position = "{428, 0}";
},
{
name = top;
position = "{315, 670}";
}
);
layerId = "0AB32919-C634-42BE-AC70-4A96502CEFC8";
paths = (
{
closed = 1;
nodes = (
"470 -17 OFFCURVE",
"568 59 OFFCURVE",
"568 224 CURVE SMOOTH",
"568 670 LINE",
"548 670 LINE",
"548 224 LINE SMOOTH",
"548 73 OFFCURVE",
"460 1 OFFCURVE",
"315 1 CURVE SMOOTH",
"170 1 OFFCURVE",
"82 73 OFFCURVE",
"82 224 CURVE SMOOTH",
"82 670 LINE",
"62 670 LINE",
"62 224 LINE SMOOTH",
"62 59 OFFCURVE",
"160 -17 OFFCURVE",
"315 -17 CURVE SMOOTH"
);
}
);
width = 630;
},
{
anchors = (
{
name = bottom;
position = "{342, 0}";
},
{
name = ogonek.round;
position = "{474, 0}";
},
{
name = top;
position = "{342, 670}";
}
);
layerId = "4208D53D-8B52-43BA-A51E-290EEDFDCE51";
paths = (
{
closed = 1;
nodes = (
"538 -17 OFFCURVE",
"654 72 OFFCURVE",
"654 264 CURVE SMOOTH",
"654 670 LINE",
"424 670 LINE",
"424 249 LINE SMOOTH",
"424 189 OFFCURVE",
"398 165 OFFCURVE",
"342 165 CURVE SMOOTH",
"286 165 OFFCURVE",
"260 189 OFFCURVE",
"260 249 CURVE SMOOTH",
"260 670 LINE",
"30 670 LINE",
"30 264 LINE SMOOTH",
"30 72 OFFCURVE",
"146 -17 OFFCURVE",
"342 -17 CURVE SMOOTH"
);
}
);
width = 684;
}
);
unicode = 0055;
},
{
color = 3;
glyphname = V;
lastChange = "2017-06-09 09:11:38 +0000";
layers = (
{
background = {
paths = (
{
closed = 1;
nodes = (
"314 0 LINE",
"592 670 LINE",
"570 670 LINE",
"302 20 LINE",
"306 20 LINE",
"38 670 LINE",
"16 670 LINE",
"294 0 LINE"
);
}
);
};
guideLines = (
{
angle = 20.3612;
position = "{279, 93}";
showMeasurement = 1;
}
);
layerId = "0AB32919-C634-42BE-AC70-4A96502CEFC8";
paths = (
{
closed = 1;
nodes = (
"314 0 LINE",
"592 670 LINE",
"570 670 LINE",
"302 20 LINE",
"306 20 LINE",
"38 670 LINE",
"16 670 LINE",
"294 0 LINE"
);
}
);
width = 608;
},
{
background = {
paths = (
{
closed = 1;
nodes = (
"387 0 LINE",
"246 670 LINE",
"2 670 LINE",
"186 0 LINE"
);
},
{
closed = 1;
nodes = (
"701 670 LINE",
"452 670 LINE",
"312 0 LINE",
"516 0 LINE"
);
}
);
};
layerId = "4208D53D-8B52-43BA-A51E-290EEDFDCE51";
paths = (
{
closed = 1;
nodes = (
"516 0 LINE",
"701 670 LINE",
"452 670 LINE",
"340 135 LINE",
"358 135 LINE",
"246 670 LINE",
"2 670 LINE",
"186 0 LINE"
);
}
);
width = 703;
}
);
unicode = 0056;
},
{
color = 3;
glyphname = W;
lastChange = "2017-06-09 10:25:41 +0000";
layers = (
{
background = {
paths = (
{
closed = 1;
nodes = (
"436 670 LINE",
"624 29 LINE",
"815 670 LINE",
"835 670 LINE",
"634 0 LINE",
"614 0 LINE",
"426 637 LINE",
"238 0 LINE",
"218 0 LINE",
"17 670 LINE",
"37 670 LINE",
"241 -14 LINE",
"215 -14 LINE",
"416 670 LINE"
);
}
);
};
guideLines = (
{
angle = 20.3612;
position = "{86, 623}";
showMeasurement = 1;
},
{
angle = -19.065;
position = "{369, 670}";
showMeasurement = 1;
}
);
layerId = "0AB32919-C634-42BE-AC70-4A96502CEFC8";
paths = (
{
closed = 1;
nodes = (
"238 0 LINE",
"431 654 LINE",
"421 654 LINE",
"614 0 LINE",
"634 0 LINE",
"835 670 LINE",
"815 670 LINE",
"620 17 LINE",
"628 17 LINE",
"436 670 LINE",
"416 670 LINE",
"224 17 LINE",
"232 17 LINE",
"37 670 LINE",
"17 670 LINE",
"218 0 LINE"
);
}
);
width = 852;
},
{
layerId = "4208D53D-8B52-43BA-A51E-290EEDFDCE51";
paths = (
{
closed = 1;
nodes = (
"417 0 LINE",
"519 521 LINE",
"470 521 LINE",
"572 0 LINE",
"818 0 LINE",
"987 670 LINE",
"747 670 LINE",
"656 145 LINE",
"695 145 LINE",
"594 670 LINE",
"395 670 LINE",
"294 145 LINE",
"333 145 LINE",
"242 670 LINE",
"2 670 LINE",
"171 0 LINE"
);
}
);
width = 989;
}
);
unicode = 0057;
},
{
color = 3;
glyphname = X;
lastChange = "2017-06-09 09:13:52 +0000";
layers = (
{
background = {
paths = (
{
closed = 1;
nodes = (
"512 0 LINE",
"265 339 LINE",
"260 346 LINE",
"24 670 LINE",
"2 670 LINE",
"249 331 LINE",
"254 324 LINE",
"490 0 LINE"
);
},
{
closed = 1;
nodes = (
"24 0 LINE",
"512 670 LINE",
"490 670 LINE",
"2 0 LINE"
);
}
);
};
layerId = "0AB32919-C634-42BE-AC70-4A96502CEFC8";
paths = (
{
closed = 1;
nodes = (
"512 0 LINE",
"265 339 LINE",
"260 346 LINE",
"24 670 LINE",
"2 670 LINE",
"249 331 LINE",
"254 324 LINE",
"490 0 LINE"
);
},
{
closed = 1;
nodes = (
"24 0 LINE",
"260 324 LINE",
"265 331 LINE",
"512 670 LINE",
"490 670 LINE",
"254 346 LINE",
"249 339 LINE",
"2 0 LINE"
);
}
);
width = 514;
},
{
background = {
paths = (
{
closed = 1;
nodes = (
"313 417 LINE",
"230 376 LINE",
"1 0 LINE",
"243 0 LINE",
"365 225 LINE",
"448 266 LINE",
"696 670 LINE",
"454 670 LINE"
);
},
{
closed = 1;
nodes = (
"3 670 LINE",
"251 266 LINE",
"334 225 LINE",
"456 0 LINE",
"698 0 LINE",
"469 376 LINE",
"386 417 LINE",
"245 670 LINE"
);
}
);
};
guideLines = (
{
angle = 29.8371;
position = "{558, 119}";
showMeasurement = 1;
}
);
layerId = "4208D53D-8B52-43BA-A51E-290EEDFDCE51";
paths = (
{
closed = 1;
nodes = (
"698 0 LINE",
"469 376 LINE",
"388 417 LINE",
"247 670 LINE",
"5 670 LINE",
"253 266 LINE",
"334 225 LINE",
"456 0 LINE"
);
},
{
closed = 1;
nodes = (
"245 0 LINE",
"367 225 LINE",
"448 266 LINE",
"696 670 LINE",
"454 670 LINE",
"313 417 LINE",
"232 376 LINE",
"3 0 LINE"
);
}
);
width = 701;
}
);
unicode = 0058;
},
{
color = 3;
glyphname = Y;
lastChange = "2017-06-09 08:53:50 +0000";
layers = (
{
background = {
paths = (
{
closed = 1;
nodes = (
"293 0 LINE",
"293 323 LINE",
"289 309 LINE",
"548 670 LINE",
"525 670 LINE",
"281 329 LINE",
"287 329 LINE",
"43 670 LINE",
"18 670 LINE",
"278 309 LINE",
"274 323 LINE",
"274 0 LINE"
);
}
);
};
layerId = "0AB32919-C634-42BE-AC70-4A96502CEFC8";
paths = (
{
closed = 1;
nodes = (
"293 0 LINE",
"293 323 LINE",
"289 309 LINE",
"548 670 LINE",
"525 670 LINE",
"281 329 LINE",
"287 329 LINE",
"43 670 LINE",
"18 670 LINE",
"278 309 LINE",
"274 323 LINE",
"274 0 LINE"
);
}
);
width = 566;
},
{
background = {
paths = (
{
closed = 1;
nodes = (
"696 670 LINE",
"457 670 LINE",
"314 375 LINE",
"380 363 LINE",
"229 670 LINE",
"2 670 LINE",
"267 171 LINE",
"234 280 LINE",
"234 0 LINE",
"464 0 LINE",
"464 280 LINE",
"431 171 LINE"
);
}
);
};
layerId = "4208D53D-8B52-43BA-A51E-290EEDFDCE51";
paths = (
{
closed = 1;
nodes = (
"464 0 LINE",
"464 280 LINE",
"431 171 LINE",
"696 670 LINE",
"469 670 LINE",
"318 363 LINE",
"380 363 LINE",
"229 670 LINE",
"2 670 LINE",
"267 171 LINE",
"234 280 LINE",
"234 0 LINE"
);
}
);
width = 698;
}
);
unicode = 0059;
},
{
color = 3;
glyphname = Z;
lastChange = "2017-06-09 09:15:03 +0000";
layers = (
{
background = {
paths = (
{
closed = 1;
nodes = (
"15 670 LINE",
"15 652 LINE",
"476 652 LINE",
"10 18 LINE",
"10 0 LINE",
"498 0 LINE",
"498 18 LINE",
"32 18 LINE",
"498 652 LINE",
"498 670 LINE"
);
}
);
};
guideLines = (
{
angle = -35.3961;
position = "{336, 234}";
showMeasurement = 1;
}
);
layerId = "0AB32919-C634-42BE-AC70-4A96502CEFC8";
paths = (
{
closed = 1;
nodes = (
"15 670 LINE",
"15 652 LINE",
"482 652 LINE",
"482 660 LINE",
"10 18 LINE",
"10 0 LINE",
"498 0 LINE",
"498 18 LINE",
"24 18 LINE",
"24 7 LINE",
"498 652 LINE",
"498 670 LINE"
);
}
);
width = 508;
},
{
background = {
paths = (
{
closed = 1;
nodes = (
"21 670 LINE",
"21 493 LINE",
"287 493 LINE",
"21 172 LINE",
"21 0 LINE",
"540 0 LINE",
"540 177 LINE",
"274 177 LINE",
"540 498 LINE",
"540 670 LINE"
);
}
);
};
layerId = "4208D53D-8B52-43BA-A51E-290EEDFDCE51";
paths = (
{
closed = 1;
nodes = (
"21 670 LINE",
"21 493 LINE",
"332 493 LINE",
"316 528 LINE",
"21 172 LINE",
"21 0 LINE",
"540 0 LINE",
"540 177 LINE",
"229 177 LINE",
"245 142 LINE",
"540 498 LINE",
"540 670 LINE"
);
}
);
width = 561;
}
);
unicode = 005A;
},
{
glyphname = M.002;
lastChange = "2017-07-13 12:06:55 +0000";
layers = (
{
background = {
paths = (
{
closed = 1;
nodes = (
"107 0 LINE",
"107 670 LINE",
"88 670 LINE",
"88 0 LINE"
);
},
{
closed = 1;
nodes = (
"720 670 LINE",
"701 670 LINE",
"701 0 LINE",
"720 0 LINE"
);
},
{
closed = 1;
nodes = (
"382 118 LINE",
"426 118 LINE",
"116 670 LINE",
"96 670 LINE",
"404 121 LINE",
"712 670 LINE",
"692 670 LINE"
);
}
);
};
layerId = "0AB32919-C634-42BE-AC70-4A96502CEFC8";
paths = (
{
closed = 1;
nodes = (
"107 0 LINE",
"107 665 LINE",
"102 659 LINE",
"397 133 LINE",
"411 133 LINE",
"706 659 LINE",
"701 665 LINE",
"701 0 LINE",
"720 0 LINE",
"720 670 LINE",
"692 670 LINE",
"399 148 LINE",
"409 148 LINE",
"116 670 LINE",
"88 670 LINE",
"88 0 LINE"
);
}
);
width = 808;
},
{
background = {
paths = (
{
closed = 1;
nodes = (
"674 515 LINE",
"606 520 LINE",
"606 0 LINE",
"804 0 LINE",
"804 670 LINE",
"587 670 LINE",
"412 352 LINE",
"438 352 LINE",
"263 670 LINE",
"46 670 LINE",
"46 0 LINE",
"244 0 LINE",
"244 520 LINE",
"176 515 LINE",
"425 85 LINE"
);
}
);
};
guideLines = (
{
angle = 115.4378;
position = "{188, 515}";
}
);
layerId = "4208D53D-8B52-43BA-A51E-290EEDFDCE51";
paths = (
{
closed = 1;
nodes = (
"243 0 LINE",
"243 520 LINE",
"193 515 LINE",
"346 167 LINE",
"515 167 LINE",
"668 515 LINE",
"618 520 LINE",
"618 0 LINE",
"816 0 LINE",
"816 670 LINE",
"582 670 LINE",
"412 321 LINE",
"438 321 LINE",
"279 670 LINE",
"45 670 LINE",
"45 0 LINE"
);
}
);
width = 861;
},
{
associatedMasterId = "4208D53D-8B52-43BA-A51E-290EEDFDCE51";
background = {
paths = (
{
closed = 1;
nodes = (
"678 515 LINE",
"628 520 LINE",
"628 0 LINE",
"826 0 LINE",
"826 670 LINE",
"592 670 LINE",
"417 321 LINE",
"443 321 LINE",
"279 670 LINE",
"45 670 LINE",
"45 0 LINE",
"243 0 LINE",
"243 520 LINE",
"193 515 LINE",
"351 167 LINE",
"520 167 LINE"
);
}
);
};
guideLines = (
{
angle = 115.4378;
position = "{193, 515}";
}
);
layerId = "FA3BF5A4-67DD-483B-BA54-156C7ECDE963";
name = "Jun 8 17, 17:51";
paths = (
{
closed = 1;
nodes = (
"679 515 LINE",
"611 520 LINE",
"611 0 LINE",
"809 0 LINE",
"809 670 LINE",
"592 670 LINE",
"417 352 LINE",
"443 352 LINE",
"268 670 LINE",
"51 670 LINE",
"51 0 LINE",
"249 0 LINE",
"249 520 LINE",
"181 515 LINE",
"430 85 LINE"
);
}
);
width = 871;
}
);
leftMetricsKey = "=H";
rightMetricsKey = "=H";
},
{
color = 3;
glyphname = a;
lastChange = "2017-06-09 10:09:44 +0000";
layers = (
{
anchors = (
{
name = bottom;
position = "{256, 0}";
},
{
name = ogonek;
position = "{437, 0}";
},
{
name = top;
position = "{256, 515}";
}
);
background = {
paths = (
{
closed = 1;
nodes = (
"329 -15 OFFCURVE",
"410 56 OFFCURVE",
"428 163 CURVE",
"419 160 LINE",
"421 0 LINE",
"437 0 LINE",
"437 372 LINE SMOOTH",
"437 474 OFFCURVE",
"376 530 OFFCURVE",
"268 530 CURVE SMOOTH",
"157 530 OFFCURVE",
"107 477 OFFCURVE",
"81 406 CURVE SMOOTH",
"66 365 LINE",
"86 365 LINE",
"100 403 LINE SMOOTH",
"123 465 OFFCURVE",
"165 512 OFFCURVE",
"268 512 CURVE SMOOTH",
"368 512 OFFCURVE",
"419 461 OFFCURVE",
"419 371 CURVE SMOOTH",
"419 211 LINE SMOOTH",
"419 81 OFFCURVE",
"328 3 OFFCURVE",
"214 3 CURVE SMOOTH",
"127 3 OFFCURVE",
"73 42 OFFCURVE",
"73 117 CURVE SMOOTH",
"73 178 OFFCURVE",
"99 212 OFFCURVE",
"186 234 CURVE SMOOTH",
"375 281 LINE SMOOTH",
"407 289 OFFCURVE",
"422 299 OFFCURVE",
"424 322 CURVE",
"424 339 LINE",
"419 339 LINE",
"419 318 OFFCURVE",
"402 305 OFFCURVE",
"374 298 CURVE SMOOTH",
"181 250 LINE SMOOTH",
"89 227 OFFCURVE",
"53 186 OFFCURVE",
"53 117 CURVE SMOOTH",
"53 31 OFFCURVE",
"116 -15 OFFCURVE",
"214 -15 CURVE SMOOTH"
);
}
);
};
layerId = "0AB32919-C634-42BE-AC70-4A96502CEFC8";
paths = (
{
closed = 1;
nodes = (
"329 -15 OFFCURVE",
"410 56 OFFCURVE",
"428 163 CURVE",
"419 160 LINE",
"421 0 LINE",
"437 0 LINE",
"437 372 LINE SMOOTH",
"437 474 OFFCURVE",
"376 530 OFFCURVE",
"268 530 CURVE SMOOTH",
"157 530 OFFCURVE",
"107 477 OFFCURVE",
"81 406 CURVE SMOOTH",
"66 365 LINE",
"86 365 LINE",
"100 403 LINE SMOOTH",
"123 465 OFFCURVE",
"165 512 OFFCURVE",
"268 512 CURVE SMOOTH",
"368 512 OFFCURVE",
"419 461 OFFCURVE",
"419 371 CURVE SMOOTH",
"419 339 LINE SMOOTH",
"419 318 OFFCURVE",
"402 305 OFFCURVE",
"374 298 CURVE SMOOTH",
"181 250 LINE SMOOTH",
"89 227 OFFCURVE",
"53 186 OFFCURVE",
"53 117 CURVE SMOOTH",
"53 31 OFFCURVE",
"116 -15 OFFCURVE",
"214 -15 CURVE SMOOTH"
);
},
{
closed = 1;
nodes = (
"127 3 OFFCURVE",
"73 42 OFFCURVE",
"73 117 CURVE SMOOTH",
"73 178 OFFCURVE",
"99 212 OFFCURVE",
"186 234 CURVE SMOOTH",
"375 281 LINE SMOOTH",
"407 289 OFFCURVE",
"422 299 OFFCURVE",
"424 322 CURVE",
"419 322 LINE",
"419 211 LINE SMOOTH",
"419 81 OFFCURVE",
"328 3 OFFCURVE",
"214 3 CURVE SMOOTH"
);
}
);
width = 511;
},
{
anchors = (
{
name = bottom;
position = "{279, 0}";
},
{
name = ogonek;
position = "{531, 0}";
},
{
name = top;
position = "{298, 535}";
}
);
background = {
paths = (
{
closed = 1;
nodes = (
"285 -13 OFFCURVE",
"340 23 OFFCURVE",
"343 97 CURVE",
"334 97 LINE",
"360 0 LINE",
"531 0 LINE",
"531 361 LINE SMOOTH",
"531 479 OFFCURVE",
"456 550 OFFCURVE",
"297 550 CURVE SMOOTH",
"165 550 OFFCURVE",
"81 498 OFFCURVE",
"48 387 CURVE SMOOTH",
"34 340 LINE",
"233 340 LINE",
"238 357 LINE SMOOTH",
"245 382 OFFCURVE",
"263 394 OFFCURVE",
"292 394 CURVE SMOOTH",
"321 394 OFFCURVE",
"339 379 OFFCURVE",
"339 350 CURVE SMOOTH",
"339 188 LINE SMOOTH",
"339 147 OFFCURVE",
"318 125 OFFCURVE",
"274 125 CURVE SMOOTH",
"244 125 OFFCURVE",
"226 138 OFFCURVE",
"226 165 CURVE SMOOTH",
"226 188 OFFCURVE",
"239 201 OFFCURVE",
"269 206 CURVE SMOOTH",
"315 214 LINE SMOOTH",
"338 218 OFFCURVE",
"347 227 OFFCURVE",
"352 247 CURVE",
"352 341 LINE",
"339 341 LINE",
"339 326 OFFCURVE",
"332 322 OFFCURVE",
"316 320 CURVE SMOOTH",
"189 303 LINE SMOOTH",
"70 287 OFFCURVE",
"21 233 OFFCURVE",
"21 141 CURVE SMOOTH",
"21 44 OFFCURVE",
"98 -13 OFFCURVE",
"199 -13 CURVE SMOOTH"
);
}
);
};
layerId = "4208D53D-8B52-43BA-A51E-290EEDFDCE51";
paths = (
{
closed = 1;
nodes = (
"285 -13 OFFCURVE",
"340 23 OFFCURVE",
"343 97 CURVE",
"334 97 LINE",
"360 0 LINE",
"531 0 LINE",
"531 361 LINE SMOOTH",
"531 479 OFFCURVE",
"456 550 OFFCURVE",
"297 550 CURVE SMOOTH",
"165 550 OFFCURVE",
"81 498 OFFCURVE",
"48 387 CURVE SMOOTH",
"34 340 LINE",
"233 340 LINE",
"238 357 LINE SMOOTH",
"245 382 OFFCURVE",
"263 394 OFFCURVE",
"292 394 CURVE SMOOTH",
"321 394 OFFCURVE",
"339 379 OFFCURVE",
"339 350 CURVE SMOOTH",
"339 341 LINE SMOOTH",
"339 326 OFFCURVE",
"332 322 OFFCURVE",
"316 320 CURVE SMOOTH",
"189 303 LINE SMOOTH",
"70 287 OFFCURVE",
"21 233 OFFCURVE",
"21 141 CURVE SMOOTH",
"21 44 OFFCURVE",
"98 -13 OFFCURVE",
"199 -13 CURVE SMOOTH"
);
},
{
closed = 1;
nodes = (
"244 125 OFFCURVE",
"226 138 OFFCURVE",
"226 165 CURVE SMOOTH",
"226 188 OFFCURVE",
"239 201 OFFCURVE",
"269 206 CURVE SMOOTH",
"315 214 LINE SMOOTH",
"338 218 OFFCURVE",
"347 227 OFFCURVE",
"352 247 CURVE",
"339 247 LINE",
"339 188 LINE SMOOTH",
"339 147 OFFCURVE",
"318 125 OFFCURVE",
"274 125 CURVE SMOOTH"
);
}
);
width = 568;
},
{
associatedMasterId = "0AB32919-C634-42BE-AC70-4A96502CEFC8";
background = {
paths = (
{
closed = 1;
nodes = (
"486 0 LINE",
"486 363 LINE SMOOTH",
"486 472 OFFCURVE",
"424 540 OFFCURVE",
"280 540 CURVE SMOOTH",
"160 540 OFFCURVE",
"85 487 OFFCURVE",
"61 378 CURVE SMOOTH",
"56 355 LINE",
"195 355 LINE",
"197 367 LINE SMOOTH",
"204 410 OFFCURVE",
"234 426 OFFCURVE",
"280 426 CURVE SMOOTH",
"331 426 OFFCURVE",
"352 401 OFFCURVE",
"352 358 CURVE SMOOTH",
"352 113 LINE",
"367 0 LINE"
);
},
{
closed = 1;
nodes = (
"347 -13 OFFCURVE",
"374 81 OFFCURVE",
"368 209 CURVE",
"352 209 LINE",
"352 130 OFFCURVE",
"316 90 OFFCURVE",
"245 90 CURVE SMOOTH",
"196 90 OFFCURVE",
"173 112 OFFCURVE",
"173 150 CURVE SMOOTH",
"173 185 OFFCURVE",
"194 205 OFFCURVE",
"224 210 CURVE SMOOTH",
"321 226 LINE SMOOTH",
"356 232 OFFCURVE",
"376 241 OFFCURVE",
"379 280 CURVE",
"379 343 LINE",
"352 343 LINE",
"352 324 OFFCURVE",
"346 316 OFFCURVE",
"328 313 CURVE SMOOTH",
"179 288 LINE SMOOTH",
"89 273 OFFCURVE",
"39 225 OFFCURVE",
"39 135 CURVE SMOOTH",
"39 52 OFFCURVE",
"97 -13 OFFCURVE",
"212 -13 CURVE SMOOTH"
);
}
);
};
guideLines = (
{
angle = 255.0686;
position = "{194, 352}";
},
{
angle = -87.3926;
position = "{268, 316}";
showMeasurement = 1;
},
{
angle = 9.4623;
position = "{358, 318}";
}
);
layerId = "9A372A3F-F826-4C1E-9AF5-E9D50D027550";
name = Original;
paths = (
{
closed = 1;
nodes = (
"486 0 LINE",
"486 363 LINE SMOOTH",
"486 472 OFFCURVE",
"414 540 OFFCURVE",
"279 540 CURVE SMOOTH",
"169 540 OFFCURVE",
"90 486 OFFCURVE",
"62 378 CURVE SMOOTH",
"56 355 LINE",
"195 355 LINE",
"198 367 LINE SMOOTH",
"209 409 OFFCURVE",
"235 426 OFFCURVE",
"280 426 CURVE SMOOTH",
"327 426 OFFCURVE",
"352 401 OFFCURVE",
"352 358 CURVE SMOOTH",
"352 113 LINE",
"367 0 LINE"
);
},
{
closed = 1;
nodes = (
"353 -13 OFFCURVE",
"381 81 OFFCURVE",
"375 209 CURVE",
"352 209 LINE",
"352 131 OFFCURVE",
"316 91 OFFCURVE",
"245 91 CURVE SMOOTH",
"200 91 OFFCURVE",
"173 113 OFFCURVE",
"173 150 CURVE SMOOTH",
"173 185 OFFCURVE",
"194 204 OFFCURVE",
"236 212 CURVE SMOOTH",
"358 232 LINE SMOOTH",
"397 240 OFFCURVE",
"435 263 OFFCURVE",
"438 302 CURVE",
"438 361 LINE",
"411 361 LINE",
"409 337 OFFCURVE",
"395 324 OFFCURVE",
"358 318 CURVE SMOOTH",
"202 292 LINE SMOOTH",
"89 273 OFFCURVE",
"39 225 OFFCURVE",
"39 135 CURVE SMOOTH",
"39 52 OFFCURVE",
"101 -13 OFFCURVE",
"210 -13 CURVE SMOOTH"
);
}
);
width = 542;
},
{
associatedMasterId = "4208D53D-8B52-43BA-A51E-290EEDFDCE51";
background = {
paths = (
{
closed = 1;
nodes = (
"531 0 LINE",
"531 362 LINE SMOOTH",
"531 479 OFFCURVE",
"452 550 OFFCURVE",
"299 550 CURVE SMOOTH",
"167 550 OFFCURVE",
"80 493 OFFCURVE",
"48 387 CURVE SMOOTH",
"34 340 LINE",
"239 340 LINE",
"244 357 LINE SMOOTH",
"251 382 OFFCURVE",
"268 394 OFFCURVE",
"295 394 CURVE SMOOTH",
"324 394 OFFCURVE",
"339 379 OFFCURVE",
"339 350 CURVE SMOOTH",
"339 88 LINE",
"359 0 LINE"
);
},
{
closed = 1;
nodes = (
"331 -13 OFFCURVE",
"368 73 OFFCURVE",
"362 189 CURVE",
"339 190 LINE",
"339 150 OFFCURVE",
"317 125 OFFCURVE",
"274 125 CURVE SMOOTH",
"244 125 OFFCURVE",
"226 138 OFFCURVE",
"226 165 CURVE SMOOTH",
"226 188 OFFCURVE",
"240 201 OFFCURVE",
"273 206 CURVE SMOOTH",
"371 220 LINE SMOOTH",
"411 226 OFFCURVE",
"450 253 OFFCURVE",
"453 291 CURVE",
"453 368 LINE",
"426 368 LINE",
"424 348 OFFCURVE",
"410 333 OFFCURVE",
"373 328 CURVE SMOOTH",
"189 303 LINE SMOOTH",
"70 287 OFFCURVE",
"21 231 OFFCURVE",
"21 141 CURVE SMOOTH",
"21 44 OFFCURVE",
"99 -13 OFFCURVE",
"199 -13 CURVE SMOOTH"
);
}
);
};
layerId = "99118DD5-B0FE-4849-9A28-15EE1FE9D0BE";
name = "Apr 19 17, 13:20";
paths = (
{
closed = 1;
nodes = (
"531 0 LINE",
"531 362 LINE SMOOTH",
"531 479 OFFCURVE",
"452 550 OFFCURVE",
"299 550 CURVE SMOOTH",
"167 550 OFFCURVE",
"80 493 OFFCURVE",
"48 387 CURVE SMOOTH",
"34 340 LINE",
"239 340 LINE",
"244 357 LINE SMOOTH",
"251 382 OFFCURVE",
"268 394 OFFCURVE",
"295 394 CURVE SMOOTH",
"324 394 OFFCURVE",
"339 379 OFFCURVE",
"339 350 CURVE SMOOTH",
"339 88 LINE",
"359 0 LINE"
);
},
{
closed = 1;
nodes = (
"331 -13 OFFCURVE",
"368 73 OFFCURVE",
"362 189 CURVE",
"339 190 LINE",
"339 150 OFFCURVE",
"317 125 OFFCURVE",
"274 125 CURVE SMOOTH",
"244 125 OFFCURVE",
"226 138 OFFCURVE",
"226 165 CURVE SMOOTH",
"226 188 OFFCURVE",
"240 201 OFFCURVE",
"273 206 CURVE SMOOTH",
"371 220 LINE SMOOTH",
"411 226 OFFCURVE",
"450 253 OFFCURVE",
"453 291 CURVE",
"453 368 LINE",
"426 368 LINE",
"424 348 OFFCURVE",
"410 333 OFFCURVE",
"373 328 CURVE SMOOTH",
"189 303 LINE SMOOTH",
"70 287 OFFCURVE",
"21 231 OFFCURVE",
"21 141 CURVE SMOOTH",
"21 44 OFFCURVE",
"99 -13 OFFCURVE",
"199 -13 CURVE SMOOTH"
);
}
);
width = 568;
},
{
anchors = (
{
name = bottom;
position = "{256, 0}";
},
{
name = ogonek;
position = "{437, 0}";
},
{
name = top;
position = "{256, 515}";
}
);
associatedMasterId = "0AB32919-C634-42BE-AC70-4A96502CEFC8";
background = {
paths = (
{
closed = 1;
nodes = (
"437 -1 LINE",
"437 372 LINE SMOOTH",
"437 473 OFFCURVE",
"372 530 OFFCURVE",
"268 530 CURVE SMOOTH",
"162 530 OFFCURVE",
"108 477 OFFCURVE",
"83 410 CURVE SMOOTH",
"66 365 LINE",
"86 365 LINE",
"102 407 LINE SMOOTH",
"124 465 OFFCURVE",
"169 512 OFFCURVE",
"268 512 CURVE SMOOTH",
"364 512 OFFCURVE",
"419 461 OFFCURVE",
"419 371 CURVE SMOOTH",
"419 157 LINE",
"421 -1 LINE"
);
},
{
closed = 1;
nodes = (
"330 -15 OFFCURVE",
"436 79 OFFCURVE",
"430 206 CURVE",
"419 208 LINE",
"419 82 OFFCURVE",
"315 3 OFFCURVE",
"213 3 CURVE SMOOTH",
"127 3 OFFCURVE",
"73 44 OFFCURVE",
"73 117 CURVE SMOOTH",
"73 176 OFFCURVE",
"99 212 OFFCURVE",
"186 234 CURVE SMOOTH",
"371 280 LINE SMOOTH",
"407 289 OFFCURVE",
"422 299 OFFCURVE",
"424 322 CURVE",
"424 339 LINE",
"419 339 LINE",
"417 315 OFFCURVE",
"402 305 OFFCURVE",
"366 296 CURVE SMOOTH",
"181 250 LINE SMOOTH",
"89 227 OFFCURVE",
"53 184 OFFCURVE",
"53 117 CURVE SMOOTH",
"53 33 OFFCURVE",
"116 -15 OFFCURVE",
"212 -15 CURVE SMOOTH"
);
}
);
};
guideLines = (
{
angle = 69.444;
position = "{66, 365}";
},
{
angle = 69.4439;
position = "{86, 365}";
},
{
angle = 13.9633;
position = "{186, 234}";
},
{
angle = 13.9649;
position = "{181, 250}";
}
);
layerId = "E58DC130-B699-4D20-9546-8820233EC948";
name = "May 20 17, 10:43";
paths = (
{
closed = 1;
nodes = (
"315 -15 OFFCURVE",
"408 56 OFFCURVE",
"427 158 CURVE",
"419 157 LINE",
"421 0 LINE",
"437 0 LINE",
"437 372 LINE SMOOTH",
"437 473 OFFCURVE",
"372 530 OFFCURVE",
"268 530 CURVE SMOOTH",
"162 530 OFFCURVE",
"108 477 OFFCURVE",
"83 410 CURVE SMOOTH",
"66 365 LINE",
"86 365 LINE",
"102 407 LINE SMOOTH",
"124 465 OFFCURVE",
"169 512 OFFCURVE",
"268 512 CURVE SMOOTH",
"364 512 OFFCURVE",
"419 461 OFFCURVE",
"419 371 CURVE SMOOTH",
"419 208 LINE SMOOTH",
"419 82 OFFCURVE",
"315 3 OFFCURVE",
"213 3 CURVE SMOOTH",
"127 3 OFFCURVE",
"73 44 OFFCURVE",
"73 117 CURVE SMOOTH",
"73 176 OFFCURVE",
"99 212 OFFCURVE",
"186 234 CURVE SMOOTH",
"375 281 LINE SMOOTH",
"407 289 OFFCURVE",
"422 299 OFFCURVE",
"424 322 CURVE",
"424 339 LINE",
"419 339 LINE",
"419 318 OFFCURVE",
"402 305 OFFCURVE",
"374 298 CURVE SMOOTH",
"181 250 LINE SMOOTH",
"89 227 OFFCURVE",
"53 184 OFFCURVE",
"53 117 CURVE SMOOTH",
"53 33 OFFCURVE",
"116 -15 OFFCURVE",
"212 -15 CURVE SMOOTH"
);
}
);
width = 512;
},
{
anchors = (
{
name = bottom;
position = "{256, 0}";
},
{
name = ogonek;
position = "{437, 0}";
},
{
name = top;
position = "{256, 515}";
}
);
associatedMasterId = "0AB32919-C634-42BE-AC70-4A96502CEFC8";
background = {
paths = (
{
closed = 1;
nodes = (
"437 -1 LINE",
"437 372 LINE SMOOTH",
"437 473 OFFCURVE",
"372 530 OFFCURVE",
"268 530 CURVE SMOOTH",
"162 530 OFFCURVE",
"108 477 OFFCURVE",
"83 410 CURVE SMOOTH",
"66 365 LINE",
"86 365 LINE",
"102 407 LINE SMOOTH",
"124 465 OFFCURVE",
"169 512 OFFCURVE",
"268 512 CURVE SMOOTH",
"364 512 OFFCURVE",
"419 461 OFFCURVE",
"419 371 CURVE SMOOTH",
"419 157 LINE",
"421 -1 LINE"
);
},
{
closed = 1;
nodes = (
"330 -15 OFFCURVE",
"436 79 OFFCURVE",
"430 206 CURVE",
"419 208 LINE",
"419 82 OFFCURVE",
"315 3 OFFCURVE",
"213 3 CURVE SMOOTH",
"127 3 OFFCURVE",
"73 44 OFFCURVE",
"73 117 CURVE SMOOTH",
"73 176 OFFCURVE",
"99 212 OFFCURVE",
"186 234 CURVE SMOOTH",
"371 280 LINE SMOOTH",
"407 289 OFFCURVE",
"422 299 OFFCURVE",
"424 322 CURVE",
"424 339 LINE",
"419 339 LINE",
"417 315 OFFCURVE",
"402 305 OFFCURVE",
"366 296 CURVE SMOOTH",
"181 250 LINE SMOOTH",
"89 227 OFFCURVE",
"53 184 OFFCURVE",
"53 117 CURVE SMOOTH",
"53 33 OFFCURVE",
"116 -15 OFFCURVE",
"212 -15 CURVE SMOOTH"
);
}
);
};
guideLines = (
{
angle = 69.444;
position = "{66, 365}";
},
{
angle = 69.4439;
position = "{86, 365}";
},
{
angle = 13.9633;
position = "{186, 234}";
},
{
angle = 13.9649;
position = "{181, 250}";
}
);
layerId = "16687B93-921D-42AB-98DC-0CDB1D0EA171";
name = "May 21 17, 12:52";
paths = (
{
closed = 1;
nodes = (
"315 -15 OFFCURVE",
"408 56 OFFCURVE",
"427 158 CURVE",
"419 157 LINE",
"421 0 LINE",
"437 0 LINE",
"437 372 LINE SMOOTH",
"437 473 OFFCURVE",
"372 530 OFFCURVE",
"268 530 CURVE SMOOTH",
"162 530 OFFCURVE",
"108 477 OFFCURVE",
"83 410 CURVE SMOOTH",
"66 365 LINE",
"86 365 LINE",
"102 407 LINE SMOOTH",
"124 465 OFFCURVE",
"169 512 OFFCURVE",
"268 512 CURVE SMOOTH",
"364 512 OFFCURVE",
"419 461 OFFCURVE",
"419 371 CURVE SMOOTH",
"419 208 LINE SMOOTH",
"419 82 OFFCURVE",
"315 3 OFFCURVE",
"213 3 CURVE SMOOTH",
"127 3 OFFCURVE",
"73 44 OFFCURVE",
"73 117 CURVE SMOOTH",
"73 176 OFFCURVE",
"99 212 OFFCURVE",
"186 234 CURVE SMOOTH",
"375 281 LINE SMOOTH",
"407 289 OFFCURVE",
"422 299 OFFCURVE",
"424 322 CURVE",
"424 339 LINE",
"419 339 LINE",
"419 318 OFFCURVE",
"402 305 OFFCURVE",
"374 298 CURVE SMOOTH",
"181 250 LINE SMOOTH",
"89 227 OFFCURVE",
"53 184 OFFCURVE",
"53 117 CURVE SMOOTH",
"53 33 OFFCURVE",
"116 -15 OFFCURVE",
"212 -15 CURVE SMOOTH"
);
}
);
width = 511;
}
);
rightMetricsKey = "=n";
unicode = 0061;
},
{
color = 3;
glyphname = c;
lastChange = "2017-06-09 08:53:50 +0000";
layers = (
{
background = {
paths = (
{
closed = 1;
nodes = (
"370 -15 OFFCURVE",
"425 31 OFFCURVE",
"456 107 CURVE SMOOTH",
"463 124 LINE",
"443 124 LINE",
"437 110 LINE SMOOTH",
"408 42 OFFCURVE",
"358 3 OFFCURVE",
"267 3 CURVE SMOOTH",
"138 3 OFFCURVE",
"65 96 OFFCURVE",
"65 258 CURVE SMOOTH",
"65 420 OFFCURVE",
"138 512 OFFCURVE",
"267 512 CURVE SMOOTH",
"358 512 OFFCURVE",
"416 474 OFFCURVE",
"439 387 CURVE SMOOTH",
"443 372 LINE",
"463 372 LINE",
"458 390 LINE SMOOTH",
"430 490 OFFCURVE",
"365 530 OFFCURVE",
"267 530 CURVE SMOOTH",
"127 530 OFFCURVE",
"45 431 OFFCURVE",
"45 258 CURVE SMOOTH",
"45 85 OFFCURVE",
"127 -15 OFFCURVE",
"267 -15 CURVE SMOOTH"
);
}
);
};
layerId = "0AB32919-C634-42BE-AC70-4A96502CEFC8";
paths = (
{
closed = 1;
nodes = (
"370 -15 OFFCURVE",
"430 26 OFFCURVE",
"461 125 CURVE SMOOTH",
"466 141 LINE",
"446 141 LINE",
"442 128 LINE SMOOTH",
"415 40 OFFCURVE",
"359 3 OFFCURVE",
"267 3 CURVE SMOOTH",
"137 3 OFFCURVE",
"65 95 OFFCURVE",
"65 258 CURVE SMOOTH",
"65 420 OFFCURVE",
"138 512 OFFCURVE",
"267 512 CURVE SMOOTH",
"358 512 OFFCURVE",
"416 474 OFFCURVE",
"439 387 CURVE SMOOTH",
"443 372 LINE",
"463 372 LINE",
"458 390 LINE SMOOTH",
"430 490 OFFCURVE",
"365 530 OFFCURVE",
"267 530 CURVE SMOOTH",
"127 530 OFFCURVE",
"45 431 OFFCURVE",
"45 258 CURVE SMOOTH",
"45 84 OFFCURVE",
"126 -15 OFFCURVE",
"267 -15 CURVE SMOOTH"
);
}
);
width = 505;
},
{
background = {
paths = (
{
closed = 1;
nodes = (
"28 89 OFFCURVE",
"130 -17 OFFCURVE",
"309 -17 CURVE SMOOTH",
"486 -17 OFFCURVE",
"556 85 OFFCURVE",
"573 212 CURVE SMOOTH",
"576 235 LINE",
"384 235 LINE",
"381 217 LINE SMOOTH",
"373 179 OFFCURVE",
"350 159 OFFCURVE",
"320 159 CURVE SMOOTH",
"270 159 OFFCURVE",
"246 198 OFFCURVE",
"246 267 CURVE SMOOTH",
"246 334 OFFCURVE",
"270 371 OFFCURVE",
"320 371 CURVE SMOOTH",
"350 371 OFFCURVE",
"373 352 OFFCURVE",
"381 316 CURVE SMOOTH",
"384 298 LINE",
"576 298 LINE",
"573 321 LINE SMOOTH",
"556 448 OFFCURVE",
"486 550 OFFCURVE",
"309 550 CURVE SMOOTH",
"134 550 OFFCURVE",
"28 442 OFFCURVE",
"28 267 CURVE SMOOTH"
);
}
);
};
layerId = "4208D53D-8B52-43BA-A51E-290EEDFDCE51";
paths = (
{
closed = 1;
nodes = (
"498 -17 OFFCURVE",
"559 85 OFFCURVE",
"576 212 CURVE SMOOTH",
"579 235 LINE",
"376 235 LINE",
"373 217 LINE SMOOTH",
"367 179 OFFCURVE",
"345 159 OFFCURVE",
"314 159 CURVE SMOOTH",
"260 159 OFFCURVE",
"246 198 OFFCURVE",
"246 267 CURVE SMOOTH",
"246 334 OFFCURVE",
"260 371 OFFCURVE",
"314 371 CURVE SMOOTH",
"345 371 OFFCURVE",
"367 352 OFFCURVE",
"373 316 CURVE SMOOTH",
"376 298 LINE",
"579 298 LINE",
"576 321 LINE SMOOTH",
"559 448 OFFCURVE",
"502 550 OFFCURVE",
"310 550 CURVE SMOOTH",
"120 550 OFFCURVE",
"28 443 OFFCURVE",
"28 267 CURVE SMOOTH",
"28 87 OFFCURVE",
"117 -17 OFFCURVE",
"313 -17 CURVE SMOOTH"
);
}
);
width = 607;
},
{
associatedMasterId = "0AB32919-C634-42BE-AC70-4A96502CEFC8";
background = {
paths = (
{
closed = 1;
nodes = (
"372 -15 OFFCURVE",
"431 35 OFFCURVE",
"461 107 CURVE SMOOTH",
"468 124 LINE",
"448 124 LINE",
"442 110 LINE SMOOTH",
"415 46 OFFCURVE",
"360 3 OFFCURVE",
"272 3 CURVE SMOOTH",
"147 3 OFFCURVE",
"70 99 OFFCURVE",
"70 258 CURVE SMOOTH",
"70 416 OFFCURVE",
"147 512 OFFCURVE",
"272 512 CURVE SMOOTH",
"358 512 OFFCURVE",
"422 471 OFFCURVE",
"444 387 CURVE SMOOTH",
"448 372 LINE",
"468 372 LINE",
"463 390 LINE SMOOTH",
"436 486 OFFCURVE",
"366 530 OFFCURVE",
"272 530 CURVE SMOOTH",
"136 530 OFFCURVE",
"50 426 OFFCURVE",
"50 258 CURVE SMOOTH",
"50 89 OFFCURVE",
"136 -15 OFFCURVE",
"272 -15 CURVE SMOOTH"
);
}
);
};
layerId = "FC55121E-4DC1-439E-94CE-C08896821154";
name = "May 20 17, 10:49";
paths = (
{
closed = 1;
nodes = (
"372 -15 OFFCURVE",
"431 35 OFFCURVE",
"461 107 CURVE SMOOTH",
"468 124 LINE",
"448 124 LINE",
"442 110 LINE SMOOTH",
"415 46 OFFCURVE",
"360 3 OFFCURVE",
"272 3 CURVE SMOOTH",
"147 3 OFFCURVE",
"70 99 OFFCURVE",
"70 258 CURVE SMOOTH",
"70 416 OFFCURVE",
"147 512 OFFCURVE",
"272 512 CURVE SMOOTH",
"358 512 OFFCURVE",
"422 471 OFFCURVE",
"444 387 CURVE SMOOTH",
"448 372 LINE",
"468 372 LINE",
"463 390 LINE SMOOTH",
"436 486 OFFCURVE",
"366 530 OFFCURVE",
"272 530 CURVE SMOOTH",
"136 530 OFFCURVE",
"50 426 OFFCURVE",
"50 258 CURVE SMOOTH",
"50 89 OFFCURVE",
"136 -15 OFFCURVE",
"272 -15 CURVE SMOOTH"
);
}
);
width = 510;
}
);
leftMetricsKey = "=o";
unicode = 0063;
},
{
color = 3;
glyphname = d;
lastChange = "2017-06-09 10:23:18 +0000";
layers = (
{
background = {
paths = (
{
closed = 1;
nodes = (
"385 -15 OFFCURVE",
"476 68 OFFCURVE",
"476 237 CURVE",
"461 238 LINE",
"461 79 OFFCURVE",
"378 3 OFFCURVE",
"267 3 CURVE SMOOTH",
"136 3 OFFCURVE",
"65 97 OFFCURVE",
"65 258 CURVE SMOOTH",
"65 418 OFFCURVE",
"136 512 OFFCURVE",
"267 512 CURVE SMOOTH",
"378 512 OFFCURVE",
"461 436 OFFCURVE",
"461 278 CURVE",
"476 279 LINE",
"476 447 OFFCURVE",
"385 530 OFFCURVE",
"267 530 CURVE SMOOTH",
"125 530 OFFCURVE",
"45 428 OFFCURVE",
"45 258 CURVE SMOOTH",
"45 87 OFFCURVE",
"125 -15 OFFCURVE",
"267 -15 CURVE SMOOTH"
);
},
{
closed = 1;
nodes = (
"479 0 LINE",
"479 720 LINE",
"461 720 LINE",
"461 164 LINE",
"463 0 LINE"
);
}
);
};
layerId = "0AB32919-C634-42BE-AC70-4A96502CEFC8";
paths = (
{
closed = 1;
nodes = (
"363 -15 OFFCURVE",
"441 40 OFFCURVE",
"467 152 CURVE",
"461 152 LINE",
"463 0 LINE",
"479 0 LINE",
"479 720 LINE",
"461 720 LINE",
"461 364 LINE",
"467 364 LINE",
"441 475 OFFCURVE",
"363 530 OFFCURVE",
"267 530 CURVE SMOOTH",
"125 530 OFFCURVE",
"45 428 OFFCURVE",
"45 258 CURVE SMOOTH",
"45 87 OFFCURVE",
"125 -15 OFFCURVE",
"267 -15 CURVE SMOOTH"
);
},
{
closed = 1;
nodes = (
"136 3 OFFCURVE",
"65 97 OFFCURVE",
"65 258 CURVE SMOOTH",
"65 418 OFFCURVE",
"136 512 OFFCURVE",
"267 512 CURVE SMOOTH",
"378 512 OFFCURVE",
"461 436 OFFCURVE",
"461 278 CURVE SMOOTH",
"461 238 LINE SMOOTH",
"461 79 OFFCURVE",
"378 3 OFFCURVE",
"267 3 CURVE SMOOTH"
);
}
);
width = 564;
},
{
associatedMasterId = "0AB32919-C634-42BE-AC70-4A96502CEFC8";
layerId = "D1781237-526E-43BB-92F1-B97ED8A3A831";
name = "Bold Universal Display Aug 3 16, 18:27";
paths = (
{
closed = 1;
nodes = (
"356 -13 OFFCURVE",
"412 48 OFFCURVE",
"426 133 CURVE",
"407 223 LINE",
"407 153 OFFCURVE",
"369 113 OFFCURVE",
"297 113 CURVE SMOOTH",
"232 113 OFFCURVE",
"188 158 OFFCURVE",
"188 260 CURVE SMOOTH",
"188 356 OFFCURVE",
"234 411 OFFCURVE",
"306 411 CURVE SMOOTH",
"372 411 OFFCURVE",
"407 369 OFFCURVE",
"407 289 CURVE",
"426 379 LINE",
"414 476 OFFCURVE",
"367 537 OFFCURVE",
"268 537 CURVE SMOOTH",
"127 537 OFFCURVE",
"40 418 OFFCURVE",
"40 261 CURVE SMOOTH",
"40 91 OFFCURVE",
"125 -13 OFFCURVE",
"253 -13 CURVE SMOOTH"
);
},
{
closed = 1;
nodes = (
"547 0 LINE",
"547 720 LINE",
"407 720 LINE",
"407 0 LINE"
);
}
);
width = 612;
},
{
associatedMasterId = "0AB32919-C634-42BE-AC70-4A96502CEFC8";
background = {
paths = (
{
closed = 1;
nodes = (
"559 0 LINE",
"559 720 LINE",
"419 720 LINE",
"419 0 LINE"
);
},
{
closed = 0;
nodes = (
"421 224 LINE",
"421 151 OFFCURVE",
"376 112 OFFCURVE",
"301 113 CURVE SMOOTH",
"227 114 OFFCURVE",
"186 167 OFFCURVE",
"186 264 CURVE SMOOTH"
);
},
{
closed = 0;
nodes = (
"38 264 LINE",
"38 110 OFFCURVE",
"121 -13 OFFCURVE",
"266 -13 CURVE SMOOTH",
"352 -13 OFFCURVE",
"425 36 OFFCURVE",
"431 119 CURVE"
);
}
);
};
layerId = "B93DE178-1C45-43C7-B222-A39E5E4202F9";
name = "Bold Universal Display Aug 3 16, 18:44";
paths = (
{
closed = 1;
nodes = (
"351 -13 OFFCURVE",
"423 47 OFFCURVE",
"429 131 CURVE",
"429 235 LINE",
"417 235 LINE",
"417 168 OFFCURVE",
"374 118 OFFCURVE",
"308 118 CURVE SMOOTH",
"231 118 OFFCURVE",
"188 168 OFFCURVE",
"188 264 CURVE SMOOTH",
"188 360 OFFCURVE",
"231 410 OFFCURVE",
"308 410 CURVE SMOOTH",
"374 410 OFFCURVE",
"417 360 OFFCURVE",
"417 293 CURVE",
"429 293 LINE",
"429 397 LINE",
"423 480 OFFCURVE",
"351 541 OFFCURVE",
"267 541 CURVE SMOOTH",
"132 541 OFFCURVE",
"40 430 OFFCURVE",
"40 264 CURVE SMOOTH",
"40 98 OFFCURVE",
"132 -13 OFFCURVE",
"268 -13 CURVE SMOOTH"
);
},
{
closed = 1;
nodes = (
"557 0 LINE",
"557 720 LINE",
"417 720 LINE",
"417 0 LINE"
);
}
);
width = 622;
},
{
associatedMasterId = "0AB32919-C634-42BE-AC70-4A96502CEFC8";
layerId = "B5272F17-9DAE-4272-91E8-5B8E16965A5B";
name = "Bold Universal Display Aug 3 16, 18:27";
paths = (
{
closed = 1;
nodes = (
"356 -13 OFFCURVE",
"412 48 OFFCURVE",
"426 133 CURVE",
"407 223 LINE",
"407 153 OFFCURVE",
"369 113 OFFCURVE",
"297 113 CURVE SMOOTH",
"232 113 OFFCURVE",
"188 158 OFFCURVE",
"188 260 CURVE SMOOTH",
"188 356 OFFCURVE",
"234 411 OFFCURVE",
"306 411 CURVE SMOOTH",
"372 411 OFFCURVE",
"407 369 OFFCURVE",
"407 289 CURVE",
"426 379 LINE",
"414 476 OFFCURVE",
"367 537 OFFCURVE",
"268 537 CURVE SMOOTH",
"127 537 OFFCURVE",
"40 418 OFFCURVE",
"40 261 CURVE SMOOTH",
"40 91 OFFCURVE",
"125 -13 OFFCURVE",
"253 -13 CURVE SMOOTH"
);
},
{
closed = 1;
nodes = (
"547 0 LINE",
"547 720 LINE",
"407 720 LINE",
"407 0 LINE"
);
}
);
width = 612;
},
{
associatedMasterId = "0AB32919-C634-42BE-AC70-4A96502CEFC8";
background = {
paths = (
{
closed = 1;
nodes = (
"559 0 LINE",
"559 720 LINE",
"419 720 LINE",
"419 0 LINE"
);
},
{
closed = 0;
nodes = (
"421 224 LINE",
"421 151 OFFCURVE",
"376 112 OFFCURVE",
"301 113 CURVE SMOOTH",
"227 114 OFFCURVE",
"186 167 OFFCURVE",
"186 264 CURVE SMOOTH"
);
},
{
closed = 0;
nodes = (
"38 264 LINE",
"38 110 OFFCURVE",
"121 -13 OFFCURVE",
"266 -13 CURVE SMOOTH",
"352 -13 OFFCURVE",
"425 36 OFFCURVE",
"431 119 CURVE"
);
}
);
};
layerId = "3B9642CD-4934-46DB-8D3D-E81EA434E5A0";
name = "Bold Universal Display Aug 3 16, 18:44";
paths = (
{
closed = 1;
nodes = (
"351 -13 OFFCURVE",
"423 47 OFFCURVE",
"429 131 CURVE",
"429 235 LINE",
"417 235 LINE",
"417 168 OFFCURVE",
"374 118 OFFCURVE",
"308 118 CURVE SMOOTH",
"231 118 OFFCURVE",
"188 168 OFFCURVE",
"188 264 CURVE SMOOTH",
"188 360 OFFCURVE",
"231 410 OFFCURVE",
"308 410 CURVE SMOOTH",
"374 410 OFFCURVE",
"417 360 OFFCURVE",
"417 293 CURVE",
"429 293 LINE",
"429 397 LINE",
"423 480 OFFCURVE",
"351 541 OFFCURVE",
"267 541 CURVE SMOOTH",
"132 541 OFFCURVE",
"40 430 OFFCURVE",
"40 264 CURVE SMOOTH",
"40 98 OFFCURVE",
"132 -13 OFFCURVE",
"268 -13 CURVE SMOOTH"
);
},
{
closed = 1;
nodes = (
"557 0 LINE",
"557 720 LINE",
"417 720 LINE",
"417 0 LINE"
);
}
);
width = 622;
},
{
background = {
paths = (
{
closed = 1;
nodes = (
"351 -13 OFFCURVE",
"407 41 OFFCURVE",
"418 118 CURVE",
"403 126 LINE",
"423 0 LINE",
"618 0 LINE",
"618 720 LINE",
"403 720 LINE",
"403 407 LINE",
"411 420 LINE",
"397 505 OFFCURVE",
"340 550 OFFCURVE",
"248 550 CURVE SMOOTH",
"113 550 OFFCURVE",
"28 441 OFFCURVE",
"28 269 CURVE SMOOTH",
"28 99 OFFCURVE",
"113 -13 OFFCURVE",
"248 -13 CURVE SMOOTH"
);
},
{
closed = 1;
nodes = (
"406 198 OFFCURVE",
"379 166 OFFCURVE",
"329 166 CURVE SMOOTH",
"279 166 OFFCURVE",
"252 198 OFFCURVE",
"252 269 CURVE SMOOTH",
"252 340 OFFCURVE",
"279 372 OFFCURVE",
"329 372 CURVE SMOOTH",
"379 372 OFFCURVE",
"406 340 OFFCURVE",
"406 269 CURVE SMOOTH"
);
}
);
};
layerId = "4208D53D-8B52-43BA-A51E-290EEDFDCE51";
paths = (
{
closed = 1;
nodes = (
"351 -13 OFFCURVE",
"407 41 OFFCURVE",
"418 118 CURVE",
"403 126 LINE",
"423 0 LINE",
"618 0 LINE",
"618 720 LINE",
"403 720 LINE",
"403 407 LINE",
"411 420 LINE",
"397 505 OFFCURVE",
"340 550 OFFCURVE",
"248 550 CURVE SMOOTH",
"113 550 OFFCURVE",
"28 441 OFFCURVE",
"28 269 CURVE SMOOTH",
"28 99 OFFCURVE",
"113 -13 OFFCURVE",
"248 -13 CURVE SMOOTH"
);
},
{
closed = 1;
nodes = (
"279 166 OFFCURVE",
"252 198 OFFCURVE",
"252 269 CURVE SMOOTH",
"252 340 OFFCURVE",
"279 372 OFFCURVE",
"329 372 CURVE SMOOTH",
"379 372 OFFCURVE",
"406 339 OFFCURVE",
"406 271 CURVE SMOOTH",
"406 267 LINE SMOOTH",
"406 199 OFFCURVE",
"379 166 OFFCURVE",
"329 166 CURVE SMOOTH"
);
}
);
width = 662;
},
{
associatedMasterId = "4208D53D-8B52-43BA-A51E-290EEDFDCE51";
background = {
paths = (
{
closed = 1;
nodes = (
"353 -13 OFFCURVE",
"424 44 OFFCURVE",
"430 127 CURVE",
"409 249 LINE",
"409 196 OFFCURVE",
"373 165 OFFCURVE",
"336 165 CURVE SMOOTH",
"280 165 OFFCURVE",
"254 201 OFFCURVE",
"254 264 CURVE SMOOTH",
"254 325 OFFCURVE",
"280 362 OFFCURVE",
"336 362 CURVE SMOOTH",
"373 362 OFFCURVE",
"409 331 OFFCURVE",
"409 279 CURVE",
"430 401 LINE",
"424 485 OFFCURVE",
"353 543 OFFCURVE",
"258 543 CURVE SMOOTH",
"122 543 OFFCURVE",
"30 432 OFFCURVE",
"30 264 CURVE SMOOTH",
"30 97 OFFCURVE",
"122 -13 OFFCURVE",
"258 -13 CURVE SMOOTH"
);
},
{
closed = 1;
nodes = (
"624 0 LINE",
"624 720 LINE",
"409 720 LINE",
"409 126 LINE",
"429 0 LINE"
);
}
);
};
layerId = "1B61C6FC-C27B-40AE-8A63-AF0FA6ED4613";
name = "Bold Universal Display Sep 26 16, 16:51";
paths = (
{
closed = 1;
nodes = (
"353 -13 OFFCURVE",
"424 44 OFFCURVE",
"430 127 CURVE",
"409 249 LINE",
"409 196 OFFCURVE",
"373 165 OFFCURVE",
"336 165 CURVE SMOOTH",
"280 165 OFFCURVE",
"254 201 OFFCURVE",
"254 264 CURVE SMOOTH",
"254 325 OFFCURVE",
"280 362 OFFCURVE",
"336 362 CURVE SMOOTH",
"373 362 OFFCURVE",
"409 331 OFFCURVE",
"409 279 CURVE",
"430 401 LINE",
"424 485 OFFCURVE",
"353 543 OFFCURVE",
"258 543 CURVE SMOOTH",
"122 543 OFFCURVE",
"30 432 OFFCURVE",
"30 264 CURVE SMOOTH",
"30 97 OFFCURVE",
"122 -13 OFFCURVE",
"258 -13 CURVE SMOOTH"
);
},
{
closed = 1;
nodes = (
"624 0 LINE",
"624 720 LINE",
"409 720 LINE",
"409 126 LINE",
"429 0 LINE"
);
}
);
width = 668;
},
{
associatedMasterId = "4208D53D-8B52-43BA-A51E-290EEDFDCE51";
background = {
paths = (
{
closed = 1;
nodes = (
"620 0 LINE",
"620 720 LINE",
"405 720 LINE",
"405 115 LINE",
"428 0 LINE"
);
},
{
closed = 1;
nodes = (
"401 189 OFFCURVE",
"375 159 OFFCURVE",
"328 159 CURVE SMOOTH",
"281 159 OFFCURVE",
"255 194 OFFCURVE",
"255 264 CURVE SMOOTH",
"255 334 OFFCURVE",
"281 369 OFFCURVE",
"328 369 CURVE SMOOTH",
"375 369 OFFCURVE",
"401 339 OFFCURVE",
"405 279 CURVE",
"423 369 LINE",
"397 490 OFFCURVE",
"355 543 OFFCURVE",
"259 543 CURVE SMOOTH",
"121 543 OFFCURVE",
"30 432 OFFCURVE",
"30 264 CURVE SMOOTH",
"30 96 OFFCURVE",
"121 -13 OFFCURVE",
"259 -13 CURVE SMOOTH",
"355 -13 OFFCURVE",
"423 44 OFFCURVE",
"429 127 CURVE",
"405 249 LINE"
);
}
);
};
layerId = "5D0F2744-AC12-45FC-A133-888E95E7750C";
name = "Bold Apr 20 17, 11:00";
paths = (
{
closed = 1;
nodes = (
"620 0 LINE",
"620 720 LINE",
"405 720 LINE",
"405 126 LINE",
"425 0 LINE"
);
},
{
closed = 1;
nodes = (
"401 189 OFFCURVE",
"375 159 OFFCURVE",
"328 159 CURVE SMOOTH",
"281 159 OFFCURVE",
"255 194 OFFCURVE",
"255 264 CURVE SMOOTH",
"255 334 OFFCURVE",
"281 369 OFFCURVE",
"328 369 CURVE SMOOTH",
"375 369 OFFCURVE",
"401 339 OFFCURVE",
"405 279 CURVE",
"429 401 LINE",
"423 485 OFFCURVE",
"355 543 OFFCURVE",
"259 543 CURVE SMOOTH",
"121 543 OFFCURVE",
"30 432 OFFCURVE",
"30 264 CURVE SMOOTH",
"30 96 OFFCURVE",
"121 -13 OFFCURVE",
"259 -13 CURVE SMOOTH",
"355 -13 OFFCURVE",
"423 44 OFFCURVE",
"429 127 CURVE",
"405 249 LINE"
);
}
);
width = 664;
},
{
associatedMasterId = "0AB32919-C634-42BE-AC70-4A96502CEFC8";
background = {
paths = (
{
closed = 1;
nodes = (
"356 -14 OFFCURVE",
"422 44 OFFCURVE",
"431 130 CURVE",
"414 239 LINE",
"414 161 OFFCURVE",
"368 115 OFFCURVE",
"305 115 CURVE SMOOTH",
"231 115 OFFCURVE",
"185 166 OFFCURVE",
"185 263 CURVE SMOOTH",
"185 360 OFFCURVE",
"231 411 OFFCURVE",
"305 411 CURVE SMOOTH",
"368 411 OFFCURVE",
"414 365 OFFCURVE",
"414 287 CURVE",
"431 396 LINE",
"422 482 OFFCURVE",
"356 540 OFFCURVE",
"263 540 CURVE SMOOTH",
"130 540 OFFCURVE",
"39 427 OFFCURVE",
"39 263 CURVE SMOOTH",
"39 99 OFFCURVE",
"130 -14 OFFCURVE",
"263 -14 CURVE SMOOTH"
);
},
{
closed = 1;
nodes = (
"554 0 LINE",
"554 720 LINE",
"414 720 LINE",
"414 135 LINE",
"424 0 LINE"
);
}
);
};
layerId = "7F722C52-7B95-4EA1-B321-EC1FDB2138E4";
name = "May 19 17, 18:00";
paths = (
{
closed = 1;
nodes = (
"356 -14 OFFCURVE",
"422 44 OFFCURVE",
"431 130 CURVE",
"414 239 LINE",
"414 161 OFFCURVE",
"368 115 OFFCURVE",
"305 115 CURVE SMOOTH",
"231 115 OFFCURVE",
"185 166 OFFCURVE",
"185 263 CURVE SMOOTH",
"185 360 OFFCURVE",
"231 411 OFFCURVE",
"305 411 CURVE SMOOTH",
"368 411 OFFCURVE",
"414 365 OFFCURVE",
"414 287 CURVE",
"431 396 LINE",
"422 482 OFFCURVE",
"356 540 OFFCURVE",
"263 540 CURVE SMOOTH",
"130 540 OFFCURVE",
"39 427 OFFCURVE",
"39 263 CURVE SMOOTH",
"39 99 OFFCURVE",
"130 -14 OFFCURVE",
"263 -14 CURVE SMOOTH"
);
},
{
closed = 1;
nodes = (
"554 0 LINE",
"554 720 LINE",
"414 720 LINE",
"414 135 LINE",
"424 0 LINE"
);
}
);
width = 619;
},
{
associatedMasterId = "0AB32919-C634-42BE-AC70-4A96502CEFC8";
background = {
paths = (
{
closed = 1;
nodes = (
"356 -14 OFFCURVE",
"422 44 OFFCURVE",
"431 130 CURVE",
"414 239 LINE",
"414 161 OFFCURVE",
"368 115 OFFCURVE",
"305 115 CURVE SMOOTH",
"229 115 OFFCURVE",
"185 166 OFFCURVE",
"185 263 CURVE SMOOTH",
"185 360 OFFCURVE",
"229 411 OFFCURVE",
"305 411 CURVE SMOOTH",
"368 411 OFFCURVE",
"414 365 OFFCURVE",
"414 287 CURVE",
"431 396 LINE",
"422 482 OFFCURVE",
"356 540 OFFCURVE",
"261 540 CURVE SMOOTH",
"130 540 OFFCURVE",
"39 427 OFFCURVE",
"39 263 CURVE SMOOTH",
"39 99 OFFCURVE",
"130 -14 OFFCURVE",
"261 -14 CURVE SMOOTH"
);
},
{
closed = 1;
nodes = (
"554 0 LINE",
"554 720 LINE",
"414 720 LINE",
"414 135 LINE",
"424 0 LINE"
);
}
);
};
layerId = "C0033FA9-A2EB-4337-87D0-F727C38F1883";
name = "May 19 17, 18:03";
paths = (
{
closed = 1;
nodes = (
"356 -14 OFFCURVE",
"422 44 OFFCURVE",
"431 130 CURVE",
"414 239 LINE",
"414 161 OFFCURVE",
"368 115 OFFCURVE",
"305 115 CURVE SMOOTH",
"229 115 OFFCURVE",
"185 166 OFFCURVE",
"185 263 CURVE SMOOTH",
"185 360 OFFCURVE",
"229 411 OFFCURVE",
"305 411 CURVE SMOOTH",
"368 411 OFFCURVE",
"414 365 OFFCURVE",
"414 287 CURVE",
"431 396 LINE",
"422 482 OFFCURVE",
"356 540 OFFCURVE",
"261 540 CURVE SMOOTH",
"130 540 OFFCURVE",
"39 427 OFFCURVE",
"39 263 CURVE SMOOTH",
"39 99 OFFCURVE",
"130 -14 OFFCURVE",
"261 -14 CURVE SMOOTH"
);
},
{
closed = 1;
nodes = (
"554 0 LINE",
"554 720 LINE",
"414 720 LINE",
"414 135 LINE",
"424 0 LINE"
);
}
);
width = 619;
}
);
leftMetricsKey = "=o";
rightMetricsKey = "=|n";
unicode = 0064;
},
{
color = 3;
glyphname = e;
lastChange = "2017-06-09 08:53:50 +0000";
layers = (
{
background = {
paths = (
{
closed = 1;
nodes = (
"407 -15 OFFCURVE",
"489 84 OFFCURVE",
"489 258 CURVE SMOOTH",
"489 431 OFFCURVE",
"407 530 OFFCURVE",
"267 530 CURVE SMOOTH",
"127 530 OFFCURVE",
"45 431 OFFCURVE",
"45 258 CURVE SMOOTH",
"45 84 OFFCURVE",
"127 -15 OFFCURVE",
"267 -15 CURVE SMOOTH"
);
},
{
closed = 1;
nodes = (
"138 3 OFFCURVE",
"65 95 OFFCURVE",
"65 258 CURVE SMOOTH",
"65 420 OFFCURVE",
"138 512 OFFCURVE",
"267 512 CURVE SMOOTH",
"396 512 OFFCURVE",
"469 420 OFFCURVE",
"469 258 CURVE SMOOTH",
"469 95 OFFCURVE",
"396 3 OFFCURVE",
"267 3 CURVE SMOOTH"
);
}
);
};
layerId = "0AB32919-C634-42BE-AC70-4A96502CEFC8";
paths = (
{
closed = 1;
nodes = (
"467 271 LINE SMOOTH",
"467 440 OFFCURVE",
"397 530 OFFCURVE",
"267 530 CURVE SMOOTH",
"127 530 OFFCURVE",
"45 434 OFFCURVE",
"45 255 CURVE SMOOTH",
"45 83 OFFCURVE",
"126 -15 OFFCURVE",
"266 -15 CURVE SMOOTH",
"369 -15 OFFCURVE",
"424 33 OFFCURVE",
"454 106 CURVE SMOOTH",
"461 123 LINE",
"441 123 LINE",
"435 109 LINE SMOOTH",
"408 46 OFFCURVE",
"357 3 OFFCURVE",
"266 3 CURVE SMOOTH",
"137 3 OFFCURVE",
"65 97 OFFCURVE",
"65 249 CURVE SMOOTH",
"65 262 LINE SMOOTH",
"65 419 OFFCURVE",
"137 512 OFFCURVE",
"267 512 CURVE SMOOTH",
"386 512 OFFCURVE",
"447 429 OFFCURVE",
"447 275 CURVE SMOOTH",
"447 269 LINE",
"454 282 LINE",
"60 282 LINE",
"60 264 LINE",
"467 264 LINE"
);
}
);
width = 503;
},
{
associatedMasterId = "0AB32919-C634-42BE-AC70-4A96502CEFC8";
background = {
paths = (
{
closed = 1;
nodes = (
"516 291 LINE SMOOTH",
"516 434 OFFCURVE",
"438 540 OFFCURVE",
"283 540 CURVE SMOOTH",
"132 540 OFFCURVE",
"35 437 OFFCURVE",
"35 258 CURVE SMOOTH",
"35 91 OFFCURVE",
"118 -15 OFFCURVE",
"281 -15 CURVE SMOOTH",
"431 -15 OFFCURVE",
"503 71 OFFCURVE",
"511 160 CURVE",
"380 160 LINE",
"368 120 OFFCURVE",
"335 101 OFFCURVE",
"284 101 CURVE SMOOTH",
"213 101 OFFCURVE",
"178 152 OFFCURVE",
"178 230 CURVE SMOOTH",
"178 308 LINE SMOOTH",
"178 376 OFFCURVE",
"211 429 OFFCURVE",
"283 429 CURVE SMOOTH",
"348 429 OFFCURVE",
"382 386 OFFCURVE",
"382 308 CURVE SMOOTH",
"382 286 LINE",
"399 316 LINE",
"173 316 LINE",
"173 225 LINE",
"516 225 LINE"
);
}
);
};
layerId = "7D1B4123-B594-43F5-B453-9AB9672B2EB5";
name = "Bold Universal Display Jul 24 16, 19:36";
paths = (
{
closed = 1;
nodes = (
"516 291 LINE SMOOTH",
"516 434 OFFCURVE",
"438 540 OFFCURVE",
"283 540 CURVE SMOOTH",
"132 540 OFFCURVE",
"35 437 OFFCURVE",
"35 258 CURVE SMOOTH",
"35 91 OFFCURVE",
"118 -15 OFFCURVE",
"281 -15 CURVE SMOOTH",
"431 -15 OFFCURVE",
"503 71 OFFCURVE",
"511 160 CURVE",
"380 160 LINE",
"368 120 OFFCURVE",
"335 101 OFFCURVE",
"284 101 CURVE SMOOTH",
"213 101 OFFCURVE",
"178 152 OFFCURVE",
"178 230 CURVE SMOOTH",
"178 308 LINE SMOOTH",
"178 376 OFFCURVE",
"211 429 OFFCURVE",
"283 429 CURVE SMOOTH",
"348 429 OFFCURVE",
"382 386 OFFCURVE",
"382 308 CURVE SMOOTH",
"382 286 LINE",
"399 316 LINE",
"173 316 LINE",
"173 225 LINE",
"516 225 LINE"
);
}
);
width = 548;
},
{
associatedMasterId = "0AB32919-C634-42BE-AC70-4A96502CEFC8";
background = {
paths = (
{
closed = 1;
nodes = (
"445 -13 OFFCURVE",
"548 94 OFFCURVE",
"548 264 CURVE SMOOTH",
"548 433 OFFCURVE",
"445 540 OFFCURVE",
"291 540 CURVE SMOOTH",
"137 540 OFFCURVE",
"34 433 OFFCURVE",
"34 264 CURVE SMOOTH",
"34 94 OFFCURVE",
"137 -13 OFFCURVE",
"291 -13 CURVE SMOOTH"
);
},
{
closed = 1;
nodes = (
"220 110 OFFCURVE",
"182 165 OFFCURVE",
"182 264 CURVE SMOOTH",
"182 362 OFFCURVE",
"220 417 OFFCURVE",
"291 417 CURVE SMOOTH",
"362 417 OFFCURVE",
"400 362 OFFCURVE",
"400 264 CURVE SMOOTH",
"400 165 OFFCURVE",
"362 110 OFFCURVE",
"291 110 CURVE SMOOTH"
);
}
);
};
layerId = "C40C52D1-5C93-461A-9715-D7178A11466E";
name = "Bold Universal Display Aug 3 16, 18:53";
paths = (
{
closed = 1;
nodes = (
"523 274 LINE SMOOTH",
"519 445 OFFCURVE",
"438 540 OFFCURVE",
"289 540 CURVE SMOOTH",
"138 540 OFFCURVE",
"40 437 OFFCURVE",
"40 258 CURVE SMOOTH",
"40 91 OFFCURVE",
"121 -15 OFFCURVE",
"288 -15 CURVE SMOOTH",
"408 -15 OFFCURVE",
"496 47 OFFCURVE",
"517 142 CURVE SMOOTH",
"521 160 LINE",
"380 160 LINE",
"376 149 LINE SMOOTH",
"365 118 OFFCURVE",
"338 100 OFFCURVE",
"289 100 CURVE SMOOTH",
"217 100 OFFCURVE",
"183 147 OFFCURVE",
"183 227 CURVE SMOOTH",
"183 308 LINE SMOOTH",
"183 376 OFFCURVE",
"216 429 OFFCURVE",
"292 429 CURVE SMOOTH",
"353 429 OFFCURVE",
"387 386 OFFCURVE",
"387 308 CURVE SMOOTH",
"387 286 LINE",
"404 316 LINE",
"178 316 LINE",
"178 225 LINE",
"524 225 LINE"
);
}
);
width = 555;
},
{
associatedMasterId = "0AB32919-C634-42BE-AC70-4A96502CEFC8";
background = {
paths = (
{
closed = 1;
nodes = (
"417 -13 OFFCURVE",
"496 48 OFFCURVE",
"518 167 CURVE SMOOTH",
"522 189 LINE",
"378 189 LINE",
"375 177 LINE SMOOTH",
"364 132 OFFCURVE",
"336 110 OFFCURVE",
"291 110 CURVE SMOOTH",
"223 110 OFFCURVE",
"188 165 OFFCURVE",
"188 264 CURVE SMOOTH",
"188 362 OFFCURVE",
"225 417 OFFCURVE",
"293 417 CURVE SMOOTH",
"340 417 OFFCURVE",
"366 392 OFFCURVE",
"375 344 CURVE SMOOTH",
"378 328 LINE",
"521 328 LINE",
"518 349 LINE SMOOTH",
"501 470 OFFCURVE",
"428 540 OFFCURVE",
"293 540 CURVE SMOOTH",
"142 540 OFFCURVE",
"40 433 OFFCURVE",
"40 264 CURVE SMOOTH",
"40 97 OFFCURVE",
"138 -13 OFFCURVE",
"287 -13 CURVE SMOOTH"
);
}
);
};
layerId = "200367AA-193D-457B-A92C-FDF5C959EBD5";
name = "Bold Universal Display Aug 4 16, 16:56";
paths = (
{
closed = 1;
nodes = (
"531 274 LINE SMOOTH",
"524 446 OFFCURVE",
"441 540 OFFCURVE",
"293 540 CURVE SMOOTH",
"143 540 OFFCURVE",
"40 434 OFFCURVE",
"40 258 CURVE SMOOTH",
"40 101 OFFCURVE",
"124 -13 OFFCURVE",
"294 -13 CURVE SMOOTH",
"408 -13 OFFCURVE",
"498 41 OFFCURVE",
"526 142 CURVE SMOOTH",
"531 160 LINE",
"387 160 LINE",
"383 149 LINE SMOOTH",
"370 114 OFFCURVE",
"337 100 OFFCURVE",
"295 100 CURVE SMOOTH",
"222 100 OFFCURVE",
"183 147 OFFCURVE",
"183 227 CURVE SMOOTH",
"183 308 LINE SMOOTH",
"183 376 OFFCURVE",
"222 429 OFFCURVE",
"293 429 CURVE SMOOTH",
"357 429 OFFCURVE",
"394 386 OFFCURVE",
"394 308 CURVE SMOOTH",
"394 286 LINE",
"411 316 LINE",
"178 316 LINE",
"178 225 LINE",
"533 225 LINE"
);
}
);
width = 560;
},
{
background = {
paths = (
{
closed = 1;
nodes = (
"573 283 LINE SMOOTH",
"573 450 OFFCURVE",
"478 550 OFFCURVE",
"302 550 CURVE SMOOTH",
"131 550 OFFCURVE",
"28 448 OFFCURVE",
"28 265 CURVE SMOOTH",
"28 94 OFFCURVE",
"119 -16 OFFCURVE",
"307 -16 CURVE SMOOTH",
"474 -16 OFFCURVE",
"540 61 OFFCURVE",
"565 164 CURVE SMOOTH",
"570 185 LINE",
"370 185 LINE",
"367 174 LINE SMOOTH",
"360 151 OFFCURVE",
"343 143 OFFCURVE",
"309 143 CURVE SMOOTH",
"261 143 OFFCURVE",
"235 169 OFFCURVE",
"235 216 CURVE SMOOTH",
"235 314 LINE SMOOTH",
"235 371 OFFCURVE",
"260 395 OFFCURVE",
"307 395 CURVE SMOOTH",
"350 395 OFFCURVE",
"370 368 OFFCURVE",
"370 316 CURVE SMOOTH",
"370 292 LINE",
"417 319 LINE",
"199 319 LINE",
"199 222 LINE",
"573 222 LINE"
);
}
);
};
layerId = "4208D53D-8B52-43BA-A51E-290EEDFDCE51";
paths = (
{
closed = 1;
nodes = (
"573 283 LINE SMOOTH",
"573 450 OFFCURVE",
"478 550 OFFCURVE",
"302 550 CURVE SMOOTH",
"131 550 OFFCURVE",
"28 448 OFFCURVE",
"28 265 CURVE SMOOTH",
"28 94 OFFCURVE",
"119 -16 OFFCURVE",
"307 -16 CURVE SMOOTH",
"474 -16 OFFCURVE",
"540 61 OFFCURVE",
"565 164 CURVE SMOOTH",
"570 185 LINE",
"370 185 LINE",
"367 174 LINE SMOOTH",
"360 151 OFFCURVE",
"343 143 OFFCURVE",
"309 143 CURVE SMOOTH",
"261 143 OFFCURVE",
"235 169 OFFCURVE",
"235 216 CURVE SMOOTH",
"235 316 LINE SMOOTH",
"235 370 OFFCURVE",
"260 395 OFFCURVE",
"307 395 CURVE SMOOTH",
"350 395 OFFCURVE",
"370 369 OFFCURVE",
"370 316 CURVE SMOOTH",
"370 292 LINE",
"417 319 LINE",
"199 319 LINE",
"199 222 LINE",
"573 222 LINE"
);
}
);
width = 601;
},
{
associatedMasterId = "0AB32919-C634-42BE-AC70-4A96502CEFC8";
background = {
paths = (
{
closed = 1;
nodes = (
"412 -15 OFFCURVE",
"494 84 OFFCURVE",
"494 258 CURVE SMOOTH",
"494 431 OFFCURVE",
"412 530 OFFCURVE",
"272 530 CURVE SMOOTH",
"132 530 OFFCURVE",
"50 431 OFFCURVE",
"50 258 CURVE SMOOTH",
"50 84 OFFCURVE",
"132 -15 OFFCURVE",
"272 -15 CURVE SMOOTH"
);
},
{
closed = 1;
nodes = (
"143 3 OFFCURVE",
"70 95 OFFCURVE",
"70 258 CURVE SMOOTH",
"70 420 OFFCURVE",
"143 512 OFFCURVE",
"272 512 CURVE SMOOTH",
"401 512 OFFCURVE",
"474 420 OFFCURVE",
"474 258 CURVE SMOOTH",
"474 95 OFFCURVE",
"401 3 OFFCURVE",
"272 3 CURVE SMOOTH"
);
}
);
};
layerId = "F5314639-0371-498C-B162-BEBBC4364528";
name = "May 23 17, 13:07";
paths = (
{
closed = 1;
nodes = (
"472 271 LINE SMOOTH",
"472 435 OFFCURVE",
"397 530 OFFCURVE",
"272 530 CURVE SMOOTH",
"134 530 OFFCURVE",
"50 419 OFFCURVE",
"50 255 CURVE SMOOTH",
"50 83 OFFCURVE",
"132 -15 OFFCURVE",
"271 -15 CURVE SMOOTH",
"370 -15 OFFCURVE",
"429 34 OFFCURVE",
"459 106 CURVE SMOOTH",
"466 123 LINE",
"446 123 LINE",
"440 109 LINE SMOOTH",
"413 45 OFFCURVE",
"358 3 OFFCURVE",
"271 3 CURVE SMOOTH",
"143 3 OFFCURVE",
"70 97 OFFCURVE",
"70 249 CURVE SMOOTH",
"70 262 LINE SMOOTH",
"70 387 OFFCURVE",
"130 512 OFFCURVE",
"272 512 CURVE SMOOTH",
"386 512 OFFCURVE",
"452 424 OFFCURVE",
"452 275 CURVE SMOOTH",
"452 269 LINE",
"459 282 LINE",
"65 282 LINE",
"65 264 LINE",
"472 264 LINE"
);
}
);
width = 520;
}
);
leftMetricsKey = "=o";
unicode = 0065;
},
{
color = 3;
glyphname = f;
lastChange = "2017-06-09 08:53:50 +0000";
layers = (
{
layerId = "0AB32919-C634-42BE-AC70-4A96502CEFC8";
paths = (
{
closed = 1;
nodes = (
"136 0 LINE",
"136 585 LINE SMOOTH",
"136 661 OFFCURVE",
"174 702 OFFCURVE",
"245 702 CURVE SMOOTH",
"264 702 OFFCURVE",
"280 700 OFFCURVE",
"297 696 CURVE",
"297 713 LINE",
"280 718 OFFCURVE",
"262 720 OFFCURVE",
"245 720 CURVE SMOOTH",
"162 720 OFFCURVE",
"118 673 OFFCURVE",
"118 586 CURVE SMOOTH",
"118 0 LINE"
);
},
{
closed = 1;
nodes = (
"288 498 LINE",
"288 515 LINE",
"23 515 LINE",
"23 498 LINE"
);
}
);
width = 316;
},
{
background = {
paths = (
{
closed = 1;
nodes = (
"302 0 LINE",
"302 543 LINE SMOOTH",
"302 576 OFFCURVE",
"323 592 OFFCURVE",
"362 592 CURVE SMOOTH",
"373 592 OFFCURVE",
"385 591 OFFCURVE",
"398 589 CURVE",
"398 754 LINE",
"377 762 OFFCURVE",
"334 767 OFFCURVE",
"290 767 CURVE SMOOTH",
"156 767 OFFCURVE",
"87 705 OFFCURVE",
"87 575 CURVE SMOOTH",
"87 0 LINE"
);
},
{
closed = 1;
nodes = (
"394 343 LINE",
"394 510 LINE",
"10 510 LINE",
"10 343 LINE"
);
}
);
};
layerId = "4208D53D-8B52-43BA-A51E-290EEDFDCE51";
paths = (
{
closed = 1;
nodes = (
"302 0 LINE",
"302 536 LINE SMOOTH",
"302 569 OFFCURVE",
"323 585 OFFCURVE",
"362 585 CURVE SMOOTH",
"373 585 OFFCURVE",
"385 584 OFFCURVE",
"398 582 CURVE",
"398 734 LINE",
"377 741 OFFCURVE",
"334 747 OFFCURVE",
"290 747 CURVE SMOOTH",
"156 747 OFFCURVE",
"87 690 OFFCURVE",
"87 568 CURVE SMOOTH",
"87 0 LINE"
);
},
{
closed = 1;
nodes = (
"394 343 LINE",
"394 510 LINE",
"10 510 LINE",
"10 343 LINE"
);
}
);
width = 408;
}
);
unicode = 0066;
},
{
color = 3;
glyphname = g;
lastChange = "2017-06-09 12:56:28 +0000";
layers = (
{
background = {
paths = (
{
closed = 0;
nodes = (
"461 720 LINE"
);
},
{
closed = 0;
nodes = (
"479 720 LINE"
);
},
{
closed = 0;
nodes = (
"461 720 LINE"
);
},
{
closed = 0;
nodes = (
"479 720 LINE"
);
},
{
closed = 1;
nodes = (
"461 388 LINE",
"430 486 OFFCURVE",
"355 531 OFFCURVE",
"267 531 CURVE SMOOTH",
"126 531 OFFCURVE",
"45 432 OFFCURVE",
"45 268 CURVE SMOOTH",
"45 104 OFFCURVE",
"126 5 OFFCURVE",
"267 5 CURVE SMOOTH",
"355 5 OFFCURVE",
"430 50 OFFCURVE",
"461 148 CURVE",
"461 54 LINE SMOOTH",
"461 -93 OFFCURVE",
"418 -171 OFFCURVE",
"273 -171 CURVE SMOOTH",
"169 -171 OFFCURVE",
"119 -134 OFFCURVE",
"90 -66 CURVE SMOOTH",
"84 -52 LINE",
"64 -52 LINE",
"72 -71 LINE SMOOTH",
"101 -140 OFFCURVE",
"156 -189 OFFCURVE",
"273 -189 CURVE SMOOTH",
"428 -189 OFFCURVE",
"479 -104 OFFCURVE",
"479 52 CURVE SMOOTH",
"479 515 LINE",
"463 515 LINE"
);
},
{
closed = 1;
nodes = (
"137 23 OFFCURVE",
"65 114 OFFCURVE",
"65 268 CURVE SMOOTH",
"65 422 OFFCURVE",
"137 513 OFFCURVE",
"267 513 CURVE SMOOTH",
"376 513 OFFCURVE",
"461 443 OFFCURVE",
"461 278 CURVE SMOOTH",
"461 258 LINE SMOOTH",
"461 93 OFFCURVE",
"376 23 OFFCURVE",
"267 23 CURVE SMOOTH"
);
}
);
};
guideLines = (
{
angle = 270;
position = "{45, -135}";
},
{
angle = -66.8014;
position = "{64, -62}";
}
);
layerId = "0AB32919-C634-42BE-AC70-4A96502CEFC8";
paths = (
{
closed = 1;
nodes = (
"428 -189 OFFCURVE",
"479 -104 OFFCURVE",
"479 52 CURVE SMOOTH",
"479 515 LINE",
"463 515 LINE",
"462 370 LINE",
"466 370 LINE",
"439 480 OFFCURVE",
"360 531 OFFCURVE",
"267 531 CURVE SMOOTH",
"126 531 OFFCURVE",
"45 432 OFFCURVE",
"45 268 CURVE SMOOTH",
"45 104 OFFCURVE",
"126 5 OFFCURVE",
"267 5 CURVE SMOOTH",
"360 5 OFFCURVE",
"439 55 OFFCURVE",
"466 166 CURVE",
"461 166 LINE",
"461 54 LINE SMOOTH",
"461 -93 OFFCURVE",
"418 -171 OFFCURVE",
"273 -171 CURVE SMOOTH",
"169 -171 OFFCURVE",
"119 -134 OFFCURVE",
"90 -66 CURVE SMOOTH",
"84 -52 LINE",
"64 -52 LINE",
"72 -71 LINE SMOOTH",
"101 -140 OFFCURVE",
"156 -189 OFFCURVE",
"273 -189 CURVE SMOOTH"
);
},
{
closed = 1;
nodes = (
"137 23 OFFCURVE",
"65 114 OFFCURVE",
"65 268 CURVE SMOOTH",
"65 422 OFFCURVE",
"137 513 OFFCURVE",
"267 513 CURVE SMOOTH",
"376 513 OFFCURVE",
"461 443 OFFCURVE",
"461 278 CURVE SMOOTH",
"461 258 LINE SMOOTH",
"461 93 OFFCURVE",
"376 23 OFFCURVE",
"267 23 CURVE SMOOTH"
);
}
);
width = 564;
},
{
background = {
paths = (
{
closed = 1;
nodes = (
"502 -199 OFFCURVE",
"612 -119 OFFCURVE",
"612 35 CURVE SMOOTH",
"612 535 LINE",
"426 535 LINE",
"393 363 LINE",
"397 351 LINE",
"397 10 LINE SMOOTH",
"397 -43 OFFCURVE",
"376 -63 OFFCURVE",
"323 -63 CURVE SMOOTH",
"279 -63 OFFCURVE",
"261 -51 OFFCURVE",
"253 -28 CURVE SMOOTH",
"249 -16 LINE",
"52 -16 LINE",
"59 -40 LINE SMOOTH",
"92 -152 OFFCURVE",
"181 -199 OFFCURVE",
"329 -199 CURVE SMOOTH"
);
},
{
closed = 1;
nodes = (
"28 127 OFFCURVE",
"112 18 OFFCURVE",
"240 18 CURVE SMOOTH",
"340 18 OFFCURVE",
"406 88 OFFCURVE",
"409 197 CURVE",
"397 265 LINE",
"397 226 OFFCURVE",
"373 186 OFFCURVE",
"321 186 CURVE SMOOTH",
"273 186 OFFCURVE",
"244 223 OFFCURVE",
"244 284 CURVE SMOOTH",
"244 345 OFFCURVE",
"273 382 OFFCURVE",
"321 382 CURVE SMOOTH",
"373 382 OFFCURVE",
"397 342 OFFCURVE",
"397 303 CURVE",
"420 371 LINE",
"417 478 OFFCURVE",
"348 550 OFFCURVE",
"240 550 CURVE SMOOTH",
"112 550 OFFCURVE",
"28 441 OFFCURVE",
"28 284 CURVE SMOOTH"
);
}
);
};
guideLines = (
{
angle = -71.565;
position = "{249, -16}";
}
);
layerId = "4208D53D-8B52-43BA-A51E-290EEDFDCE51";
paths = (
{
closed = 1;
nodes = (
"502 -199 OFFCURVE",
"612 -119 OFFCURVE",
"612 35 CURVE SMOOTH",
"612 535 LINE",
"426 535 LINE",
"400 399 LINE",
"416 409 LINE",
"399 494 OFFCURVE",
"336 550 OFFCURVE",
"240 550 CURVE SMOOTH",
"111 550 OFFCURVE",
"28 441 OFFCURVE",
"28 284 CURVE SMOOTH",
"28 127 OFFCURVE",
"112 18 OFFCURVE",
"240 18 CURVE SMOOTH",
"328 18 OFFCURVE",
"389 71 OFFCURVE",
"405 159 CURVE",
"397 173 LINE",
"397 10 LINE SMOOTH",
"397 -43 OFFCURVE",
"376 -63 OFFCURVE",
"323 -63 CURVE SMOOTH",
"279 -63 OFFCURVE",
"261 -51 OFFCURVE",
"253 -28 CURVE SMOOTH",
"249 -16 LINE",
"52 -16 LINE",
"59 -40 LINE SMOOTH",
"92 -152 OFFCURVE",
"181 -199 OFFCURVE",
"329 -199 CURVE SMOOTH"
);
},
{
closed = 1;
nodes = (
"273 186 OFFCURVE",
"244 223 OFFCURVE",
"244 284 CURVE SMOOTH",
"244 345 OFFCURVE",
"273 382 OFFCURVE",
"321 382 CURVE SMOOTH",
"373 382 OFFCURVE",
"397 342 OFFCURVE",
"397 303 CURVE SMOOTH",
"397 265 LINE SMOOTH",
"397 226 OFFCURVE",
"373 186 OFFCURVE",
"321 186 CURVE SMOOTH"
);
}
);
width = 656;
},
{
associatedMasterId = "4208D53D-8B52-43BA-A51E-290EEDFDCE51";
background = {
paths = (
{
closed = 1;
nodes = (
"501 -199 OFFCURVE",
"612 -113 OFFCURVE",
"612 19 CURVE SMOOTH",
"612 535 LINE",
"426 535 LINE",
"393 363 LINE",
"397 351 LINE",
"397 29 LINE SMOOTH",
"397 -31 OFFCURVE",
"370 -63 OFFCURVE",
"321 -63 CURVE SMOOTH",
"284 -63 OFFCURVE",
"263 -57 OFFCURVE",
"254 -31 CURVE SMOOTH",
"249 -16 LINE",
"52 -16 LINE",
"59 -40 LINE SMOOTH",
"92 -152 OFFCURVE",
"184 -199 OFFCURVE",
"322 -199 CURVE SMOOTH"
);
},
{
closed = 1;
nodes = (
"28 127 OFFCURVE",
"112 18 OFFCURVE",
"240 18 CURVE SMOOTH",
"340 18 OFFCURVE",
"406 88 OFFCURVE",
"409 197 CURVE",
"397 265 LINE",
"397 226 OFFCURVE",
"373 186 OFFCURVE",
"321 186 CURVE SMOOTH",
"273 186 OFFCURVE",
"244 223 OFFCURVE",
"244 284 CURVE SMOOTH",
"244 345 OFFCURVE",
"273 382 OFFCURVE",
"321 382 CURVE SMOOTH",
"373 382 OFFCURVE",
"397 342 OFFCURVE",
"397 303 CURVE",
"420 371 LINE",
"417 478 OFFCURVE",
"348 550 OFFCURVE",
"240 550 CURVE SMOOTH",
"112 550 OFFCURVE",
"28 441 OFFCURVE",
"28 284 CURVE SMOOTH"
);
}
);
};
guideLines = (
{
angle = -71.565;
position = "{249, -16}";
}
);
layerId = "ABD758E6-A0CA-4AD0-B978-F1D2B9A94C95";
name = "Jun 9 17, 14:29";
paths = (
{
closed = 1;
nodes = (
"502 -199 OFFCURVE",
"612 -119 OFFCURVE",
"612 35 CURVE SMOOTH",
"612 535 LINE",
"426 535 LINE",
"393 363 LINE",
"397 351 LINE",
"397 10 LINE SMOOTH",
"397 -43 OFFCURVE",
"376 -63 OFFCURVE",
"323 -63 CURVE SMOOTH",
"279 -63 OFFCURVE",
"261 -51 OFFCURVE",
"253 -28 CURVE SMOOTH",
"249 -16 LINE",
"52 -16 LINE",
"59 -40 LINE SMOOTH",
"92 -152 OFFCURVE",
"181 -199 OFFCURVE",
"329 -199 CURVE SMOOTH"
);
},
{
closed = 1;
nodes = (
"28 127 OFFCURVE",
"112 18 OFFCURVE",
"240 18 CURVE SMOOTH",
"340 18 OFFCURVE",
"406 88 OFFCURVE",
"409 197 CURVE",
"397 265 LINE",
"397 226 OFFCURVE",
"373 186 OFFCURVE",
"321 186 CURVE SMOOTH",
"273 186 OFFCURVE",
"244 223 OFFCURVE",
"244 284 CURVE SMOOTH",
"244 345 OFFCURVE",
"273 382 OFFCURVE",
"321 382 CURVE SMOOTH",
"373 382 OFFCURVE",
"397 342 OFFCURVE",
"397 303 CURVE",
"420 371 LINE",
"417 478 OFFCURVE",
"348 550 OFFCURVE",
"240 550 CURVE SMOOTH",
"112 550 OFFCURVE",
"28 441 OFFCURVE",
"28 284 CURVE SMOOTH"
);
}
);
width = 656;
}
);
leftMetricsKey = "=o";
rightMetricsKey = "=|n";
unicode = 0067;
},
{
color = 3;
glyphname = h;
lastChange = "2017-06-09 08:53:50 +0000";
layers = (
{
background = {
paths = (
{
closed = 1;
nodes = (
"103 0 LINE",
"103 720 LINE",
"85 720 LINE",
"85 0 LINE"
);
},
{
closed = 1;
nodes = (
"461 0 LINE",
"461 367 LINE SMOOTH",
"461 470 OFFCURVE",
"403 530 OFFCURVE",
"303 530 CURVE SMOOTH",
"185 530 OFFCURVE",
"100 440 OFFCURVE",
"94 334 CURVE",
"103 310 LINE",
"110 418 OFFCURVE",
"185 512 OFFCURVE",
"302 512 CURVE SMOOTH",
"388 512 OFFCURVE",
"443 460 OFFCURVE",
"443 366 CURVE SMOOTH",
"443 0 LINE"
);
}
);
};
layerId = "0AB32919-C634-42BE-AC70-4A96502CEFC8";
paths = (
{
closed = 1;
nodes = (
"461 0 LINE",
"461 367 LINE SMOOTH",
"461 470 OFFCURVE",
"403 530 OFFCURVE",
"303 530 CURVE SMOOTH",
"185 530 OFFCURVE",
"100 440 OFFCURVE",
"94 334 CURVE",
"103 310 LINE",
"110 418 OFFCURVE",
"185 512 OFFCURVE",
"302 512 CURVE SMOOTH",
"388 512 OFFCURVE",
"443 460 OFFCURVE",
"443 366 CURVE SMOOTH",
"443 0 LINE"
);
},
{
closed = 1;
nodes = (
"103 0 LINE",
"103 720 LINE",
"85 720 LINE",
"85 0 LINE"
);
}
);
width = 535;
},
{
background = {
paths = (
{
closed = 1;
nodes = (
"526 0 LINE",
"526 370 LINE SMOOTH",
"526 471 OFFCURVE",
"462 540 OFFCURVE",
"365 540 CURVE SMOOTH",
"271 540 OFFCURVE",
"209 482 OFFCURVE",
"191 380 CURVE",
"205 314 LINE",
"205 369 OFFCURVE",
"245 408 OFFCURVE",
"304 408 CURVE SMOOTH",
"357 408 OFFCURVE",
"386 375 OFFCURVE",
"386 320 CURVE SMOOTH",
"386 0 LINE"
);
},
{
closed = 1;
nodes = (
"205 0 LINE",
"205 720 LINE",
"65 720 LINE",
"65 0 LINE"
);
}
);
};
layerId = "4208D53D-8B52-43BA-A51E-290EEDFDCE51";
paths = (
{
closed = 1;
nodes = (
"591 0 LINE",
"591 366 LINE SMOOTH",
"591 475 OFFCURVE",
"525 550 OFFCURVE",
"423 550 CURVE SMOOTH",
"326 550 OFFCURVE",
"265 497 OFFCURVE",
"244 392 CURVE",
"259 281 LINE",
"259 331 OFFCURVE",
"279 358 OFFCURVE",
"322 358 CURVE SMOOTH",
"358 358 OFFCURVE",
"376 334 OFFCURVE",
"376 285 CURVE SMOOTH",
"376 0 LINE"
);
},
{
closed = 1;
nodes = (
"259 0 LINE",
"259 730 LINE",
"44 730 LINE",
"44 0 LINE"
);
}
);
width = 628;
}
);
leftMetricsKey = "=n";
rightMetricsKey = "=n";
unicode = 0068;
},
{
color = 3;
glyphname = i;
lastChange = "2017-06-09 11:58:36 +0000";
layers = (
{
background = {
paths = (
{
closed = 1;
nodes = (
"109 0 LINE",
"109 515 LINE",
"91 515 LINE",
"91 0 LINE"
);
},
{
closed = 1;
nodes = (
"112 637 OFFCURVE",
"120 645 OFFCURVE",
"120 657 CURVE SMOOTH",
"120 668 OFFCURVE",
"112 676 OFFCURVE",
"100 676 CURVE SMOOTH",
"88 676 OFFCURVE",
"80 668 OFFCURVE",
"80 657 CURVE SMOOTH",
"80 645 OFFCURVE",
"88 637 OFFCURVE",
"100 637 CURVE SMOOTH"
);
}
);
};
layerId = "0AB32919-C634-42BE-AC70-4A96502CEFC8";
paths = (
{
closed = 1;
nodes = (
"109 0 LINE",
"109 515 LINE",
"91 515 LINE",
"91 0 LINE"
);
},
{
closed = 1;
nodes = (
"113 636 OFFCURVE",
"121 644 OFFCURVE",
"121 657 CURVE SMOOTH",
"121 669 OFFCURVE",
"113 677 OFFCURVE",
"100 677 CURVE SMOOTH",
"87 677 OFFCURVE",
"79 669 OFFCURVE",
"79 657 CURVE SMOOTH",
"79 644 OFFCURVE",
"87 636 OFFCURVE",
"100 636 CURVE SMOOTH"
);
}
);
width = 200;
},
{
background = {
paths = (
{
closed = 1;
nodes = (
"259 0 LINE",
"259 535 LINE",
"44 535 LINE",
"44 0 LINE"
);
},
{
closed = 1;
nodes = (
"222 587 OFFCURVE",
"267 629 OFFCURVE",
"267 694 CURVE SMOOTH",
"267 759 OFFCURVE",
"222 801 OFFCURVE",
"152 801 CURVE SMOOTH",
"82 801 OFFCURVE",
"37 759 OFFCURVE",
"37 694 CURVE SMOOTH",
"37 629 OFFCURVE",
"82 587 OFFCURVE",
"152 587 CURVE SMOOTH"
);
}
);
};
layerId = "4208D53D-8B52-43BA-A51E-290EEDFDCE51";
paths = (
{
closed = 1;
nodes = (
"259 0 LINE",
"259 535 LINE",
"44 535 LINE",
"44 0 LINE"
);
},
{
closed = 1;
nodes = (
"221 580 OFFCURVE",
"265 620 OFFCURVE",
"265 683 CURVE SMOOTH",
"265 746 OFFCURVE",
"221 786 OFFCURVE",
"152 786 CURVE SMOOTH",
"83 786 OFFCURVE",
"39 746 OFFCURVE",
"39 683 CURVE SMOOTH",
"39 620 OFFCURVE",
"83 580 OFFCURVE",
"152 580 CURVE SMOOTH"
);
}
);
width = 302;
}
);
unicode = 0069;
},
{
color = 3;
glyphname = j;
lastChange = "2017-06-09 11:58:44 +0000";
layers = (
{
background = {
paths = (
{
closed = 1;
nodes = (
"113 636 OFFCURVE",
"121 644 OFFCURVE",
"121 657 CURVE SMOOTH",
"121 669 OFFCURVE",
"113 677 OFFCURVE",
"100 677 CURVE SMOOTH",
"87 677 OFFCURVE",
"79 669 OFFCURVE",
"79 657 CURVE SMOOTH",
"79 644 OFFCURVE",
"87 636 OFFCURVE",
"100 636 CURVE SMOOTH"
);
},
{
closed = 1;
nodes = (
"-53 -189 LINE",
"-37 -195 OFFCURVE",
"-15 -199 OFFCURVE",
"8 -199 CURVE SMOOTH",
"65 -199 OFFCURVE",
"109 -159 OFFCURVE",
"109 -79 CURVE SMOOTH",
"109 515 LINE",
"91 515 LINE",
"91 -77 LINE SMOOTH",
"91 -147 OFFCURVE",
"53 -181 OFFCURVE",
"8 -181 CURVE SMOOTH",
"-17 -181 OFFCURVE",
"-38 -177 OFFCURVE",
"-53 -172 CURVE"
);
}
);
};
layerId = "0AB32919-C634-42BE-AC70-4A96502CEFC8";
paths = (
{
closed = 1;
nodes = (
"67 -199 OFFCURVE",
"109 -170 OFFCURVE",
"109 -84 CURVE SMOOTH",
"109 515 LINE",
"91 515 LINE",
"91 -82 LINE SMOOTH",
"91 -157 OFFCURVE",
"59 -181 OFFCURVE",
"6 -181 CURVE SMOOTH",
"-15 -181 OFFCURVE",
"-38 -177 OFFCURVE",
"-53 -172 CURVE",
"-53 -189 LINE",
"-37 -195 OFFCURVE",
"-15 -199 OFFCURVE",
"8 -199 CURVE SMOOTH"
);
},
{
closed = 1;
nodes = (
"113 636 OFFCURVE",
"121 644 OFFCURVE",
"121 657 CURVE SMOOTH",
"121 669 OFFCURVE",
"113 677 OFFCURVE",
"100 677 CURVE SMOOTH",
"87 677 OFFCURVE",
"79 669 OFFCURVE",
"79 657 CURVE SMOOTH",
"79 644 OFFCURVE",
"87 636 OFFCURVE",
"100 636 CURVE SMOOTH"
);
}
);
width = 200;
},
{
background = {
paths = (
{
closed = 1;
nodes = (
"259 0 LINE",
"259 535 LINE",
"44 535 LINE",
"44 0 LINE"
);
},
{
closed = 1;
nodes = (
"265 746 OFFCURVE",
"221 786 OFFCURVE",
"152 786 CURVE SMOOTH",
"83 786 OFFCURVE",
"39 746 OFFCURVE",
"39 683 CURVE SMOOTH",
"39 620 OFFCURVE",
"83 580 OFFCURVE",
"152 580 CURVE SMOOTH",
"221 580 OFFCURVE",
"265 620 OFFCURVE",
"265 683 CURVE SMOOTH"
);
}
);
};
layerId = "4208D53D-8B52-43BA-A51E-290EEDFDCE51";
paths = (
{
closed = 1;
nodes = (
"190 -199 OFFCURVE",
"259 -142 OFFCURVE",
"259 -20 CURVE SMOOTH",
"259 535 LINE",
"44 535 LINE",
"44 3 LINE SMOOTH",
"44 -23 OFFCURVE",
"34 -37 OFFCURVE",
"9 -37 CURVE SMOOTH",
"-13 -37 OFFCURVE",
"-29 -33 OFFCURVE",
"-52 -27 CURVE",
"-52 -179 LINE",
"-31 -187 OFFCURVE",
"18 -199 OFFCURVE",
"70 -199 CURVE SMOOTH"
);
},
{
closed = 1;
nodes = (
"221 580 OFFCURVE",
"265 620 OFFCURVE",
"265 683 CURVE SMOOTH",
"265 746 OFFCURVE",
"221 786 OFFCURVE",
"152 786 CURVE SMOOTH",
"83 786 OFFCURVE",
"39 746 OFFCURVE",
"39 683 CURVE SMOOTH",
"39 620 OFFCURVE",
"83 580 OFFCURVE",
"152 580 CURVE SMOOTH"
);
}
);
width = 302;
}
);
unicode = 006A;
},
{
color = 3;
glyphname = k;
lastChange = "2017-06-09 08:53:50 +0000";
layers = (
{
background = {
paths = (
{
closed = 1;
nodes = (
"103 0 LINE",
"103 262 LINE",
"101 262 LINE",
"413 0 LINE",
"442 0 LINE",
"119 271 LINE",
"119 258 LINE",
"440 515 LINE",
"411 515 LINE",
"101 266 LINE",
"103 266 LINE",
"103 720 LINE",
"85 720 LINE",
"85 0 LINE"
);
}
);
};
guideLines = (
{
angle = 90;
position = "{478, 295}";
}
);
layerId = "0AB32919-C634-42BE-AC70-4A96502CEFC8";
paths = (
{
closed = 1;
nodes = (
"442 0 LINE",
"119 271 LINE",
"119 258 LINE",
"440 515 LINE",
"411 515 LINE",
"99 264 LINE",
"413 0 LINE"
);
},
{
closed = 1;
nodes = (
"103 0 LINE",
"103 720 LINE",
"85 720 LINE",
"85 0 LINE"
);
}
);
width = 467;
},
{
background = {
paths = (
{
closed = 1;
nodes = (
"259 0 LINE",
"259 277 LINE",
"251 277 LINE",
"403 0 LINE",
"641 0 LINE",
"469 287 LINE",
"469 274 LINE",
"635 535 LINE",
"397 535 LINE",
"251 281 LINE",
"259 281 LINE",
"259 720 LINE",
"44 720 LINE",
"44 0 LINE"
);
}
);
};
layerId = "4208D53D-8B52-43BA-A51E-290EEDFDCE51";
paths = (
{
closed = 1;
nodes = (
"641 0 LINE",
"469 287 LINE",
"469 274 LINE",
"635 535 LINE",
"397 535 LINE",
"250 279 LINE",
"403 0 LINE"
);
},
{
closed = 1;
nodes = (
"259 0 LINE",
"259 730 LINE",
"44 730 LINE",
"44 0 LINE"
);
}
);
width = 638;
}
);
leftMetricsKey = "=n";
unicode = 006B;
},
{
color = 3;
glyphname = l;
lastChange = "2017-06-09 08:53:50 +0000";
layers = (
{
layerId = "0AB32919-C634-42BE-AC70-4A96502CEFC8";
paths = (
{
closed = 1;
nodes = (
"103 0 LINE",
"103 720 LINE",
"85 720 LINE",
"85 0 LINE"
);
}
);
width = 188;
},
{
layerId = "4208D53D-8B52-43BA-A51E-290EEDFDCE51";
paths = (
{
closed = 1;
nodes = (
"259 0 LINE",
"259 730 LINE",
"44 730 LINE",
"44 0 LINE"
);
}
);
width = 303;
}
);
leftMetricsKey = "=n";
rightMetricsKey = "=|n";
unicode = 006C;
},
{
color = 3;
glyphname = m;
lastChange = "2017-06-09 10:51:13 +0000";
layers = (
{
background = {
paths = (
{
closed = 1;
nodes = (
"787 0 LINE",
"787 367 LINE SMOOTH",
"787 470 OFFCURVE",
"732 530 OFFCURVE",
"637 530 CURVE SMOOTH",
"519 530 OFFCURVE",
"435 441 OFFCURVE",
"435 334 CURVE",
"445 310 LINE",
"443 418 OFFCURVE",
"519 512 OFFCURVE",
"636 512 CURVE SMOOTH",
"717 512 OFFCURVE",
"769 460 OFFCURVE",
"769 366 CURVE SMOOTH",
"769 0 LINE"
);
},
{
closed = 1;
nodes = (
"103 0 LINE",
"103 359 LINE",
"101 515 LINE",
"85 515 LINE",
"85 0 LINE"
);
},
{
closed = 1;
nodes = (
"445 0 LINE",
"445 357 LINE",
"443 367 LINE",
"443 470 OFFCURVE",
"389 530 OFFCURVE",
"295 530 CURVE SMOOTH",
"177 530 OFFCURVE",
"100 440 OFFCURVE",
"94 334 CURVE",
"103 310 LINE",
"110 418 OFFCURVE",
"177 512 OFFCURVE",
"294 512 CURVE SMOOTH",
"375 512 OFFCURVE",
"427 460 OFFCURVE",
"427 366 CURVE SMOOTH",
"427 0 LINE"
);
}
);
};
layerId = "0AB32919-C634-42BE-AC70-4A96502CEFC8";
paths = (
{
closed = 1;
nodes = (
"103 0 LINE",
"103 282 LINE SMOOTH",
"103 419 OFFCURVE",
"177 512 OFFCURVE",
"293 512 CURVE SMOOTH",
"375 512 OFFCURVE",
"427 460 OFFCURVE",
"427 366 CURVE SMOOTH",
"427 0 LINE",
"445 0 LINE",
"445 299 LINE SMOOTH",
"445 426 OFFCURVE",
"519 512 OFFCURVE",
"635 512 CURVE SMOOTH",
"717 512 OFFCURVE",
"769 460 OFFCURVE",
"769 366 CURVE SMOOTH",
"769 0 LINE",
"787 0 LINE",
"787 367 LINE SMOOTH",
"787 467 OFFCURVE",
"736 530 OFFCURVE",
"635 530 CURVE SMOOTH",
"534 530 OFFCURVE",
"455 466 OFFCURVE",
"438 368 CURVE",
"443 367 LINE",
"443 470 OFFCURVE",
"389 530 OFFCURVE",
"293 530 CURVE SMOOTH",
"190 530 OFFCURVE",
"113 459 OFFCURVE",
"96 351 CURVE",
"103 359 LINE",
"101 515 LINE",
"85 515 LINE",
"85 0 LINE"
);
}
);
width = 861;
},
{
background = {
paths = (
{
closed = 1;
nodes = (
"571 0 LINE",
"571 366 LINE SMOOTH",
"571 475 OFFCURVE",
"521 550 OFFCURVE",
"412 550 CURVE SMOOTH",
"311 550 OFFCURVE",
"253 497 OFFCURVE",
"231 394 CURVE",
"259 281 LINE",
"259 334 OFFCURVE",
"275 358 OFFCURVE",
"310 358 CURVE SMOOTH",
"343 358 OFFCURVE",
"356 337 OFFCURVE",
"356 290 CURVE SMOOTH",
"356 0 LINE"
);
},
{
closed = 1;
nodes = (
"259 0 LINE",
"259 355 LINE",
"245 404 LINE",
"215 535 LINE",
"44 535 LINE",
"44 0 LINE"
);
},
{
closed = 1;
nodes = (
"883 0 LINE",
"883 366 LINE SMOOTH",
"883 475 OFFCURVE",
"833 550 OFFCURVE",
"724 550 CURVE SMOOTH",
"622 550 OFFCURVE",
"571 497 OFFCURVE",
"550 392 CURVE",
"571 281 LINE",
"571 334 OFFCURVE",
"587 358 OFFCURVE",
"622 358 CURVE SMOOTH",
"655 358 OFFCURVE",
"668 337 OFFCURVE",
"668 290 CURVE SMOOTH",
"668 0 LINE"
);
}
);
};
layerId = "4208D53D-8B52-43BA-A51E-290EEDFDCE51";
paths = (
{
closed = 1;
nodes = (
"259 0 LINE",
"259 281 LINE SMOOTH",
"259 334 OFFCURVE",
"275 358 OFFCURVE",
"310 358 CURVE SMOOTH",
"343 358 OFFCURVE",
"356 337 OFFCURVE",
"356 290 CURVE SMOOTH",
"356 0 LINE",
"571 0 LINE",
"571 281 LINE SMOOTH",
"571 334 OFFCURVE",
"587 358 OFFCURVE",
"622 358 CURVE SMOOTH",
"655 358 OFFCURVE",
"668 337 OFFCURVE",
"668 290 CURVE SMOOTH",
"668 0 LINE",
"883 0 LINE",
"883 366 LINE SMOOTH",
"883 475 OFFCURVE",
"833 550 OFFCURVE",
"724 550 CURVE SMOOTH",
"627 550 OFFCURVE",
"576 501 OFFCURVE",
"553 405 CURVE",
"568 406 LINE",
"558 493 OFFCURVE",
"507 550 OFFCURVE",
"412 550 CURVE SMOOTH",
"310 550 OFFCURVE",
"253 496 OFFCURVE",
"231 393 CURVE",
"250 383 LINE",
"215 535 LINE",
"44 535 LINE",
"44 0 LINE"
);
}
);
width = 920;
}
);
leftMetricsKey = "=n";
rightMetricsKey = "=n";
unicode = 006D;
},
{
color = 3;
glyphname = n;
lastChange = "2017-06-09 13:13:55 +0000";
layers = (
{
background = {
paths = (
{
closed = 1;
nodes = (
"103 0 LINE",
"103 282 LINE SMOOTH",
"103 419 OFFCURVE",
"181 512 OFFCURVE",
"299 512 CURVE SMOOTH",
"391 512 OFFCURVE",
"444 460 OFFCURVE",
"444 360 CURVE SMOOTH",
"444 0 LINE",
"462 0 LINE",
"462 361 LINE SMOOTH",
"462 470 OFFCURVE",
"406 530 OFFCURVE",
"299 530 CURVE SMOOTH",
"194 530 OFFCURVE",
"114 460 OFFCURVE",
"97 352 CURVE",
"103 359 LINE",
"101 515 LINE",
"85 515 LINE",
"85 0 LINE"
);
}
);
};
layerId = "0AB32919-C634-42BE-AC70-4A96502CEFC8";
paths = (
{
closed = 1;
nodes = (
"103 0 LINE",
"103 282 LINE SMOOTH",
"103 419 OFFCURVE",
"181 512 OFFCURVE",
"299 512 CURVE SMOOTH",
"391 512 OFFCURVE",
"444 460 OFFCURVE",
"444 360 CURVE SMOOTH",
"444 0 LINE",
"462 0 LINE",
"462 361 LINE SMOOTH",
"462 470 OFFCURVE",
"406 530 OFFCURVE",
"299 530 CURVE SMOOTH",
"194 530 OFFCURVE",
"114 460 OFFCURVE",
"97 352 CURVE",
"103 359 LINE",
"101 515 LINE",
"85 515 LINE",
"85 0 LINE"
);
}
);
width = 536;
},
{
associatedMasterId = "0AB32919-C634-42BE-AC70-4A96502CEFC8";
background = {
paths = (
{
closed = 1;
nodes = (
"516 0 LINE",
"516 370 LINE SMOOTH",
"516 468 OFFCURVE",
"450 540 OFFCURVE",
"359 540 CURVE SMOOTH",
"269 540 OFFCURVE",
"202 498 OFFCURVE",
"181 380 CURVE",
"195 343 LINE",
"217 386 OFFCURVE",
"254 408 OFFCURVE",
"304 408 CURVE SMOOTH",
"350 408 OFFCURVE",
"376 377 OFFCURVE",
"376 325 CURVE SMOOTH",
"376 0 LINE"
);
},
{
closed = 1;
nodes = (
"195 0 LINE",
"195 525 LINE",
"55 525 LINE",
"55 0 LINE"
);
}
);
};
layerId = "72194126-8E3B-41E8-8BB7-F9C4AD8F3656";
name = "Bold Universal Display Jul 22 16, 07:20";
paths = (
{
closed = 1;
nodes = (
"516 0 LINE",
"516 370 LINE SMOOTH",
"516 468 OFFCURVE",
"450 540 OFFCURVE",
"359 540 CURVE SMOOTH",
"269 540 OFFCURVE",
"202 498 OFFCURVE",
"181 380 CURVE",
"195 343 LINE",
"217 386 OFFCURVE",
"254 408 OFFCURVE",
"304 408 CURVE SMOOTH",
"350 408 OFFCURVE",
"376 377 OFFCURVE",
"376 325 CURVE SMOOTH",
"376 0 LINE"
);
},
{
closed = 1;
nodes = (
"195 0 LINE",
"195 525 LINE",
"55 525 LINE",
"55 0 LINE"
);
}
);
width = 561;
},
{
background = {
paths = (
{
closed = 1;
nodes = (
"591 0 LINE",
"591 366 LINE SMOOTH",
"591 487 OFFCURVE",
"533 550 OFFCURVE",
"421 550 CURVE SMOOTH",
"321 550 OFFCURVE",
"251 492 OFFCURVE",
"239 378 CURVE",
"259 284 LINE",
"259 335 OFFCURVE",
"279 358 OFFCURVE",
"321 358 CURVE SMOOTH",
"359 358 OFFCURVE",
"376 336 OFFCURVE",
"376 287 CURVE SMOOTH",
"376 0 LINE"
);
},
{
closed = 1;
nodes = (
"259 0 LINE",
"259 351 LINE",
"259 383 LINE",
"225 535 LINE",
"44 535 LINE",
"44 0 LINE"
);
}
);
};
layerId = "4208D53D-8B52-43BA-A51E-290EEDFDCE51";
paths = (
{
closed = 1;
nodes = (
"259 0 LINE",
"259 283 LINE SMOOTH",
"259 334 OFFCURVE",
"279 358 OFFCURVE",
"324 358 CURVE SMOOTH",
"359 358 OFFCURVE",
"376 335 OFFCURVE",
"376 286 CURVE SMOOTH",
"376 0 LINE",
"591 0 LINE",
"591 366 LINE SMOOTH",
"591 487 OFFCURVE",
"533 550 OFFCURVE",
"421 550 CURVE SMOOTH",
"326 550 OFFCURVE",
"258 497 OFFCURVE",
"241 394 CURVE",
"259 384 LINE",
"225 535 LINE",
"44 535 LINE",
"44 0 LINE"
);
}
);
width = 628;
},
{
associatedMasterId = "4208D53D-8B52-43BA-A51E-290EEDFDCE51";
background = {
paths = (
{
closed = 1;
nodes = (
"604 0 LINE",
"604 366 LINE SMOOTH",
"604 479 OFFCURVE",
"529 550 OFFCURVE",
"427 550 CURVE SMOOTH",
"324 550 OFFCURVE",
"271 496 OFFCURVE",
"246 400 CURVE",
"259 276 LINE",
"259 327 OFFCURVE",
"284 358 OFFCURVE",
"329 358 CURVE SMOOTH",
"369 358 OFFCURVE",
"389 329 OFFCURVE",
"389 280 CURVE SMOOTH",
"389 0 LINE"
);
},
{
closed = 1;
nodes = (
"259 0 LINE",
"259 426 LINE",
"237 535 LINE",
"44 535 LINE",
"44 0 LINE"
);
}
);
};
layerId = "0A6CBDC7-0060-4393-8EAE-0F76145E4BC3";
name = "Apr 19 17, 15:14";
paths = (
{
closed = 1;
nodes = (
"604 0 LINE",
"604 366 LINE SMOOTH",
"604 479 OFFCURVE",
"529 550 OFFCURVE",
"427 550 CURVE SMOOTH",
"324 550 OFFCURVE",
"271 496 OFFCURVE",
"246 400 CURVE",
"259 276 LINE",
"259 327 OFFCURVE",
"284 358 OFFCURVE",
"329 358 CURVE SMOOTH",
"369 358 OFFCURVE",
"389 329 OFFCURVE",
"389 280 CURVE SMOOTH",
"389 0 LINE"
);
},
{
closed = 1;
nodes = (
"259 0 LINE",
"259 426 LINE",
"237 535 LINE",
"44 535 LINE",
"44 0 LINE"
);
}
);
width = 641;
},
{
associatedMasterId = "0AB32919-C634-42BE-AC70-4A96502CEFC8";
background = {
paths = (
{
closed = 1;
nodes = (
"461 0 LINE",
"461 367 LINE SMOOTH",
"461 470 OFFCURVE",
"403 530 OFFCURVE",
"303 530 CURVE SMOOTH",
"185 530 OFFCURVE",
"100 440 OFFCURVE",
"94 334 CURVE",
"103 310 LINE",
"110 418 OFFCURVE",
"185 512 OFFCURVE",
"302 512 CURVE SMOOTH",
"388 512 OFFCURVE",
"443 460 OFFCURVE",
"443 366 CURVE SMOOTH",
"443 0 LINE"
);
},
{
closed = 1;
nodes = (
"103 0 LINE",
"103 359 LINE",
"101 515 LINE",
"85 515 LINE",
"85 0 LINE"
);
}
);
};
layerId = "09F0046E-A09A-46C6-9A5B-CD312A03E895";
name = "May 21 17, 12:43";
paths = (
{
closed = 1;
nodes = (
"461 0 LINE",
"461 367 LINE SMOOTH",
"461 470 OFFCURVE",
"403 530 OFFCURVE",
"303 530 CURVE SMOOTH",
"185 530 OFFCURVE",
"100 440 OFFCURVE",
"94 334 CURVE",
"103 310 LINE",
"110 418 OFFCURVE",
"185 512 OFFCURVE",
"302 512 CURVE SMOOTH",
"388 512 OFFCURVE",
"443 460 OFFCURVE",
"443 366 CURVE SMOOTH",
"443 0 LINE"
);
},
{
closed = 1;
nodes = (
"103 0 LINE",
"103 359 LINE",
"101 515 LINE",
"85 515 LINE",
"85 0 LINE"
);
}
);
width = 536;
}
);
unicode = 006E;
},
{
color = 3;
glyphname = o;
lastChange = "2017-06-09 08:53:50 +0000";
layers = (
{
anchors = (
{
name = bottom;
position = "{267, 0}";
},
{
name = center;
position = "{267, 258}";
},
{
name = ogonek;
position = "{469, 0}";
},
{
name = top;
position = "{267, 515}";
}
);
background = {
paths = (
{
closed = 1;
nodes = (
"407 -14 OFFCURVE",
"489 85 OFFCURVE",
"489 258 CURVE SMOOTH",
"489 431 OFFCURVE",
"407 530 OFFCURVE",
"267 530 CURVE SMOOTH",
"127 530 OFFCURVE",
"45 431 OFFCURVE",
"45 258 CURVE SMOOTH",
"45 85 OFFCURVE",
"127 -14 OFFCURVE",
"267 -14 CURVE SMOOTH"
);
},
{
closed = 1;
nodes = (
"138 4 OFFCURVE",
"65 96 OFFCURVE",
"65 258 CURVE SMOOTH",
"65 420 OFFCURVE",
"138 512 OFFCURVE",
"267 512 CURVE SMOOTH",
"396 512 OFFCURVE",
"469 420 OFFCURVE",
"469 258 CURVE SMOOTH",
"469 96 OFFCURVE",
"396 4 OFFCURVE",
"267 4 CURVE SMOOTH"
);
}
);
};
layerId = "0AB32919-C634-42BE-AC70-4A96502CEFC8";
paths = (
{
closed = 1;
nodes = (
"407 -14 OFFCURVE",
"489 85 OFFCURVE",
"489 258 CURVE SMOOTH",
"489 431 OFFCURVE",
"407 530 OFFCURVE",
"267 530 CURVE SMOOTH",
"127 530 OFFCURVE",
"45 431 OFFCURVE",
"45 258 CURVE SMOOTH",
"45 85 OFFCURVE",
"127 -14 OFFCURVE",
"267 -14 CURVE SMOOTH"
);
},
{
closed = 1;
nodes = (
"138 4 OFFCURVE",
"65 96 OFFCURVE",
"65 258 CURVE SMOOTH",
"65 420 OFFCURVE",
"138 512 OFFCURVE",
"267 512 CURVE SMOOTH",
"396 512 OFFCURVE",
"469 420 OFFCURVE",
"469 258 CURVE SMOOTH",
"469 96 OFFCURVE",
"396 4 OFFCURVE",
"267 4 CURVE SMOOTH"
);
}
);
width = 534;
},
{
anchors = (
{
name = bottom;
position = "{317, 0}";
},
{
name = center;
position = "{317, 268}";
},
{
name = ogonek;
position = "{571, 10}";
},
{
name = top;
position = "{317, 535}";
}
);
background = {
paths = (
{
closed = 1;
nodes = (
"507 -17 OFFCURVE",
"614 86 OFFCURVE",
"614 266 CURVE SMOOTH",
"614 446 OFFCURVE",
"507 549 OFFCURVE",
"322 549 CURVE SMOOTH",
"137 549 OFFCURVE",
"30 446 OFFCURVE",
"30 266 CURVE SMOOTH",
"30 86 OFFCURVE",
"137 -17 OFFCURVE",
"322 -17 CURVE SMOOTH"
);
},
{
closed = 1;
nodes = (
"274 153 OFFCURVE",
"250 190 OFFCURVE",
"250 266 CURVE SMOOTH",
"250 342 OFFCURVE",
"274 379 OFFCURVE",
"322 379 CURVE SMOOTH",
"370 379 OFFCURVE",
"394 342 OFFCURVE",
"394 266 CURVE SMOOTH",
"394 190 OFFCURVE",
"370 153 OFFCURVE",
"322 153 CURVE SMOOTH"
);
}
);
};
layerId = "4208D53D-8B52-43BA-A51E-290EEDFDCE51";
paths = (
{
closed = 1;
nodes = (
"503 -17 OFFCURVE",
"606 85 OFFCURVE",
"606 266 CURVE SMOOTH",
"606 448 OFFCURVE",
"503 549 OFFCURVE",
"317 549 CURVE SMOOTH",
"131 549 OFFCURVE",
"28 448 OFFCURVE",
"28 266 CURVE SMOOTH",
"28 85 OFFCURVE",
"131 -17 OFFCURVE",
"317 -17 CURVE SMOOTH"
);
},
{
closed = 1;
nodes = (
"270 153 OFFCURVE",
"248 187 OFFCURVE",
"248 266 CURVE SMOOTH",
"248 345 OFFCURVE",
"270 379 OFFCURVE",
"317 379 CURVE SMOOTH",
"364 379 OFFCURVE",
"386 345 OFFCURVE",
"386 266 CURVE SMOOTH",
"386 187 OFFCURVE",
"364 153 OFFCURVE",
"317 153 CURVE SMOOTH"
);
}
);
width = 634;
},
{
associatedMasterId = "0AB32919-C634-42BE-AC70-4A96502CEFC8";
background = {
paths = (
{
closed = 1;
nodes = (
"408 -15 OFFCURVE",
"494 89 OFFCURVE",
"494 258 CURVE SMOOTH",
"494 426 OFFCURVE",
"408 530 OFFCURVE",
"272 530 CURVE SMOOTH",
"136 530 OFFCURVE",
"50 426 OFFCURVE",
"50 258 CURVE SMOOTH",
"50 89 OFFCURVE",
"136 -15 OFFCURVE",
"272 -15 CURVE SMOOTH"
);
},
{
closed = 1;
nodes = (
"147 3 OFFCURVE",
"70 99 OFFCURVE",
"70 258 CURVE SMOOTH",
"70 416 OFFCURVE",
"147 512 OFFCURVE",
"272 512 CURVE SMOOTH",
"397 512 OFFCURVE",
"474 416 OFFCURVE",
"474 258 CURVE SMOOTH",
"474 99 OFFCURVE",
"397 3 OFFCURVE",
"272 3 CURVE SMOOTH"
);
}
);
};
layerId = "88A418F8-F65A-47A1-B32F-4EE25ECA1F94";
name = "May 21 17, 12:40";
paths = (
{
closed = 1;
nodes = (
"408 -15 OFFCURVE",
"494 89 OFFCURVE",
"494 258 CURVE SMOOTH",
"494 426 OFFCURVE",
"408 530 OFFCURVE",
"272 530 CURVE SMOOTH",
"136 530 OFFCURVE",
"50 426 OFFCURVE",
"50 258 CURVE SMOOTH",
"50 89 OFFCURVE",
"136 -15 OFFCURVE",
"272 -15 CURVE SMOOTH"
);
},
{
closed = 1;
nodes = (
"147 3 OFFCURVE",
"70 99 OFFCURVE",
"70 258 CURVE SMOOTH",
"70 416 OFFCURVE",
"147 512 OFFCURVE",
"272 512 CURVE SMOOTH",
"397 512 OFFCURVE",
"474 416 OFFCURVE",
"474 258 CURVE SMOOTH",
"474 99 OFFCURVE",
"397 3 OFFCURVE",
"272 3 CURVE SMOOTH"
);
}
);
width = 544;
}
);
unicode = 006F;
},
{
color = 3;
glyphname = p;
lastChange = "2017-06-09 08:53:50 +0000";
layers = (
{
background = {
paths = (
{
closed = 1;
nodes = (
"85 515 LINE",
"85 -247 LINE",
"103 -247 LINE",
"103 515 LINE"
);
},
{
closed = 0;
nodes = (
"103 515 LINE",
"85 515 LINE"
);
},
{
closed = 1;
nodes = (
"408 512 OFFCURVE",
"491 427 OFFCURVE",
"491 257 CURVE SMOOTH",
"491 88 OFFCURVE",
"403 3 OFFCURVE",
"287 3 CURVE SMOOTH",
"187 3 OFFCURVE",
"103 81 OFFCURVE",
"103 206 CURVE",
"92 206 LINE",
"86 78 OFFCURVE",
"172 -15 OFFCURVE",
"287 -15 CURVE SMOOTH",
"415 -15 OFFCURVE",
"511 79 OFFCURVE",
"511 257 CURVE SMOOTH",
"511 436 OFFCURVE",
"420 530 OFFCURVE",
"298 530 CURVE",
"178 530 OFFCURVE",
"86 433 OFFCURVE",
"92 300 CURVE",
"103 300 LINE",
"103 430 OFFCURVE",
"192 512 OFFCURVE",
"298 512 CURVE"
);
}
);
};
components = (
{
name = d;
transform = "{-1, 0, 0, -1, 564, 515}";
}
);
layerId = "0AB32919-C634-42BE-AC70-4A96502CEFC8";
width = 564;
},
{
associatedMasterId = "0AB32919-C634-42BE-AC70-4A96502CEFC8";
background = {
paths = (
{
closed = 1;
nodes = (
"90 515 LINE",
"90 -247 LINE",
"108 -247 LINE",
"108 515 LINE"
);
},
{
closed = 0;
nodes = (
"108 515 LINE",
"90 515 LINE"
);
},
{
closed = 1;
nodes = (
"413 512 OFFCURVE",
"496 427 OFFCURVE",
"496 257 CURVE SMOOTH",
"496 88 OFFCURVE",
"408 3 OFFCURVE",
"292 3 CURVE SMOOTH",
"192 3 OFFCURVE",
"108 81 OFFCURVE",
"108 206 CURVE",
"97 206 LINE",
"91 78 OFFCURVE",
"177 -15 OFFCURVE",
"292 -15 CURVE SMOOTH",
"420 -15 OFFCURVE",
"516 79 OFFCURVE",
"516 257 CURVE SMOOTH",
"516 436 OFFCURVE",
"425 530 OFFCURVE",
"303 530 CURVE",
"183 530 OFFCURVE",
"91 433 OFFCURVE",
"97 300 CURVE",
"108 300 LINE",
"108 430 OFFCURVE",
"197 512 OFFCURVE",
"303 512 CURVE"
);
}
);
};
layerId = "D0D14A43-8C13-47EE-A9AE-0E9A62E0BFFF";
name = "Bold Universal Display Aug 3 16, 20:06";
paths = (
{
closed = 1;
nodes = (
"256 538 OFFCURVE",
"200 477 OFFCURVE",
"186 392 CURVE",
"205 302 LINE",
"205 372 OFFCURVE",
"243 412 OFFCURVE",
"315 412 CURVE SMOOTH",
"380 412 OFFCURVE",
"424 367 OFFCURVE",
"424 265 CURVE SMOOTH",
"424 169 OFFCURVE",
"378 114 OFFCURVE",
"306 114 CURVE SMOOTH",
"240 114 OFFCURVE",
"205 156 OFFCURVE",
"205 236 CURVE",
"186 146 LINE",
"198 49 OFFCURVE",
"245 -12 OFFCURVE",
"344 -12 CURVE SMOOTH",
"485 -12 OFFCURVE",
"572 107 OFFCURVE",
"572 264 CURVE SMOOTH",
"572 434 OFFCURVE",
"487 538 OFFCURVE",
"359 538 CURVE SMOOTH"
);
},
{
closed = 1;
nodes = (
"65 525 LINE",
"65 -195 LINE",
"205 -195 LINE",
"205 525 LINE"
);
}
);
width = 612;
},
{
associatedMasterId = "0AB32919-C634-42BE-AC70-4A96502CEFC8";
background = {
paths = (
{
closed = 1;
nodes = (
"90 515 LINE",
"90 -247 LINE",
"108 -247 LINE",
"108 515 LINE"
);
},
{
closed = 0;
nodes = (
"108 515 LINE",
"90 515 LINE"
);
},
{
closed = 1;
nodes = (
"413 512 OFFCURVE",
"496 427 OFFCURVE",
"496 257 CURVE SMOOTH",
"496 88 OFFCURVE",
"408 3 OFFCURVE",
"292 3 CURVE SMOOTH",
"192 3 OFFCURVE",
"108 81 OFFCURVE",
"108 206 CURVE",
"97 206 LINE",
"91 78 OFFCURVE",
"177 -15 OFFCURVE",
"292 -15 CURVE SMOOTH",
"420 -15 OFFCURVE",
"516 79 OFFCURVE",
"516 257 CURVE SMOOTH",
"516 436 OFFCURVE",
"425 530 OFFCURVE",
"303 530 CURVE",
"183 530 OFFCURVE",
"91 433 OFFCURVE",
"97 300 CURVE",
"108 300 LINE",
"108 430 OFFCURVE",
"197 512 OFFCURVE",
"303 512 CURVE"
);
}
);
};
layerId = "1C597566-0591-4CDB-9894-6AFA1242D8C1";
name = "Bold Universal Display Aug 3 16, 20:06";
paths = (
{
closed = 1;
nodes = (
"256 538 OFFCURVE",
"200 477 OFFCURVE",
"186 392 CURVE",
"205 302 LINE",
"205 372 OFFCURVE",
"243 412 OFFCURVE",
"315 412 CURVE SMOOTH",
"380 412 OFFCURVE",
"424 367 OFFCURVE",
"424 265 CURVE SMOOTH",
"424 169 OFFCURVE",
"378 114 OFFCURVE",
"306 114 CURVE SMOOTH",
"240 114 OFFCURVE",
"205 156 OFFCURVE",
"205 236 CURVE",
"186 146 LINE",
"198 49 OFFCURVE",
"245 -12 OFFCURVE",
"344 -12 CURVE SMOOTH",
"485 -12 OFFCURVE",
"572 107 OFFCURVE",
"572 264 CURVE SMOOTH",
"572 434 OFFCURVE",
"487 538 OFFCURVE",
"359 538 CURVE SMOOTH"
);
},
{
closed = 1;
nodes = (
"65 525 LINE",
"65 -195 LINE",
"205 -195 LINE",
"205 525 LINE"
);
}
);
width = 612;
},
{
background = {
paths = (
{
closed = 1;
nodes = (
"259 -185 LINE",
"259 128 LINE",
"251 114 LINE",
"266 29 OFFCURVE",
"323 -15 OFFCURVE",
"420 -15 CURVE SMOOTH",
"550 -15 OFFCURVE",
"634 95 OFFCURVE",
"634 266 CURVE SMOOTH",
"634 438 OFFCURVE",
"552 550 OFFCURVE",
"426 550 CURVE SMOOTH",
"318 550 OFFCURVE",
"261 493 OFFCURVE",
"242 368 CURVE",
"260 366 LINE",
"234 535 LINE",
"44 535 LINE",
"44 -185 LINE"
);
},
{
closed = 1;
nodes = (
"281 163 OFFCURVE",
"253 197 OFFCURVE",
"253 266 CURVE SMOOTH",
"253 332 OFFCURVE",
"281 370 OFFCURVE",
"331 370 CURVE SMOOTH",
"381 370 OFFCURVE",
"409 330 OFFCURVE",
"409 264 CURVE SMOOTH",
"409 195 OFFCURVE",
"381 163 OFFCURVE",
"331 163 CURVE SMOOTH"
);
}
);
};
components = (
{
name = d;
transform = "{-1, 0, 0, -1, 662, 535}";
}
);
layerId = "4208D53D-8B52-43BA-A51E-290EEDFDCE51";
width = 662;
},
{
associatedMasterId = "4208D53D-8B52-43BA-A51E-290EEDFDCE51";
background = {
paths = (
{
closed = 1;
nodes = (
"44 535 LINE",
"44 -185 LINE",
"259 -185 LINE",
"259 409 LINE",
"239 535 LINE"
);
},
{
closed = 1;
nodes = (
"634 436 OFFCURVE",
"549 548 OFFCURVE",
"414 548 CURVE SMOOTH",
"311 548 OFFCURVE",
"249 495 OFFCURVE",
"242 399 CURVE",
"259 277 LINE",
"263 339 OFFCURVE",
"289 370 OFFCURVE",
"333 370 CURVE SMOOTH",
"382 370 OFFCURVE",
"409 332 OFFCURVE",
"409 266 CURVE SMOOTH",
"409 197 OFFCURVE",
"382 163 OFFCURVE",
"333 163 CURVE SMOOTH",
"289 163 OFFCURVE",
"263 194 OFFCURVE",
"259 256 CURVE",
"249 134 LINE",
"256 38 OFFCURVE",
"315 -15 OFFCURVE",
"414 -15 CURVE SMOOTH",
"549 -15 OFFCURVE",
"634 94 OFFCURVE",
"634 266 CURVE SMOOTH"
);
}
);
};
layerId = "78788AC0-0AD3-491D-AB5E-FA45CD8CD6AD";
name = "Bold Apr 20 17, 18:19";
paths = (
{
closed = 1;
nodes = (
"44 535 LINE",
"44 -185 LINE",
"259 -185 LINE",
"259 369 LINE",
"234 535 LINE"
);
},
{
closed = 1;
nodes = (
"634 436 OFFCURVE",
"549 548 OFFCURVE",
"426 548 CURVE SMOOTH",
"317 548 OFFCURVE",
"264 503 OFFCURVE",
"243 359 CURVE",
"259 277 LINE",
"263 339 OFFCURVE",
"289 370 OFFCURVE",
"333 370 CURVE SMOOTH",
"382 370 OFFCURVE",
"409 332 OFFCURVE",
"409 266 CURVE SMOOTH",
"409 197 OFFCURVE",
"382 163 OFFCURVE",
"333 163 CURVE SMOOTH",
"289 163 OFFCURVE",
"263 194 OFFCURVE",
"259 256 CURVE",
"249 134 LINE",
"256 38 OFFCURVE",
"315 -15 OFFCURVE",
"414 -15 CURVE SMOOTH",
"549 -15 OFFCURVE",
"634 94 OFFCURVE",
"634 266 CURVE SMOOTH"
);
}
);
width = 664;
}
);
unicode = 0070;
},
{
color = 3;
glyphname = r;
lastChange = "2017-06-09 13:18:18 +0000";
layers = (
{
background = {
paths = (
{
closed = 1;
nodes = (
"103 0 LINE",
"103 282 LINE SMOOTH",
"103 416 OFFCURVE",
"171 507 OFFCURVE",
"269 507 CURVE SMOOTH",
"289 507 OFFCURVE",
"300 506 OFFCURVE",
"315 503 CURVE",
"315 521 LINE",
"301 524 OFFCURVE",
"287 525 OFFCURVE",
"269 525 CURVE SMOOTH",
"183 525 OFFCURVE",
"112 457 OFFCURVE",
"98 351 CURVE",
"103 359 LINE",
"101 515 LINE",
"85 515 LINE",
"85 0 LINE"
);
}
);
};
layerId = "0AB32919-C634-42BE-AC70-4A96502CEFC8";
paths = (
{
closed = 1;
nodes = (
"103 0 LINE",
"103 282 LINE SMOOTH",
"103 425 OFFCURVE",
"169 507 OFFCURVE",
"267 507 CURVE SMOOTH",
"285 507 OFFCURVE",
"296 506 OFFCURVE",
"307 504 CURVE",
"307 522 LINE",
"296 524 OFFCURVE",
"283 525 OFFCURVE",
"266 525 CURVE SMOOTH",
"180 525 OFFCURVE",
"111 466 OFFCURVE",
"98 351 CURVE",
"103 359 LINE",
"101 515 LINE",
"85 515 LINE",
"85 0 LINE"
);
}
);
width = 334;
},
{
layerId = "4208D53D-8B52-43BA-A51E-290EEDFDCE51";
paths = (
{
closed = 1;
nodes = (
"259 0 LINE",
"259 253 LINE SMOOTH",
"259 320 OFFCURVE",
"291 350 OFFCURVE",
"361 350 CURVE SMOOTH",
"390 350 OFFCURVE",
"410 348 OFFCURVE",
"425 345 CURVE",
"425 544 LINE",
"416 546 OFFCURVE",
"404 547 OFFCURVE",
"392 547 CURVE SMOOTH",
"300 547 OFFCURVE",
"245 504 OFFCURVE",
"246 357 CURVE",
"257 358 LINE",
"221 535 LINE",
"44 535 LINE",
"44 0 LINE"
);
}
);
width = 440;
},
{
associatedMasterId = "4208D53D-8B52-43BA-A51E-290EEDFDCE51";
background = {
paths = (
{
closed = 1;
nodes = (
"259 0 LINE",
"259 325 LINE",
"232 535 LINE",
"44 535 LINE",
"44 0 LINE"
);
},
{
closed = 1;
nodes = (
"259 321 OFFCURVE",
"295 352 OFFCURVE",
"373 352 CURVE SMOOTH",
"389 352 OFFCURVE",
"413 350 OFFCURVE",
"431 347 CURVE",
"431 544 LINE",
"422 546 OFFCURVE",
"410 547 OFFCURVE",
"398 547 CURVE SMOOTH",
"313 547 OFFCURVE",
"246 525 OFFCURVE",
"251 352 CURVE",
"259 255 LINE"
);
}
);
};
layerId = "BFAABB51-84B7-4EA7-B481-243082B1BC8E";
name = "Apr 19 17, 14:51";
paths = (
{
closed = 1;
nodes = (
"259 0 LINE",
"259 426 LINE",
"237 535 LINE",
"44 535 LINE",
"44 0 LINE"
);
},
{
closed = 1;
nodes = (
"259 322 OFFCURVE",
"297 352 OFFCURVE",
"367 352 CURVE SMOOTH",
"396 352 OFFCURVE",
"416 350 OFFCURVE",
"431 347 CURVE",
"431 544 LINE",
"422 546 OFFCURVE",
"410 547 OFFCURVE",
"398 547 CURVE SMOOTH",
"313 547 OFFCURVE",
"255 476 OFFCURVE",
"242 353 CURVE",
"259 255 LINE"
);
}
);
width = 446;
}
);
leftMetricsKey = "=n";
unicode = 0072;
},
{
color = 3;
glyphname = s;
lastChange = "2017-06-09 08:53:50 +0000";
layers = (
{
background = {
paths = (
{
closed = 1;
nodes = (
"111 301 OFFCURVE",
"80 334 OFFCURVE",
"80 393 CURVE SMOOTH",
"80 464 OFFCURVE",
"141 512 OFFCURVE",
"227 512 CURVE SMOOTH",
"304 512 OFFCURVE",
"358 480 OFFCURVE",
"378 405 CURVE SMOOTH",
"382 390 LINE",
"402 390 LINE",
"397 408 LINE SMOOTH",
"373 494 OFFCURVE",
"314 530 OFFCURVE",
"227 530 CURVE SMOOTH",
"130 530 OFFCURVE",
"60 474 OFFCURVE",
"60 393 CURVE SMOOTH",
"60 325 OFFCURVE",
"99 285 OFFCURVE",
"191 262 CURVE SMOOTH",
"266 243 LINE SMOOTH",
"354 221 OFFCURVE",
"386 190 OFFCURVE",
"386 125 CURVE SMOOTH",
"386 50 OFFCURVE",
"324 3 OFFCURVE",
"232 3 CURVE SMOOTH",
"163 3 OFFCURVE",
"93 26 OFFCURVE",
"68 113 CURVE SMOOTH",
"64 127 LINE",
"44 127 LINE",
"49 109 LINE SMOOTH",
"76 12 OFFCURVE",
"154 -15 OFFCURVE",
"232 -15 CURVE SMOOTH",
"333 -15 OFFCURVE",
"406 40 OFFCURVE",
"406 125 CURVE SMOOTH",
"406 197 OFFCURVE",
"366 237 OFFCURVE",
"269 261 CURVE SMOOTH",
"194 280 LINE SMOOTH"
);
}
);
};
guideLines = (
{
angle = -74.4759;
position = "{402, 390}";
}
);
layerId = "0AB32919-C634-42BE-AC70-4A96502CEFC8";
paths = (
{
closed = 1;
nodes = (
"338 -15 OFFCURVE",
"406 37 OFFCURVE",
"406 127 CURVE SMOOTH",
"406 202 OFFCURVE",
"367 242 OFFCURVE",
"269 263 CURVE SMOOTH",
"194 279 LINE SMOOTH",
"108 297 OFFCURVE",
"77 331 OFFCURVE",
"77 393 CURVE SMOOTH",
"77 467 OFFCURVE",
"136 512 OFFCURVE",
"226 512 CURVE SMOOTH",
"305 512 OFFCURVE",
"358 480 OFFCURVE",
"378 405 CURVE SMOOTH",
"382 390 LINE",
"402 390 LINE",
"397 408 LINE SMOOTH",
"373 494 OFFCURVE",
"315 530 OFFCURVE",
"226 530 CURVE SMOOTH",
"125 530 OFFCURVE",
"57 477 OFFCURVE",
"57 393 CURVE SMOOTH",
"57 321 OFFCURVE",
"96 281 OFFCURVE",
"191 261 CURVE SMOOTH",
"266 245 LINE SMOOTH",
"355 226 OFFCURVE",
"386 195 OFFCURVE",
"386 127 CURVE SMOOTH",
"386 47 OFFCURVE",
"327 3 OFFCURVE",
"236 3 CURVE SMOOTH",
"154 3 OFFCURVE",
"93 30 OFFCURVE",
"65 114 CURVE SMOOTH",
"60 129 LINE",
"40 129 LINE",
"46 111 LINE SMOOTH",
"79 12 OFFCURVE",
"147 -15 OFFCURVE",
"236 -15 CURVE SMOOTH"
);
}
);
width = 448;
},
{
background = {
paths = (
{
closed = 1;
nodes = (
"414 -18 OFFCURVE",
"510 44 OFFCURVE",
"510 167 CURVE SMOOTH",
"510 253 OFFCURVE",
"464 305 OFFCURVE",
"362 321 CURVE SMOOTH",
"279 334 LINE SMOOTH",
"235 341 OFFCURVE",
"223 354 OFFCURVE",
"223 377 CURVE SMOOTH",
"223 401 OFFCURVE",
"242 413 OFFCURVE",
"267 413 CURVE SMOOTH",
"296 413 OFFCURVE",
"308 402 OFFCURVE",
"316 375 CURVE SMOOTH",
"321 358 LINE",
"511 358 LINE",
"505 384 LINE SMOOTH",
"478 502 OFFCURVE",
"409 550 OFFCURVE",
"263 550 CURVE SMOOTH",
"115 550 OFFCURVE",
"28 483 OFFCURVE",
"28 365 CURVE SMOOTH",
"28 284 OFFCURVE",
"79 229 OFFCURVE",
"184 211 CURVE SMOOTH",
"276 194 LINE SMOOTH",
"303 189 OFFCURVE",
"315 179 OFFCURVE",
"315 156 CURVE SMOOTH",
"315 133 OFFCURVE",
"298 119 OFFCURVE",
"271 119 CURVE SMOOTH",
"244 119 OFFCURVE",
"227 131 OFFCURVE",
"219 157 CURVE SMOOTH",
"213 176 LINE",
"19 176 LINE",
"25 150 LINE SMOOTH",
"52 32 OFFCURVE",
"137 -18 OFFCURVE",
"273 -18 CURVE SMOOTH"
);
}
);
};
layerId = "4208D53D-8B52-43BA-A51E-290EEDFDCE51";
paths = (
{
closed = 1;
nodes = (
"428 -18 OFFCURVE",
"510 43 OFFCURVE",
"510 171 CURVE SMOOTH",
"510 256 OFFCURVE",
"466 308 OFFCURVE",
"362 322 CURVE SMOOTH",
"279 333 LINE SMOOTH",
"235 339 OFFCURVE",
"223 352 OFFCURVE",
"223 377 CURVE SMOOTH",
"223 402 OFFCURVE",
"240 413 OFFCURVE",
"269 413 CURVE SMOOTH",
"299 413 OFFCURVE",
"311 402 OFFCURVE",
"317 375 CURVE SMOOTH",
"321 358 LINE",
"511 358 LINE",
"505 384 LINE SMOOTH",
"478 502 OFFCURVE",
"417 550 OFFCURVE",
"263 550 CURVE SMOOTH",
"108 550 OFFCURVE",
"28 486 OFFCURVE",
"28 371 CURVE SMOOTH",
"28 279 OFFCURVE",
"79 225 OFFCURVE",
"184 209 CURVE SMOOTH",
"276 195 LINE SMOOTH",
"305 191 OFFCURVE",
"315 179 OFFCURVE",
"315 157 CURVE SMOOTH",
"315 133 OFFCURVE",
"302 119 OFFCURVE",
"271 119 CURVE SMOOTH",
"238 119 OFFCURVE",
"227 131 OFFCURVE",
"219 157 CURVE SMOOTH",
"213 176 LINE",
"19 176 LINE",
"25 150 LINE SMOOTH",
"53 30 OFFCURVE",
"128 -18 OFFCURVE",
"277 -18 CURVE SMOOTH"
);
}
);
width = 531;
},
{
associatedMasterId = "0AB32919-C634-42BE-AC70-4A96502CEFC8";
background = {
paths = (
{
closed = 1;
nodes = (
"361 -15 OFFCURVE",
"460 40 OFFCURVE",
"460 151 CURVE SMOOTH",
"460 240 OFFCURVE",
"403 286 OFFCURVE",
"301 308 CURVE SMOOTH",
"245 320 LINE SMOOTH",
"203 329 OFFCURVE",
"188 346 OFFCURVE",
"188 378 CURVE SMOOTH",
"188 411 OFFCURVE",
"214 430 OFFCURVE",
"251 430 CURVE SMOOTH",
"293 430 OFFCURVE",
"311 406 OFFCURVE",
"318 373 CURVE SMOOTH",
"321 359 LINE",
"459 359 LINE",
"455 381 LINE SMOOTH",
"435 492 OFFCURVE",
"368 540 OFFCURVE",
"251 540 CURVE SMOOTH",
"127 540 OFFCURVE",
"50 477 OFFCURVE",
"50 375 CURVE SMOOTH",
"50 288 OFFCURVE",
"98 236 OFFCURVE",
"210 212 CURVE SMOOTH",
"263 201 LINE SMOOTH",
"309 191 OFFCURVE",
"321 173 OFFCURVE",
"321 145 CURVE SMOOTH",
"321 114 OFFCURVE",
"296 95 OFFCURVE",
"257 95 CURVE SMOOTH",
"217 95 OFFCURVE",
"194 110 OFFCURVE",
"183 147 CURVE SMOOTH",
"178 163 LINE",
"37 163 LINE",
"43 139 LINE SMOOTH",
"68 39 OFFCURVE",
"136 -15 OFFCURVE",
"251 -15 CURVE SMOOTH"
);
}
);
};
guideLines = (
{
angle = 270;
position = "{462, 293}";
},
{
angle = -72.6232;
position = "{175, 163}";
},
{
angle = 104.0362;
position = "{25, 163}";
},
{
angle = 167.9052;
position = "{266, 200}";
}
);
layerId = "0A6102BA-9D63-4006-825D-7BD24AE0AC24";
name = "SemiBold Nov 25 16, 13:29";
paths = (
{
closed = 1;
nodes = (
"362 -15 OFFCURVE",
"462 40 OFFCURVE",
"462 151 CURVE SMOOTH",
"462 239 OFFCURVE",
"403 280 OFFCURVE",
"301 308 CURVE SMOOTH",
"245 324 LINE SMOOTH",
"204 335 OFFCURVE",
"188 349 OFFCURVE",
"188 377 CURVE SMOOTH",
"188 410 OFFCURVE",
"214 428 OFFCURVE",
"252 428 CURVE SMOOTH",
"293 428 OFFCURVE",
"311 405 OFFCURVE",
"319 373 CURVE SMOOTH",
"323 359 LINE",
"463 359 LINE",
"458 381 LINE SMOOTH",
"432 491 OFFCURVE",
"371 540 OFFCURVE",
"251 540 CURVE SMOOTH",
"127 540 OFFCURVE",
"50 477 OFFCURVE",
"50 375 CURVE SMOOTH",
"50 289 OFFCURVE",
"99 245 OFFCURVE",
"210 213 CURVE SMOOTH",
"270 196 LINE SMOOTH",
"307 187 OFFCURVE",
"320 172 OFFCURVE",
"320 147 CURVE SMOOTH",
"320 116 OFFCURVE",
"296 97 OFFCURVE",
"255 97 CURVE SMOOTH",
"213 97 OFFCURVE",
"192 114 OFFCURVE",
"180 149 CURVE SMOOTH",
"175 163 LINE",
"33 163 LINE",
"39 139 LINE SMOOTH",
"64 39 OFFCURVE",
"134 -15 OFFCURVE",
"251 -15 CURVE SMOOTH"
);
}
);
width = 496;
},
{
associatedMasterId = "0AB32919-C634-42BE-AC70-4A96502CEFC8";
background = {
paths = (
{
closed = 1;
nodes = (
"360 -15 OFFCURVE",
"459 40 OFFCURVE",
"459 151 CURVE SMOOTH",
"459 240 OFFCURVE",
"402 286 OFFCURVE",
"300 308 CURVE SMOOTH",
"244 320 LINE SMOOTH",
"202 329 OFFCURVE",
"187 346 OFFCURVE",
"187 377 CURVE SMOOTH",
"187 411 OFFCURVE",
"213 430 OFFCURVE",
"250 430 CURVE SMOOTH",
"292 430 OFFCURVE",
"310 406 OFFCURVE",
"317 373 CURVE SMOOTH",
"320 359 LINE",
"458 359 LINE",
"454 381 LINE SMOOTH",
"434 492 OFFCURVE",
"367 540 OFFCURVE",
"250 540 CURVE SMOOTH",
"126 540 OFFCURVE",
"49 478 OFFCURVE",
"49 375 CURVE SMOOTH",
"49 287 OFFCURVE",
"97 236 OFFCURVE",
"206 213 CURVE SMOOTH",
"262 201 LINE SMOOTH",
"308 191 OFFCURVE",
"320 173 OFFCURVE",
"320 145 CURVE SMOOTH",
"320 114 OFFCURVE",
"295 95 OFFCURVE",
"256 95 CURVE SMOOTH",
"216 95 OFFCURVE",
"193 110 OFFCURVE",
"182 147 CURVE SMOOTH",
"177 163 LINE",
"36 163 LINE",
"42 139 LINE SMOOTH",
"67 39 OFFCURVE",
"135 -15 OFFCURVE",
"254 -15 CURVE SMOOTH"
);
}
);
};
guideLines = (
{
angle = 270;
position = "{461, 293}";
},
{
angle = -72.6232;
position = "{174, 163}";
},
{
angle = 104.0362;
position = "{24, 163}";
},
{
angle = 167.9052;
position = "{265, 200}";
}
);
layerId = "D1000F4A-CC9E-4763-A1F5-576B0DEE248E";
name = "SemiBold Nov 25 16, 15:55";
paths = (
{
closed = 1;
nodes = (
"362 -15 OFFCURVE",
"463 40 OFFCURVE",
"463 151 CURVE SMOOTH",
"463 240 OFFCURVE",
"405 286 OFFCURVE",
"301 308 CURVE SMOOTH",
"244 320 LINE SMOOTH",
"199 329 OFFCURVE",
"183 346 OFFCURVE",
"183 377 CURVE SMOOTH",
"183 411 OFFCURVE",
"211 431 OFFCURVE",
"250 431 CURVE SMOOTH",
"295 431 OFFCURVE",
"314 407 OFFCURVE",
"321 373 CURVE SMOOTH",
"324 359 LINE",
"462 359 LINE",
"458 381 LINE SMOOTH",
"438 492 OFFCURVE",
"369 540 OFFCURVE",
"250 540 CURVE SMOOTH",
"124 540 OFFCURVE",
"45 478 OFFCURVE",
"45 375 CURVE SMOOTH",
"45 287 OFFCURVE",
"94 236 OFFCURVE",
"205 213 CURVE SMOOTH",
"262 201 LINE SMOOTH",
"312 191 OFFCURVE",
"325 173 OFFCURVE",
"325 145 CURVE SMOOTH",
"325 113 OFFCURVE",
"298 94 OFFCURVE",
"257 94 CURVE SMOOTH",
"214 94 OFFCURVE",
"189 110 OFFCURVE",
"178 147 CURVE SMOOTH",
"173 163 LINE",
"32 163 LINE",
"38 139 LINE SMOOTH",
"63 39 OFFCURVE",
"133 -15 OFFCURVE",
"254 -15 CURVE SMOOTH"
);
}
);
width = 494;
},
{
associatedMasterId = "4208D53D-8B52-43BA-A51E-290EEDFDCE51";
background = {
paths = (
{
closed = 1;
nodes = (
"414 -18 OFFCURVE",
"510 44 OFFCURVE",
"510 166 CURVE SMOOTH",
"510 254 OFFCURVE",
"462 304 OFFCURVE",
"362 321 CURVE SMOOTH",
"279 335 LINE SMOOTH",
"236 342 OFFCURVE",
"223 355 OFFCURVE",
"223 376 CURVE SMOOTH",
"223 400 OFFCURVE",
"242 412 OFFCURVE",
"268 412 CURVE SMOOTH",
"296 412 OFFCURVE",
"309 399 OFFCURVE",
"316 375 CURVE SMOOTH",
"321 358 LINE",
"511 358 LINE",
"505 384 LINE SMOOTH",
"478 502 OFFCURVE",
"409 550 OFFCURVE",
"263 550 CURVE SMOOTH",
"115 550 OFFCURVE",
"28 483 OFFCURVE",
"28 367 CURVE SMOOTH",
"28 284 OFFCURVE",
"80 230 OFFCURVE",
"179 212 CURVE SMOOTH",
"270 195 LINE SMOOTH",
"305 188 OFFCURVE",
"315 177 OFFCURVE",
"315 156 CURVE SMOOTH",
"315 134 OFFCURVE",
"299 120 OFFCURVE",
"272 120 CURVE SMOOTH",
"240 120 OFFCURVE",
"227 132 OFFCURVE",
"218 160 CURVE SMOOTH",
"213 176 LINE",
"19 176 LINE",
"25 150 LINE SMOOTH",
"52 32 OFFCURVE",
"137 -18 OFFCURVE",
"273 -18 CURVE SMOOTH"
);
}
);
};
layerId = "4E3731E8-FC06-4483-B324-01BFA72B371A";
name = "Bold Apr 21 17, 11:28";
paths = (
{
closed = 1;
nodes = (
"414 -18 OFFCURVE",
"510 44 OFFCURVE",
"510 167 CURVE SMOOTH",
"510 253 OFFCURVE",
"464 305 OFFCURVE",
"362 321 CURVE SMOOTH",
"279 334 LINE SMOOTH",
"235 341 OFFCURVE",
"223 354 OFFCURVE",
"223 377 CURVE SMOOTH",
"223 401 OFFCURVE",
"242 413 OFFCURVE",
"267 413 CURVE SMOOTH",
"296 413 OFFCURVE",
"308 402 OFFCURVE",
"316 375 CURVE SMOOTH",
"321 358 LINE",
"511 358 LINE",
"505 384 LINE SMOOTH",
"478 502 OFFCURVE",
"409 550 OFFCURVE",
"263 550 CURVE SMOOTH",
"115 550 OFFCURVE",
"28 483 OFFCURVE",
"28 365 CURVE SMOOTH",
"28 284 OFFCURVE",
"79 229 OFFCURVE",
"184 211 CURVE SMOOTH",
"276 194 LINE SMOOTH",
"303 189 OFFCURVE",
"315 179 OFFCURVE",
"315 156 CURVE SMOOTH",
"315 133 OFFCURVE",
"298 119 OFFCURVE",
"271 119 CURVE SMOOTH",
"244 119 OFFCURVE",
"227 131 OFFCURVE",
"219 157 CURVE SMOOTH",
"213 176 LINE",
"19 176 LINE",
"25 150 LINE SMOOTH",
"52 32 OFFCURVE",
"137 -18 OFFCURVE",
"273 -18 CURVE SMOOTH"
);
}
);
width = 531;
},
{
associatedMasterId = "0AB32919-C634-42BE-AC70-4A96502CEFC8";
background = {
paths = (
{
closed = 1;
nodes = (
"109 301 OFFCURVE",
"78 334 OFFCURVE",
"78 393 CURVE SMOOTH",
"78 464 OFFCURVE",
"139 512 OFFCURVE",
"225 512 CURVE SMOOTH",
"302 512 OFFCURVE",
"356 480 OFFCURVE",
"376 405 CURVE SMOOTH",
"380 390 LINE",
"400 390 LINE",
"395 408 LINE SMOOTH",
"371 494 OFFCURVE",
"312 530 OFFCURVE",
"225 530 CURVE SMOOTH",
"128 530 OFFCURVE",
"58 474 OFFCURVE",
"58 393 CURVE SMOOTH",
"58 325 OFFCURVE",
"97 285 OFFCURVE",
"189 262 CURVE SMOOTH",
"264 243 LINE SMOOTH",
"352 221 OFFCURVE",
"384 190 OFFCURVE",
"384 125 CURVE SMOOTH",
"384 50 OFFCURVE",
"322 3 OFFCURVE",
"230 3 CURVE SMOOTH",
"161 3 OFFCURVE",
"91 26 OFFCURVE",
"66 113 CURVE SMOOTH",
"62 127 LINE",
"42 127 LINE",
"47 109 LINE SMOOTH",
"74 12 OFFCURVE",
"152 -15 OFFCURVE",
"230 -15 CURVE SMOOTH",
"331 -15 OFFCURVE",
"404 40 OFFCURVE",
"404 125 CURVE SMOOTH",
"404 197 OFFCURVE",
"364 237 OFFCURVE",
"267 261 CURVE SMOOTH",
"192 280 LINE SMOOTH"
);
}
);
};
guideLines = (
{
angle = -74.4759;
position = "{400, 390}";
}
);
layerId = "97E62791-8E42-40C3-B450-C586686A65DC";
name = "May 21 17, 13:12";
paths = (
{
closed = 1;
nodes = (
"331 -15 OFFCURVE",
"404 40 OFFCURVE",
"404 125 CURVE SMOOTH",
"404 197 OFFCURVE",
"364 237 OFFCURVE",
"267 261 CURVE SMOOTH",
"192 280 LINE SMOOTH",
"109 301 OFFCURVE",
"78 334 OFFCURVE",
"78 393 CURVE SMOOTH",
"78 464 OFFCURVE",
"139 512 OFFCURVE",
"224 512 CURVE SMOOTH",
"302 512 OFFCURVE",
"356 480 OFFCURVE",
"376 405 CURVE SMOOTH",
"380 390 LINE",
"400 390 LINE",
"395 408 LINE SMOOTH",
"371 494 OFFCURVE",
"312 530 OFFCURVE",
"224 530 CURVE SMOOTH",
"128 530 OFFCURVE",
"58 474 OFFCURVE",
"58 393 CURVE SMOOTH",
"58 325 OFFCURVE",
"97 285 OFFCURVE",
"189 262 CURVE SMOOTH",
"264 243 LINE SMOOTH",
"352 221 OFFCURVE",
"384 190 OFFCURVE",
"384 125 CURVE SMOOTH",
"384 50 OFFCURVE",
"322 3 OFFCURVE",
"230 3 CURVE SMOOTH",
"159 3 OFFCURVE",
"94 30 OFFCURVE",
"66 114 CURVE SMOOTH",
"61 129 LINE",
"41 129 LINE",
"47 111 LINE SMOOTH",
"80 12 OFFCURVE",
"152 -15 OFFCURVE",
"230 -15 CURVE SMOOTH"
);
}
);
width = 444;
}
);
unicode = 0073;
},
{
color = 3;
glyphname = t;
lastChange = "2017-06-09 08:53:50 +0000";
layers = (
{
background = {
paths = (
{
closed = 1;
nodes = (
"23 498 LINE",
"305 498 LINE",
"305 515 LINE",
"23 515 LINE"
);
},
{
closed = 1;
nodes = (
"321 24 LINE",
"294 13 OFFCURVE",
"265 7 OFFCURVE",
"232 7 CURVE SMOOTH",
"167 7 OFFCURVE",
"136 46 OFFCURVE",
"136 119 CURVE SMOOTH",
"136 645 LINE",
"120 645 LINE",
"118 515 LINE",
"118 118 LINE SMOOTH",
"118 35 OFFCURVE",
"154 -11 OFFCURVE",
"231 -11 CURVE SMOOTH",
"262 -11 OFFCURVE",
"297 -4 OFFCURVE",
"321 7 CURVE"
);
}
);
};
layerId = "0AB32919-C634-42BE-AC70-4A96502CEFC8";
paths = (
{
closed = 1;
nodes = (
"23 498 LINE",
"307 498 LINE",
"307 515 LINE",
"23 515 LINE"
);
},
{
closed = 1;
nodes = (
"311 23 LINE",
"285 13 OFFCURVE",
"258 7 OFFCURVE",
"226 7 CURVE SMOOTH",
"161 7 OFFCURVE",
"136 46 OFFCURVE",
"136 119 CURVE SMOOTH",
"136 645 LINE",
"120 645 LINE",
"118 515 LINE",
"118 118 LINE SMOOTH",
"118 35 OFFCURVE",
"148 -11 OFFCURVE",
"225 -11 CURVE SMOOTH",
"255 -11 OFFCURVE",
"288 -4 OFFCURVE",
"311 6 CURVE"
);
}
);
width = 330;
},
{
background = {
paths = (
{
closed = 1;
nodes = (
"10 368 LINE",
"408 368 LINE",
"408 535 LINE",
"10 535 LINE"
);
},
{
closed = 1;
nodes = (
"411 175 LINE",
"393 172 OFFCURVE",
"377 171 OFFCURVE",
"362 171 CURVE SMOOTH",
"323 171 OFFCURVE",
"302 187 OFFCURVE",
"302 237 CURVE SMOOTH",
"302 655 LINE",
"123 655 LINE",
"91 535 LINE",
"91 169 LINE SMOOTH",
"91 49 OFFCURVE",
"159 -7 OFFCURVE",
"290 -7 CURVE SMOOTH",
"341 -7 OFFCURVE",
"387 -1 OFFCURVE",
"411 6 CURVE"
);
}
);
};
layerId = "4208D53D-8B52-43BA-A51E-290EEDFDCE51";
paths = (
{
closed = 1;
nodes = (
"10 368 LINE",
"408 368 LINE",
"408 535 LINE",
"10 535 LINE"
);
},
{
closed = 1;
nodes = (
"411 169 LINE",
"398 166 OFFCURVE",
"380 164 OFFCURVE",
"362 164 CURVE SMOOTH",
"319 164 OFFCURVE",
"302 180 OFFCURVE",
"302 221 CURVE SMOOTH",
"302 655 LINE",
"123 655 LINE",
"91 535 LINE",
"91 169 LINE SMOOTH",
"91 49 OFFCURVE",
"159 -7 OFFCURVE",
"290 -7 CURVE SMOOTH",
"341 -7 OFFCURVE",
"387 -1 OFFCURVE",
"411 7 CURVE"
);
}
);
width = 438;
},
{
associatedMasterId = "0AB32919-C634-42BE-AC70-4A96502CEFC8";
background = {
paths = (
{
closed = 1;
nodes = (
"23 498 LINE",
"305 498 LINE",
"305 515 LINE",
"23 515 LINE"
);
},
{
closed = 1;
nodes = (
"321 18 LINE",
"294 10 OFFCURVE",
"273 7 OFFCURVE",
"245 7 CURVE SMOOTH",
"174 7 OFFCURVE",
"136 48 OFFCURVE",
"136 124 CURVE SMOOTH",
"136 645 LINE",
"120 645 LINE",
"118 515 LINE",
"118 123 LINE SMOOTH",
"118 36 OFFCURVE",
"162 -11 OFFCURVE",
"245 -11 CURVE SMOOTH",
"270 -11 OFFCURVE",
"297 -7 OFFCURVE",
"321 1 CURVE"
);
}
);
};
layerId = "D019C504-54C4-4910-891E-E59100FDB5B1";
name = "May 23 17, 18:06";
paths = (
{
closed = 1;
nodes = (
"23 498 LINE",
"305 498 LINE",
"305 515 LINE",
"23 515 LINE"
);
},
{
closed = 1;
nodes = (
"321 18 LINE",
"294 10 OFFCURVE",
"273 7 OFFCURVE",
"245 7 CURVE SMOOTH",
"174 7 OFFCURVE",
"136 48 OFFCURVE",
"136 124 CURVE SMOOTH",
"136 645 LINE",
"120 645 LINE",
"118 515 LINE",
"118 123 LINE SMOOTH",
"118 36 OFFCURVE",
"162 -11 OFFCURVE",
"245 -11 CURVE SMOOTH",
"270 -11 OFFCURVE",
"297 -7 OFFCURVE",
"321 1 CURVE"
);
}
);
width = 340;
},
{
associatedMasterId = "4208D53D-8B52-43BA-A51E-290EEDFDCE51";
background = {
paths = (
{
closed = 1;
nodes = (
"10 368 LINE",
"408 368 LINE",
"408 535 LINE",
"10 535 LINE"
);
},
{
closed = 1;
nodes = (
"411 175 LINE",
"393 172 OFFCURVE",
"377 171 OFFCURVE",
"362 171 CURVE SMOOTH",
"323 171 OFFCURVE",
"302 187 OFFCURVE",
"302 237 CURVE SMOOTH",
"302 655 LINE",
"123 655 LINE",
"91 535 LINE",
"91 169 LINE SMOOTH",
"91 49 OFFCURVE",
"159 -7 OFFCURVE",
"290 -7 CURVE SMOOTH",
"341 -7 OFFCURVE",
"387 -1 OFFCURVE",
"411 6 CURVE"
);
}
);
};
layerId = "47308C34-997B-4CAE-B912-5D3DAF7E8DF8";
name = "Jun 8 17, 18:07";
paths = (
{
closed = 1;
nodes = (
"10 368 LINE",
"394 368 LINE",
"394 535 LINE",
"10 535 LINE"
);
},
{
closed = 1;
nodes = (
"398 175 LINE",
"385 173 OFFCURVE",
"373 172 OFFCURVE",
"362 172 CURVE SMOOTH",
"323 172 OFFCURVE",
"302 188 OFFCURVE",
"302 238 CURVE SMOOTH",
"302 655 LINE",
"119 655 LINE",
"87 535 LINE",
"87 164 LINE SMOOTH",
"87 44 OFFCURVE",
"156 -12 OFFCURVE",
"290 -12 CURVE SMOOTH",
"338 -12 OFFCURVE",
"377 -5 OFFCURVE",
"398 2 CURVE"
);
}
);
width = 438;
},
{
associatedMasterId = "4208D53D-8B52-43BA-A51E-290EEDFDCE51";
background = {
paths = (
{
closed = 1;
nodes = (
"11 372 LINE",
"400 372 LINE",
"400 535 LINE",
"11 535 LINE"
);
},
{
closed = 1;
nodes = (
"399 184 LINE",
"384 182 OFFCURVE",
"373 181 OFFCURVE",
"357 181 CURVE SMOOTH",
"327 181 OFFCURVE",
"303 198 OFFCURVE",
"303 247 CURVE SMOOTH",
"303 655 LINE",
"120 655 LINE",
"88 535 LINE",
"88 164 LINE SMOOTH",
"88 44 OFFCURVE",
"157 -12 OFFCURVE",
"303 -12 CURVE SMOOTH",
"339 -12 OFFCURVE",
"378 -3 OFFCURVE",
"399 4 CURVE"
);
}
);
};
layerId = "DB05D3AC-D4B9-4443-A60B-88437E4D8DDC";
name = "Apr 19 17, 13:31";
paths = (
{
closed = 1;
nodes = (
"11 372 LINE",
"397 372 LINE",
"397 535 LINE",
"11 535 LINE"
);
},
{
closed = 1;
nodes = (
"399 172 LINE",
"386 170 OFFCURVE",
"374 169 OFFCURVE",
"363 169 CURVE SMOOTH",
"324 169 OFFCURVE",
"303 185 OFFCURVE",
"303 235 CURVE SMOOTH",
"303 655 LINE",
"120 655 LINE",
"88 535 LINE",
"88 164 LINE SMOOTH",
"88 44 OFFCURVE",
"157 -12 OFFCURVE",
"291 -12 CURVE SMOOTH",
"339 -12 OFFCURVE",
"378 -3 OFFCURVE",
"399 5 CURVE"
);
}
);
width = 416;
}
);
unicode = 0074;
},
{
color = 3;
glyphname = v;
lastChange = "2017-06-09 11:56:16 +0000";
layers = (
{
guideLines = (
{
angle = 26.0842;
position = "{189, 245}";
showMeasurement = 1;
}
);
layerId = "0AB32919-C634-42BE-AC70-4A96502CEFC8";
paths = (
{
closed = 1;
nodes = (
"254 0 LINE",
"469 515 LINE",
"449 515 LINE",
"236 4 LINE",
"248 4 LINE",
"35 515 LINE",
"15 515 LINE",
"230 0 LINE"
);
}
);
width = 484;
},
{
background = {
paths = (
{
closed = 1;
nodes = (
"439 0 LINE",
"618 535 LINE",
"394 535 LINE",
"297 127 LINE",
"323 127 LINE",
"226 535 LINE",
"2 535 LINE",
"181 0 LINE"
);
}
);
};
guideLines = (
{
angle = -19.5803;
position = "{300, 338}";
showMeasurement = 1;
}
);
layerId = "4208D53D-8B52-43BA-A51E-290EEDFDCE51";
paths = (
{
closed = 1;
nodes = (
"439 0 LINE",
"618 535 LINE",
"394 535 LINE",
"297 127 LINE",
"323 127 LINE",
"226 535 LINE",
"2 535 LINE",
"181 0 LINE"
);
}
);
width = 620;
}
);
unicode = 0076;
},
{
color = 3;
glyphname = w;
lastChange = "2017-06-09 08:53:50 +0000";
layers = (
{
background = {
paths = (
{
closed = 1;
nodes = (
"366 515 LINE",
"343 515 LINE",
"191 12 LINE",
"198 12 LINE",
"46 515 LINE",
"27 515 LINE",
"183 0 LINE",
"206 0 LINE",
"358 503 LINE",
"351 503 LINE",
"503 0 LINE",
"526 0 LINE",
"682 515 LINE",
"663 515 LINE",
"511 12 LINE",
"519 12 LINE"
);
}
);
};
layerId = "0AB32919-C634-42BE-AC70-4A96502CEFC8";
paths = (
{
closed = 1;
nodes = (
"206 0 LINE",
"357 503 LINE",
"352 503 LINE",
"503 0 LINE",
"528 0 LINE",
"684 515 LINE",
"664 515 LINE",
"513 12 LINE",
"519 12 LINE",
"367 515 LINE",
"342 515 LINE",
"191 12 LINE",
"196 12 LINE",
"45 515 LINE",
"25 515 LINE",
"181 0 LINE"
);
}
);
width = 709;
},
{
background = {
paths = (
{
closed = 1;
nodes = (
"418 420 LINE",
"498 0 LINE",
"716 0 LINE",
"875 535 LINE",
"651 535 LINE",
"574 127 LINE",
"600 127 LINE",
"530 535 LINE",
"354 535 LINE",
"277 127 LINE",
"303 127 LINE",
"226 535 LINE",
"2 535 LINE",
"161 0 LINE",
"379 0 LINE",
"458 420 LINE"
);
}
);
};
layerId = "4208D53D-8B52-43BA-A51E-290EEDFDCE51";
paths = (
{
closed = 1;
nodes = (
"379 0 LINE",
"458 420 LINE",
"418 420 LINE",
"498 0 LINE",
"716 0 LINE",
"866 535 LINE",
"653 535 LINE",
"574 117 LINE",
"600 117 LINE",
"530 535 LINE",
"354 535 LINE",
"277 117 LINE",
"303 117 LINE",
"224 535 LINE",
"11 535 LINE",
"161 0 LINE"
);
}
);
width = 877;
},
{
associatedMasterId = "4208D53D-8B52-43BA-A51E-290EEDFDCE51";
background = {
paths = (
{
closed = 1;
nodes = (
"329 0 LINE",
"438 371 LINE",
"410 371 LINE",
"519 0 LINE",
"679 0 LINE",
"838 525 LINE",
"687 525 LINE",
"543 12 LINE",
"629 12 LINE",
"490 525 LINE",
"358 525 LINE",
"246 112 LINE",
"277 112 LINE",
"161 525 LINE",
"10 525 LINE",
"169 0 LINE"
);
}
);
};
layerId = "DB9D052B-C45B-4DE5-803A-C5A8D7A85E8F";
name = "Apr 19 17, 15:47";
paths = (
{
closed = 1;
nodes = (
"329 0 LINE",
"438 371 LINE",
"410 371 LINE",
"519 0 LINE",
"679 0 LINE",
"838 525 LINE",
"687 525 LINE",
"543 12 LINE",
"629 12 LINE",
"490 525 LINE",
"358 525 LINE",
"246 112 LINE",
"277 112 LINE",
"161 525 LINE",
"10 525 LINE",
"169 0 LINE"
);
}
);
width = 848;
}
);
unicode = 0077;
},
{
color = 3;
glyphname = x;
lastChange = "2017-06-09 11:56:49 +0000";
layers = (
{
background = {
paths = (
{
closed = 1;
nodes = (
"40 515 LINE",
"18 515 LINE",
"404 0 LINE",
"426 0 LINE"
);
},
{
closed = 1;
nodes = (
"401 515 LINE",
"15 0 LINE",
"37 0 LINE",
"423 515 LINE"
);
}
);
};
layerId = "0AB32919-C634-42BE-AC70-4A96502CEFC8";
paths = (
{
closed = 1;
nodes = (
"426 0 LINE",
"227 267 LINE",
"225 267 LINE",
"40 515 LINE",
"18 515 LINE",
"214 253 LINE",
"216 253 LINE",
"404 0 LINE"
);
},
{
closed = 1;
nodes = (
"37 0 LINE",
"225 253 LINE",
"227 253 LINE",
"423 515 LINE",
"401 515 LINE",
"216 267 LINE",
"214 267 LINE",
"15 0 LINE"
);
}
);
width = 441;
},
{
background = {
paths = (
{
closed = 1;
nodes = (
"256 250 LINE",
"362 0 LINE",
"583 0 LINE",
"439 304 LINE",
"337 304 LINE",
"239 535 LINE",
"18 535 LINE",
"153 250 LINE"
);
},
{
closed = 1;
nodes = (
"583 535 LINE",
"362 535 LINE",
"264 304 LINE",
"162 304 LINE",
"18 0 LINE",
"239 0 LINE",
"345 250 LINE",
"448 250 LINE"
);
}
);
};
layerId = "4208D53D-8B52-43BA-A51E-290EEDFDCE51";
paths = (
{
closed = 1;
nodes = (
"596 0 LINE",
"424 304 LINE",
"341 304 LINE",
"233 535 LINE",
"7 535 LINE",
"168 250 LINE",
"252 250 LINE",
"370 0 LINE"
);
},
{
closed = 1;
nodes = (
"231 0 LINE",
"349 250 LINE",
"433 250 LINE",
"594 535 LINE",
"368 535 LINE",
"260 304 LINE",
"177 304 LINE",
"5 0 LINE"
);
}
);
width = 601;
},
{
associatedMasterId = "4208D53D-8B52-43BA-A51E-290EEDFDCE51";
background = {
paths = (
{
closed = 1;
nodes = (
"248 250 LINE",
"354 0 LINE",
"575 0 LINE",
"431 304 LINE",
"329 304 LINE",
"231 535 LINE",
"10 535 LINE",
"145 250 LINE"
);
},
{
closed = 1;
nodes = (
"575 535 LINE",
"354 535 LINE",
"256 304 LINE",
"154 304 LINE",
"10 0 LINE",
"231 0 LINE",
"337 250 LINE",
"440 250 LINE"
);
}
);
};
guideLines = (
{
angle = 31.4542;
position = "{384, 66}";
showMeasurement = 1;
}
);
layerId = "17437290-2F44-4E4D-9AD2-4335B65CDC74";
name = "May 19 17, 17:23";
paths = (
{
closed = 1;
nodes = (
"243 250 LINE",
"360 0 LINE",
"586 0 LINE",
"426 304 LINE",
"334 304 LINE",
"225 535 LINE",
"-1 535 LINE",
"150 250 LINE"
);
},
{
closed = 1;
nodes = (
"586 535 LINE",
"360 535 LINE",
"251 304 LINE",
"159 304 LINE",
"-1 0 LINE",
"225 0 LINE",
"342 250 LINE",
"435 250 LINE"
);
}
);
width = 584;
}
);
unicode = 0078;
},
{
color = 3;
glyphname = y;
lastChange = "2017-06-09 11:11:26 +0000";
layers = (
{
background = {
paths = (
{
closed = 1;
nodes = (
"469 515 LINE",
"449 515 LINE",
"236 4 LINE",
"248 4 LINE",
"35 515 LINE",
"15 515 LINE",
"230 0 LINE",
"254 0 LINE"
);
}
);
};
layerId = "0AB32919-C634-42BE-AC70-4A96502CEFC8";
paths = (
{
closed = 1;
nodes = (
"149 -199 OFFCURVE",
"183 -167 OFFCURVE",
"213 -95 CURVE SMOOTH",
"469 515 LINE",
"449 515 LINE",
"236 4 LINE",
"248 4 LINE",
"35 515 LINE",
"15 515 LINE",
"232 -5 LINE",
"194 -93 LINE SMOOTH",
"165 -161 OFFCURVE",
"132 -181 OFFCURVE",
"79 -181 CURVE SMOOTH",
"58 -181 OFFCURVE",
"35 -177 OFFCURVE",
"20 -172 CURVE",
"20 -189 LINE",
"36 -195 OFFCURVE",
"58 -199 OFFCURVE",
"81 -199 CURVE SMOOTH"
);
}
);
width = 484;
},
{
associatedMasterId = "4208D53D-8B52-43BA-A51E-290EEDFDCE51";
background = {
paths = (
{
closed = 1;
nodes = (
"312 -199 OFFCURVE",
"378 -145 OFFCURVE",
"426 -9 CURVE SMOOTH",
"618 535 LINE",
"394 535 LINE",
"297 127 LINE",
"323 127 LINE",
"226 535 LINE",
"2 535 LINE",
"171 65 LINE SMOOTH",
"180 40 OFFCURVE",
"183 25 OFFCURVE",
"183 11 CURVE SMOOTH",
"183 -14 OFFCURVE",
"168 -27 OFFCURVE",
"138 -27 CURVE SMOOTH",
"111 -27 OFFCURVE",
"77 -20 OFFCURVE",
"44 -11 CURVE",
"44 -173 LINE",
"84 -189 OFFCURVE",
"147 -199 OFFCURVE",
"194 -199 CURVE SMOOTH"
);
}
);
};
layerId = "D50BE683-E02F-47F6-8A5F-ACF58EDA106E";
name = "Jun 9 17, 13:11";
paths = (
{
closed = 1;
nodes = (
"312 -199 OFFCURVE",
"378 -145 OFFCURVE",
"426 -9 CURVE SMOOTH",
"618 535 LINE",
"394 535 LINE",
"297 127 LINE",
"323 127 LINE",
"226 535 LINE",
"2 535 LINE",
"171 65 LINE SMOOTH",
"180 40 OFFCURVE",
"183 25 OFFCURVE",
"183 11 CURVE SMOOTH",
"183 -14 OFFCURVE",
"168 -27 OFFCURVE",
"138 -27 CURVE SMOOTH",
"111 -27 OFFCURVE",
"77 -20 OFFCURVE",
"44 -11 CURVE",
"44 -173 LINE",
"84 -189 OFFCURVE",
"147 -199 OFFCURVE",
"194 -199 CURVE SMOOTH"
);
}
);
width = 620;
},
{
background = {
paths = (
{
closed = 1;
nodes = (
"312 -199 OFFCURVE",
"378 -145 OFFCURVE",
"426 -9 CURVE SMOOTH",
"618 535 LINE",
"394 535 LINE",
"297 127 LINE",
"323 127 LINE",
"226 535 LINE",
"2 535 LINE",
"187 11 LINE",
"187 -14 OFFCURVE",
"171 -27 OFFCURVE",
"138 -27 CURVE SMOOTH",
"111 -27 OFFCURVE",
"77 -20 OFFCURVE",
"44 -11 CURVE",
"44 -173 LINE",
"84 -189 OFFCURVE",
"147 -199 OFFCURVE",
"194 -199 CURVE SMOOTH"
);
}
);
};
layerId = "4208D53D-8B52-43BA-A51E-290EEDFDCE51";
paths = (
{
closed = 1;
nodes = (
"312 -199 OFFCURVE",
"378 -145 OFFCURVE",
"426 -9 CURVE SMOOTH",
"618 535 LINE",
"394 535 LINE",
"297 127 LINE",
"323 127 LINE",
"226 535 LINE",
"2 535 LINE",
"188 10 LINE",
"186 2 LINE SMOOTH",
"180 -22 OFFCURVE",
"165 -27 OFFCURVE",
"138 -27 CURVE SMOOTH",
"111 -27 OFFCURVE",
"77 -20 OFFCURVE",
"44 -11 CURVE",
"44 -173 LINE",
"84 -189 OFFCURVE",
"147 -199 OFFCURVE",
"194 -199 CURVE SMOOTH"
);
}
);
width = 620;
}
);
leftMetricsKey = "=v";
rightMetricsKey = "=v";
unicode = 0079;
},
{
color = 3;
glyphname = z;
lastChange = "2017-06-09 13:25:55 +0000";
layers = (
{
guideLines = (
{
angle = -41.0352;
position = "{169, 289}";
showMeasurement = 1;
}
);
layerId = "0AB32919-C634-42BE-AC70-4A96502CEFC8";
paths = (
{
closed = 1;
nodes = (
"408 497 LINE",
"408 515 LINE",
"30 515 LINE",
"30 498 LINE",
"400 498 LINE",
"394 507 LINE",
"25 18 LINE",
"25 0 LINE",
"410 0 LINE",
"410 17 LINE",
"30 17 LINE",
"39 8 LINE"
);
}
);
width = 435;
},
{
layerId = "4208D53D-8B52-43BA-A51E-290EEDFDCE51";
paths = (
{
closed = 1;
nodes = (
"453 378 LINE",
"453 535 LINE",
"25 535 LINE",
"25 380 LINE",
"292 380 LINE",
"256 403 LINE",
"17 157 LINE",
"17 0 LINE",
"459 0 LINE",
"459 156 LINE",
"192 156 LINE",
"213 131 LINE"
);
}
);
width = 476;
},
{
associatedMasterId = "4208D53D-8B52-43BA-A51E-290EEDFDCE51";
background = {
paths = (
{
closed = 1;
nodes = (
"445 363 LINE",
"445 535 LINE",
"23 535 LINE",
"23 375 LINE",
"296 375 LINE",
"283 404 LINE",
"15 172 LINE",
"15 0 LINE",
"451 0 LINE",
"451 160 LINE",
"190 160 LINE",
"202 131 LINE"
);
}
);
};
guideLines = (
{
angle = -46.3957;
position = "{180, 340}";
showMeasurement = 1;
}
);
layerId = "D4FD0F45-A994-40F9-86A6-7C7651D8680F";
name = "Jun 6 17, 19:49";
paths = (
{
closed = 1;
nodes = (
"445 363 LINE",
"445 535 LINE",
"23 535 LINE",
"23 375 LINE",
"296 375 LINE",
"283 404 LINE",
"15 172 LINE",
"15 0 LINE",
"451 0 LINE",
"451 160 LINE",
"190 160 LINE",
"202 131 LINE"
);
}
);
width = 466;
}
);
unicode = 007A;
},
{
color = 3;
glyphname = comma;
lastChange = "2017-06-09 13:05:24 +0000";
layers = (
{
background = {
paths = (
{
closed = 1;
nodes = (
"108 -9 OFFCURVE",
"121 3 OFFCURVE",
"121 22 CURVE SMOOTH",
"121 41 OFFCURVE",
"108 53 OFFCURVE",
"90 53 CURVE SMOOTH",
"72 53 OFFCURVE",
"59 41 OFFCURVE",
"59 22 CURVE SMOOTH",
"59 3 OFFCURVE",
"72 -9 OFFCURVE",
"90 -9 CURVE SMOOTH"
);
},
{
closed = 1;
nodes = (
"79 -123 LINE",
"102 -82 OFFCURVE",
"120 -32 OFFCURVE",
"120 10 CURVE SMOOTH",
"120 26 OFFCURVE",
"113 43 OFFCURVE",
"92 43 CURVE SMOOTH",
"75 43 OFFCURVE",
"64 33 OFFCURVE",
"64 17 CURVE SMOOTH",
"64 1 OFFCURVE",
"75 -9 OFFCURVE",
"91 -9 CURVE SMOOTH",
"96 -9 OFFCURVE",
"102 -8 OFFCURVE",
"108 -4 CURVE",
"100 0 LINE",
"103 -32 OFFCURVE",
"85 -79 OFFCURVE",
"61 -123 CURVE"
);
}
);
};
layerId = "0AB32919-C634-42BE-AC70-4A96502CEFC8";
paths = (
{
closed = 1;
nodes = (
"76 -123 LINE",
"105 -80 OFFCURVE",
"122 -31 OFFCURVE",
"122 16 CURVE SMOOTH",
"122 42 OFFCURVE",
"108 53 OFFCURVE",
"90 53 CURVE SMOOTH",
"72 53 OFFCURVE",
"59 41 OFFCURVE",
"59 22 CURVE SMOOTH",
"59 3 OFFCURVE",
"72 -9 OFFCURVE",
"90 -9 CURVE SMOOTH",
"97 -9 OFFCURVE",
"103 -7 OFFCURVE",
"108 -4 CURVE",
"101 0 LINE",
"103 -32 OFFCURVE",
"87 -80 OFFCURVE",
"56 -123 CURVE"
);
}
);
width = 182;
},
{
background = {
paths = (
{
closed = 1;
nodes = (
"153 35 LINE",
"155 26 OFFCURVE",
"157 17 OFFCURVE",
"157 7 CURVE SMOOTH",
"157 -59 OFFCURVE",
"104 -136 OFFCURVE",
"46 -189 CURVE",
"124 -189 LINE",
"190 -124 OFFCURVE",
"246 1 OFFCURVE",
"246 83 CURVE SMOOTH",
"246 157 OFFCURVE",
"203 197 OFFCURVE",
"137 197 CURVE SMOOTH",
"71 197 OFFCURVE",
"28 156 OFFCURVE",
"28 94 CURVE SMOOTH",
"28 32 OFFCURVE",
"71 -9 OFFCURVE",
"137 -9 CURVE SMOOTH",
"159 -9 OFFCURVE",
"175 -5 OFFCURVE",
"185 0 CURVE"
);
}
);
};
layerId = "4208D53D-8B52-43BA-A51E-290EEDFDCE51";
paths = (
{
closed = 1;
nodes = (
"121 -189 LINE",
"188 -127 OFFCURVE",
"246 -10 OFFCURVE",
"246 83 CURVE SMOOTH",
"246 154 OFFCURVE",
"205 197 OFFCURVE",
"137 197 CURVE SMOOTH",
"71 197 OFFCURVE",
"28 156 OFFCURVE",
"28 94 CURVE SMOOTH",
"28 32 OFFCURVE",
"71 -9 OFFCURVE",
"137 -9 CURVE SMOOTH",
"159 -9 OFFCURVE",
"175 -5 OFFCURVE",
"185 0 CURVE",
"166 35 LINE",
"167 -41 OFFCURVE",
"113 -128 OFFCURVE",
"43 -189 CURVE"
);
}
);
width = 274;
},
{
associatedMasterId = "0AB32919-C634-42BE-AC70-4A96502CEFC8";
background = {
paths = (
{
closed = 1;
nodes = (
"82 -9 OFFCURVE",
"88 -8 OFFCURVE",
"94 -4 CURVE",
"84 0 LINE",
"83 -11 OFFCURVE",
"80 -21 OFFCURVE",
"76 -34 CURVE SMOOTH",
"47 -123 LINE",
"65 -123 LINE",
"93 -36 LINE SMOOTH",
"101 -10 OFFCURVE",
"105 5 OFFCURVE",
"105 17 CURVE SMOOTH",
"105 33 OFFCURVE",
"94 43 OFFCURVE",
"77 43 CURVE SMOOTH",
"61 43 OFFCURVE",
"50 33 OFFCURVE",
"50 17 CURVE SMOOTH",
"50 1 OFFCURVE",
"61 -9 OFFCURVE",
"77 -9 CURVE"
);
}
);
};
layerId = "210F927D-FB24-45C2-AAAB-15C14D8D7CC3";
name = "Jun 7 17, 11:51";
paths = (
{
closed = 1;
nodes = (
"82 -9 OFFCURVE",
"88 -8 OFFCURVE",
"94 -4 CURVE",
"84 0 LINE",
"83 -11 OFFCURVE",
"80 -21 OFFCURVE",
"76 -34 CURVE SMOOTH",
"47 -123 LINE",
"65 -123 LINE",
"93 -36 LINE SMOOTH",
"101 -10 OFFCURVE",
"105 5 OFFCURVE",
"105 17 CURVE SMOOTH",
"105 33 OFFCURVE",
"94 43 OFFCURVE",
"77 43 CURVE SMOOTH",
"61 43 OFFCURVE",
"50 33 OFFCURVE",
"50 17 CURVE SMOOTH",
"50 1 OFFCURVE",
"61 -9 OFFCURVE",
"77 -9 CURVE"
);
}
);
width = 155;
},
{
associatedMasterId = "4208D53D-8B52-43BA-A51E-290EEDFDCE51";
background = {
paths = (
{
closed = 1;
nodes = (
"149 32 LINE",
"152 22 OFFCURVE",
"153 12 OFFCURVE",
"153 1 CURVE SMOOTH",
"153 -46 OFFCURVE",
"119 -128 OFFCURVE",
"64 -197 CURVE",
"135 -197 LINE",
"190 -131 OFFCURVE",
"239 -2 OFFCURVE",
"239 79 CURVE SMOOTH",
"239 146 OFFCURVE",
"199 183 OFFCURVE",
"137 183 CURVE SMOOTH",
"75 183 OFFCURVE",
"35 145 OFFCURVE",
"35 87 CURVE SMOOTH",
"35 29 OFFCURVE",
"75 -9 OFFCURVE",
"137 -9 CURVE SMOOTH",
"156 -9 OFFCURVE",
"172 -5 OFFCURVE",
"182 -1 CURVE"
);
}
);
};
layerId = "3049C63D-0EE4-424A-BE1B-146732BEF937";
name = "Jun 8 17, 17:36";
paths = (
{
closed = 1;
nodes = (
"149 32 LINE",
"152 22 OFFCURVE",
"153 12 OFFCURVE",
"153 1 CURVE SMOOTH",
"153 -46 OFFCURVE",
"119 -128 OFFCURVE",
"64 -197 CURVE",
"135 -197 LINE",
"190 -131 OFFCURVE",
"239 -2 OFFCURVE",
"239 79 CURVE SMOOTH",
"239 146 OFFCURVE",
"199 183 OFFCURVE",
"137 183 CURVE SMOOTH",
"75 183 OFFCURVE",
"35 145 OFFCURVE",
"35 87 CURVE SMOOTH",
"35 29 OFFCURVE",
"75 -9 OFFCURVE",
"137 -9 CURVE SMOOTH",
"156 -9 OFFCURVE",
"172 -5 OFFCURVE",
"182 -1 CURVE"
);
}
);
width = 274;
}
);
unicode = 002C;
},
{
color = 3;
glyphname = period;
lastChange = "2017-06-09 13:04:50 +0000";
layers = (
{
background = {
paths = (
{
closed = 1;
nodes = (
"107 -9 OFFCURVE",
"118 1 OFFCURVE",
"118 17 CURVE SMOOTH",
"118 33 OFFCURVE",
"107 43 OFFCURVE",
"91 43 CURVE SMOOTH",
"75 43 OFFCURVE",
"64 33 OFFCURVE",
"64 17 CURVE SMOOTH",
"64 1 OFFCURVE",
"75 -9 OFFCURVE",
"91 -9 CURVE SMOOTH"
);
}
);
};
layerId = "0AB32919-C634-42BE-AC70-4A96502CEFC8";
paths = (
{
closed = 1;
nodes = (
"109 -9 OFFCURVE",
"122 3 OFFCURVE",
"122 22 CURVE SMOOTH",
"122 41 OFFCURVE",
"109 53 OFFCURVE",
"91 53 CURVE SMOOTH",
"73 53 OFFCURVE",
"60 41 OFFCURVE",
"60 22 CURVE SMOOTH",
"60 3 OFFCURVE",
"73 -9 OFFCURVE",
"91 -9 CURVE SMOOTH"
);
}
);
width = 182;
},
{
background = {
paths = (
{
closed = 1;
nodes = (
"166 35 LINE",
"167 -41 OFFCURVE",
"113 -128 OFFCURVE",
"43 -189 CURVE",
"121 -189 LINE",
"188 -127 OFFCURVE",
"246 -10 OFFCURVE",
"246 83 CURVE SMOOTH",
"246 154 OFFCURVE",
"205 197 OFFCURVE",
"137 197 CURVE SMOOTH",
"71 197 OFFCURVE",
"28 156 OFFCURVE",
"28 94 CURVE SMOOTH",
"28 32 OFFCURVE",
"71 -9 OFFCURVE",
"137 -9 CURVE SMOOTH",
"159 -9 OFFCURVE",
"175 -5 OFFCURVE",
"185 0 CURVE"
);
}
);
};
layerId = "4208D53D-8B52-43BA-A51E-290EEDFDCE51";
paths = (
{
closed = 1;
nodes = (
"203 -9 OFFCURVE",
"246 32 OFFCURVE",
"246 94 CURVE SMOOTH",
"246 156 OFFCURVE",
"203 197 OFFCURVE",
"137 197 CURVE SMOOTH",
"71 197 OFFCURVE",
"28 156 OFFCURVE",
"28 94 CURVE SMOOTH",
"28 32 OFFCURVE",
"71 -9 OFFCURVE",
"137 -9 CURVE SMOOTH"
);
}
);
width = 274;
}
);
unicode = 002E;
},
{
glyphname = hyphen;
lastChange = "2017-06-09 08:53:50 +0000";
layers = (
{
layerId = "0AB32919-C634-42BE-AC70-4A96502CEFC8";
paths = (
{
closed = 1;
nodes = (
"90 276 LINE",
"390 276 LINE",
"390 293 LINE",
"90 293 LINE"
);
}
);
width = 480;
},
{
layerId = "4208D53D-8B52-43BA-A51E-290EEDFDCE51";
paths = (
{
closed = 1;
nodes = (
"80 224 LINE",
"400 224 LINE",
"400 344 LINE",
"80 344 LINE"
);
}
);
width = 480;
}
);
unicode = 002D;
},
{
glyphname = quoteright;
lastChange = "2017-06-09 08:53:50 +0000";
layers = (
{
background = {
paths = (
{
closed = 1;
nodes = (
"82 637 OFFCURVE",
"88 638 OFFCURVE",
"94 642 CURVE",
"84 646 LINE",
"83 635 OFFCURVE",
"80 625 OFFCURVE",
"76 612 CURVE SMOOTH",
"47 523 LINE",
"65 523 LINE",
"93 610 LINE SMOOTH",
"101 636 OFFCURVE",
"105 651 OFFCURVE",
"105 663 CURVE SMOOTH",
"105 679 OFFCURVE",
"94 689 OFFCURVE",
"77 689 CURVE SMOOTH",
"61 689 OFFCURVE",
"50 679 OFFCURVE",
"50 663 CURVE SMOOTH",
"50 647 OFFCURVE",
"61 637 OFFCURVE",
"77 637 CURVE"
);
}
);
};
guideLines = (
{
angle = 74.4759;
position = "{56, 523}";
}
);
layerId = "0AB32919-C634-42BE-AC70-4A96502CEFC8";
paths = (
{
closed = 1;
nodes = (
"82 637 OFFCURVE",
"88 638 OFFCURVE",
"94 642 CURVE",
"84 646 LINE",
"83 635 OFFCURVE",
"80 625 OFFCURVE",
"76 612 CURVE SMOOTH",
"47 523 LINE",
"65 523 LINE",
"93 610 LINE SMOOTH",
"101 636 OFFCURVE",
"105 651 OFFCURVE",
"105 663 CURVE SMOOTH",
"105 679 OFFCURVE",
"94 689 OFFCURVE",
"77 689 CURVE SMOOTH",
"61 689 OFFCURVE",
"50 679 OFFCURVE",
"50 663 CURVE SMOOTH",
"50 647 OFFCURVE",
"61 637 OFFCURVE",
"77 637 CURVE"
);
}
);
width = 155;
},
{
background = {
paths = (
{
closed = 1;
nodes = (
"154 577 LINE",
"153 556 OFFCURVE",
"147 540 OFFCURVE",
"136 518 CURVE SMOOTH",
"79 406 LINE",
"145 406 LINE",
"197 509 LINE SMOOTH",
"226 566 OFFCURVE",
"239 600 OFFCURVE",
"239 634 CURVE SMOOTH",
"239 700 OFFCURVE",
"199 737 OFFCURVE",
"137 737 CURVE SMOOTH",
"75 737 OFFCURVE",
"35 699 OFFCURVE",
"35 641 CURVE SMOOTH",
"35 583 OFFCURVE",
"75 545 OFFCURVE",
"137 545 CURVE SMOOTH",
"156 545 OFFCURVE",
"172 549 OFFCURVE",
"182 553 CURVE"
);
}
);
};
layerId = "4208D53D-8B52-43BA-A51E-290EEDFDCE51";
paths = (
{
closed = 1;
nodes = (
"145 406 LINE",
"197 509 LINE SMOOTH",
"226 566 OFFCURVE",
"239 600 OFFCURVE",
"239 634 CURVE SMOOTH",
"239 700 OFFCURVE",
"199 737 OFFCURVE",
"137 737 CURVE SMOOTH",
"75 737 OFFCURVE",
"35 699 OFFCURVE",
"35 641 CURVE SMOOTH",
"35 583 OFFCURVE",
"75 545 OFFCURVE",
"137 545 CURVE SMOOTH",
"156 545 OFFCURVE",
"172 549 OFFCURVE",
"182 553 CURVE",
"154 577 LINE",
"153 556 OFFCURVE",
"147 540 OFFCURVE",
"136 518 CURVE SMOOTH",
"79 406 LINE"
);
}
);
width = 274;
}
);
unicode = 2019;
},
